<svg viewBox="0 0 1018 400" xmlns="http://www.w3.org/2000/svg"><g><g><g><g><g><line x1="59.296875" y1="377" x2="54.296875" y2="377" style="visibility: inherit;" fill="rgb(0, 0, 0)" stroke="rgb(204, 204, 204)" stroke-width="1px"></line><line x1="59.296875" y1="350.07142857142856" x2="54.296875" y2="350.07142857142856" style="visibility: inherit;" fill="rgb(0, 0, 0)" stroke="rgb(204, 204, 204)" stroke-width="1px"></line><line x1="59.296875" y1="323.1428571428571" x2="54.296875" y2="323.1428571428571" style="visibility: inherit;" fill="rgb(0, 0, 0)" stroke="rgb(204, 204, 204)" stroke-width="1px"></line><line x1="59.296875" y1="296.2142857142857" x2="54.296875" y2="296.2142857142857" style="visibility: inherit;" fill="rgb(0, 0, 0)" stroke="rgb(204, 204, 204)" stroke-width="1px"></line><line x1="59.296875" y1="269.2857142857143" x2="54.296875" y2="269.2857142857143" style="visibility: inherit;" fill="rgb(0, 0, 0)" stroke="rgb(204, 204, 204)" stroke-width="1px"></line><line x1="59.296875" y1="242.35714285714283" x2="54.296875" y2="242.35714285714283" style="visibility: inherit;" fill="rgb(0, 0, 0)" stroke="rgb(204, 204, 204)" stroke-width="1px"></line><line x1="59.296875" y1="215.42857142857142" x2="54.296875" y2="215.42857142857142" style="visibility: inherit;" fill="rgb(0, 0, 0)" stroke="rgb(204, 204, 204)" stroke-width="1px"></line><line x1="59.296875" y1="188.49999999999997" x2="54.296875" y2="188.49999999999997" style="visibility: inherit;" fill="rgb(0, 0, 0)" stroke="rgb(204, 204, 204)" stroke-width="1px"></line><line x1="59.296875" y1="161.57142857142856" x2="54.296875" y2="161.57142857142856" style="visibility: inherit;" fill="rgb(0, 0, 0)" stroke="rgb(204, 204, 204)" stroke-width="1px"></line><line x1="59.296875" y1="134.64285714285708" x2="54.296875" y2="134.64285714285708" style="visibility: inherit;" fill="rgb(0, 0, 0)" stroke="rgb(204, 204, 204)" stroke-width="1px"></line><line x1="59.296875" y1="107.71428571428567" x2="54.296875" y2="107.71428571428567" style="visibility: inherit;" fill="rgb(0, 0, 0)" stroke="rgb(204, 204, 204)" stroke-width="1px"></line><line x1="59.296875" y1="80.78571428571428" x2="54.296875" y2="80.78571428571428" style="visibility: inherit;" fill="rgb(0, 0, 0)" stroke="rgb(204, 204, 204)" stroke-width="1px"></line><line x1="59.296875" y1="53.857142857142776" x2="54.296875" y2="53.857142857142776" style="visibility: inherit;" fill="rgb(0, 0, 0)" stroke="rgb(204, 204, 204)" stroke-width="1px"></line><line x1="59.296875" y1="26.928571428571388" x2="54.296875" y2="26.928571428571388" style="visibility: inherit;" fill="rgb(0, 0, 0)" stroke="rgb(204, 204, 204)" stroke-width="1px"></line><line x1="59.296875" y1="0" x2="54.296875" y2="0" style="visibility: inherit;" fill="rgb(0, 0, 0)" stroke="rgb(204, 204, 204)" stroke-width="1px"></line></g><g transform="translate(49.296875, 0)"><text x="0" y="377" dx="0em" dy="0.3em" style="text-anchor: end; visibility: hidden; font-family: &quot;Helvetica Neue&quot;, sans-serif; font-size: 12px; font-weight: 200;" fill="rgb(50, 49, 63)" stroke="none" stroke-width="1px">-0.01</text><text x="0" y="350.07142857142856" dx="0em" dy="0.3em" style="text-anchor: end; visibility: inherit; font-family: &quot;Helvetica Neue&quot;, sans-serif; font-size: 12px; font-weight: 200;" fill="rgb(50, 49, 63)" stroke="none" stroke-width="1px">-5e-3</text><text x="0" y="323.1428571428571" dx="0em" dy="0.3em" style="text-anchor: end; visibility: inherit; font-family: &quot;Helvetica Neue&quot;, sans-serif; font-size: 12px; font-weight: 200;" fill="rgb(50, 49, 63)" stroke="none" stroke-width="1px">0</text><text x="0" y="296.2142857142857" dx="0em" dy="0.3em" style="text-anchor: end; visibility: inherit; font-family: &quot;Helvetica Neue&quot;, sans-serif; font-size: 12px; font-weight: 200;" fill="rgb(50, 49, 63)" stroke="none" stroke-width="1px">5e-3</text><text x="0" y="269.2857142857143" dx="0em" dy="0.3em" style="text-anchor: end; visibility: inherit; font-family: &quot;Helvetica Neue&quot;, sans-serif; font-size: 12px; font-weight: 200;" fill="rgb(50, 49, 63)" stroke="none" stroke-width="1px">0.01</text><text x="0" y="242.35714285714283" dx="0em" dy="0.3em" style="text-anchor: end; visibility: inherit; font-family: &quot;Helvetica Neue&quot;, sans-serif; font-size: 12px; font-weight: 200;" fill="rgb(50, 49, 63)" stroke="none" stroke-width="1px">0.015</text><text x="0" y="215.42857142857142" dx="0em" dy="0.3em" style="text-anchor: end; visibility: inherit; font-family: &quot;Helvetica Neue&quot;, sans-serif; font-size: 12px; font-weight: 200;" fill="rgb(50, 49, 63)" stroke="none" stroke-width="1px">0.02</text><text x="0" y="188.49999999999997" dx="0em" dy="0.3em" style="text-anchor: end; visibility: inherit; font-family: &quot;Helvetica Neue&quot;, sans-serif; font-size: 12px; font-weight: 200;" fill="rgb(50, 49, 63)" stroke="none" stroke-width="1px">0.025</text><text x="0" y="161.57142857142856" dx="0em" dy="0.3em" style="text-anchor: end; visibility: inherit; font-family: &quot;Helvetica Neue&quot;, sans-serif; font-size: 12px; font-weight: 200;" fill="rgb(50, 49, 63)" stroke="none" stroke-width="1px">0.03</text><text x="0" y="134.64285714285708" dx="0em" dy="0.3em" style="text-anchor: end; visibility: inherit; font-family: &quot;Helvetica Neue&quot;, sans-serif; font-size: 12px; font-weight: 200;" fill="rgb(50, 49, 63)" stroke="none" stroke-width="1px">0.035</text><text x="0" y="107.71428571428567" dx="0em" dy="0.3em" style="text-anchor: end; visibility: inherit; font-family: &quot;Helvetica Neue&quot;, sans-serif; font-size: 12px; font-weight: 200;" fill="rgb(50, 49, 63)" stroke="none" stroke-width="1px">0.04</text><text x="0" y="80.78571428571428" dx="0em" dy="0.3em" style="text-anchor: end; visibility: inherit; font-family: &quot;Helvetica Neue&quot;, sans-serif; font-size: 12px; font-weight: 200;" fill="rgb(50, 49, 63)" stroke="none" stroke-width="1px">0.045</text><text x="0" y="53.857142857142776" dx="0em" dy="0.3em" style="text-anchor: end; visibility: inherit; font-family: &quot;Helvetica Neue&quot;, sans-serif; font-size: 12px; font-weight: 200;" fill="rgb(50, 49, 63)" stroke="none" stroke-width="1px">0.05</text><text x="0" y="26.928571428571388" dx="0em" dy="0.3em" style="text-anchor: end; visibility: inherit; font-family: &quot;Helvetica Neue&quot;, sans-serif; font-size: 12px; font-weight: 200;" fill="rgb(50, 49, 63)" stroke="none" stroke-width="1px">0.055</text><text x="0" y="0" dx="0em" dy="0.3em" style="text-anchor: end; visibility: hidden; font-family: &quot;Helvetica Neue&quot;, sans-serif; font-size: 12px; font-weight: 200;" fill="rgb(50, 49, 63)" stroke="none" stroke-width="1px">0.06</text></g><line x1="59.296875" y1="0" x2="59.296875" y2="377" fill="rgb(0, 0, 0)" stroke="rgb(204, 204, 204)" stroke-width="1px"></line></g></g><g transform="translate(59, 0)" clip-path="url(#clip_0)"><clipPath id="clip_0"><rect width="958" height="377"></rect></clipPath><g><g><g><line x1="0" y1="0" x2="0" y2="377" fill="rgb(0, 0, 0)" stroke="rgb(60, 60, 60)" stroke-width="1px" opacity="0.25"></line><line x1="106.52256944444444" y1="0" x2="106.52256944444444" y2="377" fill="rgb(0, 0, 0)" stroke="rgb(60, 60, 60)" stroke-width="1px" opacity="0.25"></line><line x1="213.04513888888889" y1="0" x2="213.04513888888889" y2="377" fill="rgb(0, 0, 0)" stroke="rgb(60, 60, 60)" stroke-width="1px" opacity="0.25"></line><line x1="319.5677083333333" y1="0" x2="319.5677083333333" y2="377" fill="rgb(0, 0, 0)" stroke="rgb(60, 60, 60)" stroke-width="1px" opacity="0.25"></line><line x1="426.09027777777777" y1="0" x2="426.09027777777777" y2="377" fill="rgb(0, 0, 0)" stroke="rgb(60, 60, 60)" stroke-width="1px" opacity="0.25"></line><line x1="532.6128472222223" y1="0" x2="532.6128472222223" y2="377" fill="rgb(0, 0, 0)" stroke="rgb(60, 60, 60)" stroke-width="1px" opacity="0.25"></line><line x1="639.1354166666666" y1="0" x2="639.1354166666666" y2="377" fill="rgb(0, 0, 0)" stroke="rgb(60, 60, 60)" stroke-width="1px" opacity="0.25"></line><line x1="745.6579861111111" y1="0" x2="745.6579861111111" y2="377" fill="rgb(0, 0, 0)" stroke="rgb(60, 60, 60)" stroke-width="1px" opacity="0.25"></line><line x1="852.1805555555555" y1="0" x2="852.1805555555555" y2="377" fill="rgb(0, 0, 0)" stroke="rgb(60, 60, 60)" stroke-width="1px" opacity="0.25"></line><line x1="958.703125" y1="0" x2="958.703125" y2="377" fill="rgb(0, 0, 0)" stroke="rgb(60, 60, 60)" stroke-width="1px" opacity="0.25"></line></g><g><line x1="0" y1="377" x2="958.703125" y2="377" fill="rgb(0, 0, 0)" stroke="rgb(60, 60, 60)" stroke-width="1px" opacity="0.25"></line><line x1="0" y1="350.07142857142856" x2="958.703125" y2="350.07142857142856" fill="rgb(0, 0, 0)" stroke="rgb(60, 60, 60)" stroke-width="1px" opacity="0.25"></line><line x1="0" y1="323.1428571428571" x2="958.703125" y2="323.1428571428571" fill="rgb(0, 0, 0)" stroke="rgb(60, 60, 60)" stroke-width="1px" opacity="0.25"></line><line x1="0" y1="296.2142857142857" x2="958.703125" y2="296.2142857142857" fill="rgb(0, 0, 0)" stroke="rgb(60, 60, 60)" stroke-width="1px" opacity="0.25"></line><line x1="0" y1="269.2857142857143" x2="958.703125" y2="269.2857142857143" fill="rgb(0, 0, 0)" stroke="rgb(60, 60, 60)" stroke-width="1px" opacity="0.25"></line><line x1="0" y1="242.35714285714283" x2="958.703125" y2="242.35714285714283" fill="rgb(0, 0, 0)" stroke="rgb(60, 60, 60)" stroke-width="1px" opacity="0.25"></line><line x1="0" y1="215.42857142857142" x2="958.703125" y2="215.42857142857142" fill="rgb(0, 0, 0)" stroke="rgb(60, 60, 60)" stroke-width="1px" opacity="0.25"></line><line x1="0" y1="188.49999999999997" x2="958.703125" y2="188.49999999999997" fill="rgb(0, 0, 0)" stroke="rgb(60, 60, 60)" stroke-width="1px" opacity="0.25"></line><line x1="0" y1="161.57142857142856" x2="958.703125" y2="161.57142857142856" fill="rgb(0, 0, 0)" stroke="rgb(60, 60, 60)" stroke-width="1px" opacity="0.25"></line><line x1="0" y1="134.64285714285708" x2="958.703125" y2="134.64285714285708" fill="rgb(0, 0, 0)" stroke="rgb(60, 60, 60)" stroke-width="1px" opacity="0.25"></line><line x1="0" y1="107.71428571428567" x2="958.703125" y2="107.71428571428567" fill="rgb(0, 0, 0)" stroke="rgb(60, 60, 60)" stroke-width="1px" opacity="0.25"></line><line x1="0" y1="80.78571428571428" x2="958.703125" y2="80.78571428571428" fill="rgb(0, 0, 0)" stroke="rgb(60, 60, 60)" stroke-width="1px" opacity="0.25"></line><line x1="0" y1="53.857142857142776" x2="958.703125" y2="53.857142857142776" fill="rgb(0, 0, 0)" stroke="rgb(60, 60, 60)" stroke-width="1px" opacity="0.25"></line><line x1="0" y1="26.928571428571388" x2="958.703125" y2="26.928571428571388" fill="rgb(0, 0, 0)" stroke="rgb(60, 60, 60)" stroke-width="1px" opacity="0.25"></line><line x1="0" y1="0" x2="958.703125" y2="0" fill="rgb(0, 0, 0)" stroke="rgb(60, 60, 60)" stroke-width="1px" opacity="0.25"></line></g></g></g><g><g><line x1="0" y1="323.1428571428571" x2="958.703125" y2="323.1428571428571" fill="rgb(0, 0, 0)" stroke="rgb(153, 153, 153)" stroke-width="1.5px"></line></g></g><g><g><line x1="106.52256944444444" y1="0" x2="106.52256944444444" y2="377" fill="rgb(0, 0, 0)" stroke="rgb(153, 153, 153)" stroke-width="1.5px"></line></g></g><g><g><g><g><g><path stroke="rgb(0, 153, 136)" stroke-width="2px" d="M112.10115640625001,317.9504244430988L112.16080904513889,311.4881092131213L113.17277345486112,317.4131485638454L114.24119482638889,319.99095423872564L115.42306273437501,318.8591709538297L115.82358759548612,318.522221737951L116.78069288194445,319.80729653106033L116.89147635416667,320.5623486220555L117.68933039930556,320.9982857146514L118.22354108506944,320.5107135107584L120.43228656250001,319.28542881487704L122.53397685763888,310.1209416923242L122.7880331857639,311.8071363350715L123.7419427951389,313.44310254168613L125.01861578993056,313.7877276709738L125.29877014756946,311.1242336907069L128.15304239583332,309.7221712268005L128.85822180555556,311.7495062139829L129.52132480034723,310.4850396675103L129.84302296006945,311.3747421720748L130.9977276128472,310.97993701560233L131.35777389756944,314.3260453525109L131.37375228298612,313.9392984023L131.96228947916666,314.5582050541045L132.02194211805553,315.60756590541524L132.53538090277777,314.18882743532856L135.09138995659723,313.25768152592656L135.27993490451388,309.4489732955321L135.3901857638889,309.8150572191886L136.01440802083332,308.3275804291586L136.56885799479167,306.3433472752181L140.02711321180556,305.73424847261555L141.95250865451388,305.97419980929294L143.13757223958333,307.80127347837777L143.90080644965278,307.94983987749947L144.05845985243056,311.78711884510005L144.94472763020835,310.1990026385639L146.21341143229165,309.6960083854031L146.811003046875,309.85040424400756L147.4203121440972,310.39349905947864L147.54494355034723,312.5928870452168L147.76810833333334,310.91664197610385L149.48099125000002,309.4613229303785L149.89216836805556,309.16292488918583L150.1739205642361,310.0910865033073L150.73422927951387,312.78824626134394L154.6654447048611,308.3105437581149L154.78421736979166,304.95611568518626L156.90827740451388,300.88796069273576L157.16819247395833,306.77172745947365L158.06884079861112,308.70319841029493L158.114112890625,309.07691435025805L158.39533247395832,310.8336672921694L158.79159643229167,311.7507686421542L159.43605797743055,311.86797911396525L159.44457978298612,312.3307537862895L159.76947361979168,313.85181079814225L159.91008341145832,311.8283273375485L160.66106752604165,310.925439368722L160.91299340277777,305.80338742283897L161.86157688368056,307.64859000243075L162.70257256944444,309.7610995202991L163.13984771701388,311.34987713350256L164.29721543402778,307.24404781954524L165.0481995486111,306.8004434588481L165.56696446180555,306.503730882219L166.14484940104165,310.65037430242387L166.70835379340278,308.78536997099843L167.41832671875,307.02024827835464L167.7176551388889,307.8748721800745L168.18528921875,310.3631099636108L169.28406952256944,311.4941012876225L169.68299654513888,308.67294376168036L171.1407579079861,311.0885114106333L173.37506880208332,309.74966040262854L174.18943384548612,310.5302674510138L174.5026101996528,309.7911450920692L174.79821032986112,308.6383590520053L176.39711409722221,307.65306733490655L176.47167989583335,307.26109227013706L176.5094954079861,309.6387158141805L176.73958415798612,312.2439286927574L181.12618356770832,299.67789017337856L181.98315763888888,301.2912943594141L182.08754975694444,305.84450764655435L183.419081875,306.4686837311477L183.4260058420139,307.3293619512872L183.4712779340278,307.087659685552L186.09652665798612,303.43138268451L186.12102684895834,308.5503175290212L186.40118120659722,307.99044948345846L186.443790234375,302.77629784808414L186.81395616319446,304.71195770956444L186.94125063368054,304.6284248162394L187.95481288194446,305.40416870982386L188.6653184201389,296.4797780316187L188.696742578125,295.0496841960319L189.98087215277778,298.781053813459L192.14434553819444,296.59534431303234L192.20026988715276,298.70971040588006L192.29560758680554,299.78962222455203L192.42023899305553,303.79339017859763L193.21383213541668,306.20682623651766L195.2835656597222,305.18167781482424L195.53815460069444,305.9971762815667L195.800732734375,308.44837397373675L197.20097190972223,305.7499231122508L198.552210703125,308.06697874767883L198.82224541666668,307.35467395332086L199.52849005208333,306.11966804103247L199.97641745659723,306.8641102259102L200.047787578125,303.89526520701986L200.15590798611112,305.3735055790771L200.91967480902778,307.59771967553667L202.37317526909723,304.22889348948854L202.4930131597222,300.9155311319181L203.28181278645832,304.1400039354021L203.9758073263889,301.93852184852005L204.04025348090278,305.12982515408976L204.28685322916667,308.9781314087718L204.8679338454861,311.4953636975505L206.53501205729165,310.1587627267512L207.0058418142361,306.26265199567337L207.02714632812499,292.9562743138826L207.2907896875,299.361177010746L208.30914545138887,303.81159220104803L208.83057342881943,299.64330994083L209.289685703125,303.9675980472817L209.46118703993056,306.4474697470646L209.63535144097222,309.0200828802202L210.41296619791666,309.58446075898235L211.03825368055556,308.1505277034834L211.49523550347223,307.70734458807635L211.52186614583331,306.5105384531338L211.94955426215276,309.1189929260923L213.22516203125,305.59745259379736L214.2248763454861,304.50717686383234L215.86638914062502,306.36511328151454L215.92124826388888,304.187804056546L216.03789047743058,307.03949948684544L216.62749289930554,295.956548329339L217.99151440104168,300.1541658054947L218.483648671875,300.51376041591686L219.11745796006943,297.9330865704534L221.6255318576389,301.06296474279776L222.423918515625,305.2087061749337L223.0305645486111,306.13580881947973L223.12963053819445,304.54301936819115L223.69100447916665,305.02911502325765L223.79912488715277,301.5124397665727L226.8680401128472,296.4385131555649L226.90532301215276,296.23483250145375L226.9207687847222,297.58560699031165L227.88746110243054,304.5544848635104L228.76467446180555,301.9077098943093L228.94949111979167,306.58907186397346L229.16466671006944,303.7739782847328L230.90737594618057,306.5081217032696L231.60403355034722,309.1464368577018L232.35075676215277,299.8771643921861L232.40295282118058,302.61608183130323L232.40934417534723,304.2358779228376L232.97071811631946,305.6684823029618L233.97149765625,305.6765112493499L234.8945157204861,303.59859196404005L235.44683524305555,301.1328434614545L236.96851014756945,302.94446728385935L237.12722877604165,302.79713279939307L238.635588359375,297.53483273966503L238.93811245659722,298.8271464240838L239.32319154513888,303.0883028007067L239.72584685763889,271.4637307211809L240.49121151909725,287.15081122008064L240.543407578125,294.297377724709L240.7750941666667,289.0705767344009L240.92262792534726,298.03289432222505L242.89808897569444,294.156546586551L243.67410589409724,302.0464506270914L244.44799236111115,305.48800288396865L244.82934315972224,307.67792940506297L245.46475028645833,310.7444361731316L245.70442606770834,301.91073552727136L245.95848239583336,306.61204003279L246.10228786458333,302.49484285724344L246.83356530381946,300.09874590270033L248.70090594618057,290.1843818887865L249.37306335937498,286.9881379868607L249.44922699652778,284.23866149282577L249.85454537326387,292.7994382014533L250.8356182378472,292.70381462437444L251.66596166666668,298.02867565871367L251.71176637152774,297.68445660769737L252.57140350694448,301.24409770801543L253.3112027517361,300.8491627276745L253.36073574652775,304.4268192333251L254.53408184895832,305.2603261198392L254.9548459982639,291.3087878002059L255.97000608506943,284.44406657698596L256.112746328125,294.91843024522484L256.21447538194445,301.54592907729995L257.21898321180555,305.3983927392515L259.61627363715274,304.48170162797925L260.3832361371528,306.7274519713237L260.47324770833336,309.2308648306555L261.46177715277776,303.64502208104295L263.2721282204861,295.4532595242295L263.58264151041664,298.1724392723857L263.9293724739583,300.34325546462816L265.96768184027775,303.64195262077783L266.7410356944444,303.96930371344797L268.4374076128472,300.41234125173094L269.1867938888889,303.4631722201892L269.27467500868056,296.98368035691055L269.9713326128472,303.34219546559945L271.18941819444444,300.48752071972785L271.3582564670139,300.26723243029005L272.60670098090276,306.4854254694859L272.9608885243056,297.75208191971313L273.7752535677083,284.36359630955315L276.11235874131944,286.0507853187888L276.4308612239583,294.9586937325715L276.9139410763889,301.64980236708163L277.8316330121528,300.5987151482346L278.4260289496528,305.104740660578L279.2441222829861,299.53509449380465L279.71175636284727,296.994813517417L281.2227790104167,279.81805554073185L281.4374219878472,277.55973714295277L281.66058677083333,288.32210565601946L281.8113162065972,291.96567665080187L281.98388276909725,298.9605004557794L282.25338486979166,300.4801208594061L283.0214125954861,297.5743970187035L283.55668850694445,293.70121211659216L283.9087455989583,292.3489982679138L284.57717472222225,278.10597996403106L284.78223066840275,286.41829881565934L284.9808952604167,290.47397326995656L287.6359703038194,289.53827915520594L287.7872323524305,286.9895919628593L288.12703934895836,289.82648243285564L288.48335734375,299.98300784829274L288.6489999392361,306.19048566657716L289.3456575434028,295.0816018658186L289.97999944444445,292.05182268462977L291.01539881944444,296.7762923295556L292.2489301736111,287.3159932329127L292.2638433333333,292.3537796703797L292.3458657118055,297.5557244953279L294.56952434895834,299.62343213713467L295.33542162326387,295.0864722428953L295.3514000086805,285.48403015615804L295.45153122395834,294.1752055072792L295.7487291927083,293.07730693775034L297.2959695138889,292.6885653017702L297.91912654513885,296.3499343998832L299.6629010069445,297.78432952977266L302.95391578993053,294.82325471358155L303.26016817708336,296.49220614894506L303.47747421875,296.11174894633035L305.8976669965278,295.97889591345614L306.14479935763893,299.0707872970836L308.01853135416667,288.79000146961687L309.3612483420139,288.8672475630133L309.8352737760416,288.6929154319305L311.25202394965277,283.8213546734552L311.50128676215274,290.9984024927489L311.6056788802083,297.8913386039078L311.870920078125,269.90141276721425L314.09990484375,272.2173479390399L314.14997045138887,258.324050059453L314.4445053559028,261.8679114257649L314.5861803732639,275.41933854948184L315.792015859375,276.5678463528964L317.1746788107639,280.4565887561048L317.58159502604167,274.9376823597655L318.31393769097224,271.08307519090636L318.4928956076389,278.26634120481543L319.3626523871528,272.49299620412194L320.21802861979165,274.28247686944417L322.1844352517361,236.3388818417737L322.5535359548611,257.25029892328166L323.2208998524306,266.0870386547016L323.5676308159722,284.6897683481822L323.79399127604165,288.7983027878246L323.9330032291667,282.2644455584449L324.99929414930557,278.75780136685654L326.5502627604167,281.5753694529896L327.1313433767361,285.29567720806136L328.00802412326385,287.81263100767455L328.897487578125,278.7391648955858L330.88945962673614,269.3908517758677L331.32566954861113,263.32104087475716L332.14269765625,261.87343066907476L332.89155131944443,268.7815270294767L333.22177128472225,281.3506761903435L333.47156671006945,248.79364429673203L334.64651065104164,261.81410518976156L335.11307950520836,271.51153802709473L335.47578885416664,269.969102011712L336.3615240190972,284.342039452271L336.8808215451389,270.87698641325187L337.54445715277774,271.34365527935205L338.2283320486111,266.2870183889369L338.5383127256944,278.2736772952769L339.0480232204861,140.77692401756607L339.30421,181.9387709664007L339.94494325520833,185.74144985647627L340.9419945052083,188.56413762918658L341.26156221354165,203.85144380676817L341.9757960416667,170.29106862939807L344.17974800347224,184.35780994694738L345.29716975694447,211.51549890953225L345.57253059895834,222.8418612439509L347.39672960069447,232.78613576517384L347.6023181597222,197.52722477706942L347.8249503298611,203.23809513113216L348.2430514149305,228.55718420009885L349.04836203993057,233.71018364636174L350.19454488715274,248.2907225236352L350.9902684809028,253.9556200631209L351.772144140625,249.03259634200361L352.8815767013889,248.76723478527188L354.54705707465274,259.05815371448585L356.02452511284724,241.27026066441496L356.84048799479166,261.5791740852289L357.0455439409722,255.05080837576597L357.3853509375,252.8799303178132L358.62580625868054,220.77547569512453L360.611386953125,220.97785901518708L361.431078125,231.66155090369864L363.3271798611111,223.87889665030292L363.5040073263889,241.66349024401387L363.58709493055557,229.8824598310538L363.64355189236113,247.30758955948727L365.09598712673613,268.5263462585953L365.72553551215276,267.88968866092165L365.8501669184028,266.5318770009751L365.9753309375,265.44581515034884L366.8301745572916,274.8147315149528L366.9910236371528,274.8472287674474L367.0565350173611,193.08250689283517L370.1494178211806,215.57759024154166L370.20800523437504,215.0926968541802L370.9786960243056,203.1823730950647L373.103288671875,198.82301415456752L375.0680974652778,195.2438805219735L377.55966036458335,226.60072884662182L377.6853569965278,235.7246615183546L378.8943881597222,238.647045365575L379.03606317708335,240.2641873492702L380.3489538454861,224.06746443541837L382.80589690972226,232.10993472957094L383.35768381944445,250.33784851863072L383.7443607465278,230.56894499151926L384.11452667534724,224.61897177323542L384.4442140277778,233.7824090827992L385.00558796875,240.3773227301362L385.8567032986111,239.341879653674L386.4250012065972,246.69140323925797L387.0092775,244.65449846323173L387.1765179340278,211.82891907968767L387.9594588194444,225.5943905747367L388.18954756944447,203.12396571555334L388.27849391493055,194.11714178462555L390.6997519184028,217.60079125887844L393.07627044270833,211.75788704011L393.5982310329861,235.99083224549645L393.820863203125,238.43878798425473L393.9007551302083,258.00376342209915L394.41632436631943,253.2813986663811L395.1049927777778,257.2031148669852L395.5539854079861,238.59493645671546L395.6818124913195,224.92994349471567L395.96090162326385,159.189743792928L397.4522175954861,193.08274082532247L397.84155758680555,216.48532830249837L399.4250155815972,227.36266591378705L400.3368487760417,227.17084798267956L400.8023524045139,112.45308812972507L402.19673283854166,159.20207807516726L403.3189481076389,186.28109210871776L403.95595307291666,167.25714872309294L404.49975078993054,213.72381862152992L404.64089319444446,221.39200360097684L406.54658196180554,191.77228037938676L407.2746637239583,168.4499610227997L408.47783614583335,196.8561001389247L408.5316300434028,154.13373884288882L408.77130582465276,170.81464375138188L409.17875465277774,126.44740546052734L409.5361378732639,148.9925765230277L409.7811397829861,174.23783474256425L411.4530115104167,200.97561458360195L412.53794388020833,195.0601466002441L412.7419346006945,181.3145032254001L412.83407662326385,209.18606525565883L414.1735979340278,206.66293783642556L414.24976157118056,200.64298162809774L414.8675924739583,166.09720372103143L415.00873487847224,200.54822071202943L415.564250078125,209.83762322337157L417.0955120138889,125.24421808319008L417.59297241319445,145.8348772022358L418.19695538194446,171.06237495118052L419.4091822222222,161.50745950189292L421.47572006944444,193.53492916254436L422.4296296788194,158.2412574481944L423.2679623003472,146.92131915981307L423.5337361111111,170.5121846863739L423.75583566840277,162.1179071271742L423.82880362847226,196.25552743443654L424.3768622482639,211.17039181622576L425.30946734375004,216.1511892700442L425.6636548871528,193.39063024239658L425.68229633680556,195.6872656583943L425.7227749131945,168.3069798927742L425.95925501736116,197.0097274066607L428.008216640625,227.25959597035134L429.4542605208333,215.01302145551543L431.3104162934028,223.30883926699525L431.3200033246528,217.44294442138482L432.1695208159722,235.17808024675494L433.61077118055556,174.45129471177364L435.0371083854167,204.91634486026555L436.0836926302083,190.55092948960313L436.28235722222223,211.62945975342762L437.14572264756947,189.7320630630047L438.0437079079861,-62.52518250123654L439.36085947916666,34.55553339461596L440.0750933072917,62.51284801430427L443.7144368923611,88.72644869963483L443.884340390625,122.8185043355065L444.517084453125,166.34689423562514L445.2243943142361,211.23853219607045L445.68084352430554,204.24015180929214L448.0994384635417,214.035100970648L448.82858545138885,174.00659787381338L450.4679677951389,202.65712583560818L452.5094728385416,218.28811710816922L452.53024473958334,241.0813159182209L453.53954608506945,245.15448693157745L454.36616122395833,235.43293362562196L455.628453671875,210.03922732211038L456.05134827256944,188.37512779342973L456.6324288888889,217.99994327000627L456.8582567361111,204.20677173529603L457.545859921875,200.19075522615378L458.37886641493054,205.81360346850076L459.0936328559028,215.46631810957555L460.0102595659722,229.8871793317033L461.22887776041665,246.82878250582417L462.2285920746528,252.38345963054365L462.9316410329861,254.80747644096977L463.4344275607639,226.50101382684073L464.70257875,218.35620524590314L465.22613717881944,242.23228193626719L466.087904765625,226.6363197344894L466.1901664322917,158.26856426467623L466.4889622395833,198.7950406053159L467.2021308420139,212.331711493215L467.27137051215277,218.53960631157392L467.4226325607639,180.1779411631465L467.67029753472224,134.10250402845213L467.8641686111111,156.24077515474463L472.1293322916667,104.6055614264526L472.6363797222222,131.83404357928913L473.33942868055556,121.84286648025866L474.7769507552083,138.7810739286757L475.0358005989583,168.9504639689932L475.05284421006945,159.890022886597L476.53723621527774,186.27150944468124L476.8504125694445,205.84017355244262L477.0165877777778,223.47930649647228L477.87196401041666,129.07197420180162L478.1254877256944,179.71954469481727L478.38859847222227,187.0810842004822L478.82800407118054,174.18130715158875L480.5052019270833,117.27271273670112L480.56805024305555,129.60167214918357L481.17629411458336,173.89511356825275L481.7685596006944,174.83999303283224L481.8702886545139,153.94851068693697L481.9592349999999,182.71169821557666L482.9461666059028,112.81199022187576L483.7109986545139,118.31992372136159L484.46943934895836,145.71128023337113L484.86943159722216,156.89328461604077L484.98341074652774,158.42984283908544L486.7681963975695,41.3944444678599L487.0792423003472,100.25784876224498L488.73247257812505,142.16004051220392L489.8466986545139,111.94019503266787L490.9880879861111,158.21158644437642L491.6724954947917,147.08928712023916L492.1545101215278,83.76997036822809L492.5624915625,106.61561532073125L492.9140160416666,-14.516547900633839L493.2037574305555,73.73565659817814L493.6181302256945,154.8767613453757L494.0596662760417,187.91813316201853L494.39840804687503,173.08181516084483L494.7781610069444,202.17746367222398L494.82982445312496,212.97954291885605L495.3155673697916,225.15022662154144L497.17278836805554,215.94791588280808L497.51738888020833,140.42539982511266L499.5205457986112,186.84404459923135L499.5594265364583,205.07710864655238L499.90669011284723,147.46414248567345L500.18950753472217,171.52028936484083L500.1980293402778,200.86542375502447L501.7378130815972,148.2294629482901L502.55111289930556,167.7264769594953L503.7281872916667,199.17807185094355L503.7862420920139,187.71046805985108L504.34335513020835,186.96029824082453L504.4109969618056,206.24337101617098L506.36515349826385,120.78230768482211L507.0048215277778,169.50135986041363L507.082050390625,147.28591181399085L507.91665472222223,131.93090279692547L508.35126680555555,160.79057827086018L508.66018225694444,182.4683241988381L510.59090382812497,202.74835716329403L511.34614884548614,154.48439751565175L511.3530728125,93.04141294487715L511.4031384201389,113.57952059055975L511.89420746527776,164.21269636981768L511.9128489149306,169.53886772856674L512.16797046875,211.5536641948214L512.527484140625,140.9591709708276L513.0265423784722,183.9671022465886L513.0483795052083,190.3390106064714L514.60307640625,160.51778092825802L514.8811003124999,185.37724740327317L514.9977425260416,208.93212117863249L515.0312971354167,221.33233849473328L515.3918760329861,193.37449326930104L516.7436474392362,129.2219526228935L517.3865111458333,100.2246217506563L518.454932517361,138.3419919255976L519.1143072222222,152.00712873046078L519.6144306857639,177.24078476218781L520.2359898784723,203.92426381815233L520.5507640711805,233.8846005756185L521.031180859375,174.39156477885314L521.9797643402777,91.01188753729036L522.2545925694444,61.36826740060087L522.6604435590277,138.5017862394255L524.2343145225694,129.55723800934732L526.1613078038195,169.27200800286164L526.2262865711806,137.1103262183879L526.738127517361,67.37157748209319L527.6009603298611,127.45976043851732L527.7437005729166,146.6460224835199L532.9824805381944,132.62148192726588L533.2621022829861,177.85043925593675L533.3185592447917,176.4505243657765L533.5401261892362,199.5858924841128L535.3233140017361,114.49186718963466L535.7611217621528,156.99133075434833L536.4471271093751,173.71351031159682L536.516366779514,167.06993749896733L536.6905311805556,201.16779443717033L540.4955173611112,200.80620135807325L540.6132248003472,135.0562157329519L541.2289252517361,119.71582941903552L541.4888403211805,156.49052615834742L542.1045407725695,188.43284399093415L542.1247800607639,193.91374649615676L542.3000096875,95.82600466019863L542.6376862326389,137.6035992965091L543.7188903125,164.74820543148618L544.8895733506944,180.52054483952648L545.3353703038194,150.0908276377726L547.0786121527777,185.66112536081465L548.0921744010417,210.06516569382083L548.8628651909722,168.494585703682L550.1336794444444,181.53779149362853L550.6439225520834,209.17201082635424L551.4849182378472,204.0180125646076L552.5442851909722,203.82628034043287L553.1834206076389,182.02390415448446L553.6878049739584,186.33253079980568L553.8268169270833,119.84500464312487L554.1650260850694,141.60303193848966L557.2216912152778,69.24131320855571L559.9790279253472,90.71370358261964L562.9446162586805,130.37834634351262L564.0694945920139,149.34841352511532L564.4593671961806,183.64776226892096L565.2359167274305,197.04267413624538L565.8031494097222,166.97426520199338L565.9666615538194,170.7339587551145L566.7815592100695,113.93872368329346L567.509108359375,142.48719236165718L569.1442298003471,107.12206130740725L570.0070626128472,98.97877293111918L570.6062520659722,118.63863032968919L570.6110455815972,154.3422403091912L572.7217902951389,170.2109354469016L574.5513154253472,153.69966805772987L574.6205550954861,162.35716347913998L578.3355297048612,178.78249762581706L579.2937002170139,175.96987599976444L579.7602690711806,179.00317698455967L579.844954513889,179.12097901843256L580.0830324565973,213.61606986028457L581.3852708680556,198.4275893019076L582.3780612152779,201.31445030080462L583.3346338888889,221.90311565756824L583.6866909809028,219.0544255472253L584.2209016666666,208.4894979390009L587.7196354600694,198.24834435154307L587.9933984635417,199.86885449782875L588.1446605121528,154.40022127838736L588.2788789496528,163.16867454314456L588.720415,133.21783036185124L589.0831243489583,140.6690398491704L589.777651501736,-81.40832650439245L590.5834947395833,14.143277795030258L591.1379447135417,101.50555097132025L593.8121938194445,130.8595853869265L594.4784924913195,45.496577463567405L594.7836796527778,119.59126562085675L596.3149415885417,168.23610202282538L597.7199742795138,168.7263393561066L598.2302173871527,191.77453471865093L598.8549722569445,151.13194846129488L599.4781292881944,170.86548085435157L600.0586772916666,159.47097795006843L601.2975347743055,172.72186191216576L601.7396034375,188.87976271539776L602.6940456597222,211.41282967172262L603.1494296440972,197.22724112280383L603.3800510069444,194.5313300063416L603.6420965277778,175.8749037929214L603.8098695746528,191.7755257354026L603.9334357552083,209.18810706616225L606.7333814930556,212.8113082749209L607.0593405555557,208.3261793316937L609.6691435069445,189.83716063227615L610.3125398263888,186.82082042369208L611.1769704774306,185.5573132079931L611.5460711805555,157.68153797638965L612.0706948350694,164.99051256722026L613.6882400520834,76.33177041515341L614.2725163454861,124.23489897551912L615.2674371440971,154.0670425821368L617.4181278211805,157.75625303134888L618.1760359027777,162.86847180019018L618.4918753211806,173.4053117200574L620.8369696875001,135.09343776919056L620.9488183854166,163.92864823530678L621.2886253819445,100.65113084600137L623.2150860503472,126.00488748516386L623.6294588454862,149.55121595736927L625.1016007552083,154.09334670350898L625.8216933246528,125.41696372962139L625.891998220486,174.3374249201613L630.074074296875,193.77885254648055L631.3305080034722,153.8159606839819L631.3736496440972,181.137488826677L633.2772079600694,166.21022556440772L633.7704074565972,176.5448099438779L633.9008976041667,115.81629022318145L635.1429507638888,73.88658776752112L635.2159187239583,70.6381923829689L635.2782344270834,126.76796053074276L636.0984582118056,60.21536397725964L636.1357411111111,47.07768659296573L636.5059070399305,100.72747008844834L636.5959186111112,93.95944427244348L636.7290718229166,96.45509053430163L636.8851273871528,128.98230967532598L637.6808509809028,179.61410893715026L638.7428809982638,78.01560484001993L640.1761421701389,129.2053436180606L640.4850576215277,61.894124885836504L640.9697353125,105.75082071449714L641.2802486024306,3.525934042917413L641.9651887239584,73.23025696079276L642.5872805295139,91.82196416701788L642.9910010677083,135.82343576271313L643.3909933159722,160.80394595302243L645.0138646614583,156.49038724308326L645.6588588194445,121.1492758763141L645.6822937847222,64.75652817492943L646.587735625,99.59427289727489L646.9488471354166,42.34927584098244L647.0005105815972,90.64379872472387L648.7698504600694,144.35861396716248L649.1368207118056,55.251975300894L650.2995145572917,109.9456192472918L650.9679436805555,65.98685193688021L651.5144044618055,96.7778034537285L651.6661991232639,155.51838860558394L654.0448480989584,177.7835785427506L657.5478427951389,185.03169328273793L657.9568894618055,202.0116602864523L661.1733384461805,-41.09786369794938L661.4540254166667,-15.371535450867498L662.804198984375,60.95518201082416L662.8643842361112,61.466471829096065L663.2494633246528,78.00311484733288L663.3719642795139,87.08651686531596L664.6007021180556,103.7191386024918L665.1871088628473,19.37507273303919L665.3815125520833,-221.51910429440886L665.8731142100695,-4.147243883116232L666.5431411718749,69.85814354067844L669.1374983506945,114.28095381108403L670.1878108854166,145.30021208314588L670.4674326302084,67.46889273823962L671.1443835590278,65.291804532078L671.2706128038194,45.26247428136804L671.4330597222222,92.1522296151469L671.9092156076389,128.89398991905492L672.1451630989584,104.262125693815L672.2548813454862,29.920011511989912L672.3944259114583,93.77793896971764L673.3717704861111,93.7729986177601L673.8623069184027,117.80030898508869L674.1003848611111,174.36308264630364L674.6878568315972,160.2141233574333L675.5948965104167,159.9161999488462L675.8468223871528,167.64766609031918L675.9693233420139,165.98424251846987L676.5914151475695,114.04577416590928L676.5978065017362,62.5458323741679L677.4776829253472,102.62915002059145L678.9700641232639,43.06061865198478L679.0169340538195,73.85246285553922L679.3077406684029,122.3385758649392L680.3633793315972,138.7456646472861L680.3788251041667,160.3881704013224L681.1505811197916,123.12508003800872L681.5596277864583,143.8653061911279L681.793444826389,71.1993262825157L682.0411098003472,57.37674999581253L682.5737226475695,117.17312327148682L682.6275165451389,150.7620842485387L682.6600059288194,170.80146088473552L683.9659726302083,112.0054247702086L683.9931358854167,108.60904277115606L684.1651698350695,33.32093691250833L684.2221594097222,-0.5018331613301825L684.5486510850694,91.35090632742543L685.4040273177084,133.46340577095003L685.9595425173611,175.7471856240926L686.2050770399305,173.86405407659907L686.2918929340278,192.14952630052304L686.3355671875,162.43712060259523L686.7243745659722,153.92407901478424L687.0396813715278,168.48042284569422L687.3246292447916,161.71534808094924L688.2780062413195,148.62415258740472L689.8721164930555,149.3602002693803L690.6193723177084,135.75048635717064L690.6981990190973,143.3841843479112L691.0326798871528,186.27060536029208L691.0843433333333,192.36729677436682L691.5636948958332,176.1654449313245L691.8108272569444,152.21692337705005L693.3266434201389,169.38373579876185L693.9471373871528,162.39589334221898L695.6658790451389,130.507010355886L695.86507625,-44.851923190945115L696.3460256510417,70.1554025235979L697.1406840190972,107.27447539110233L697.4027295399305,146.83108830432784L697.6221660329861,159.99946765249524L698.0903327256945,157.6082258548216L698.3220193142361,173.68397743089824L698.9206761545139,140.50682581500226L699.0927101041667,153.09952904901513L700.4498076388888,185.5847892708874L700.7379511892361,131.0003989903507L701.1821503038194,118.06265117507866L701.3797496701388,107.11249004983205L702.7128796267361,101.7900608320603L702.7757279427083,90.87820077093141L703.4787769010417,133.76137479038056L704.1711736024305,159.53094043070683L705.2113664930555,154.36681050244593L706.9173254427083,178.848198810037L707.2102625086806,189.41340361252102L707.4781667708334,124.76578886381444L709.9830449913195,162.3431060791029L710.2727863802083,178.27249149433285L710.6109955381944,181.55678695028217L710.9635852430555,149.72044831267112L711.4216322916667,135.76203717355878L714.0745768836806,141.8469030541647L714.1395556510416,177.83519045776367L716.6715971267361,183.65547329771832L717.7224422743055,176.8174980045371L718.0196402430555,185.7607371000485L719.7479689322917,175.8573161833308L721.2062629079861,146.34905432130392L721.733549626736,82.95329442131384L724.5313649131945,83.61636977668746L726.2277368315972,155.2228612873665L727.2956255902777,184.43394427015085L728.8402028472223,173.94141267631386L729.1352703645833,174.43677163060863L731.8009976649306,180.40108863758573L731.8057911805555,195.1974264065987L732.0731628298611,163.97462108956032L732.3943283767361,176.76468078799226L732.4491875,211.5959002691084L733.95435140625,158.45232248836768L734.3926917795138,196.2997566604087L734.428909453125,190.56403786713975L735.8137028559028,206.5661828632233L735.8211594357639,196.54098405970456L738.0006112065972,163.20514074370962L738.1598624479167,158.33916856377456L738.4506690625,153.44133100143836L738.8522591493056,161.32437366811072L739.7848642447916,86.11972955122457L740.0208117361111,39.55472533939911L740.4655434635416,80.81342764690129L741.2479517361111,49.07374074115262L741.360333046875,-29.15247334039441L741.7842928732639,36.472820892526784L742.1150454513889,84.47392944882245L742.5693642100695,35.362454285561626L742.7445938368055,99.97656997973382L742.8516490190973,143.3183233474345L742.9405953645834,157.50060948340004L745.0827642361111,151.28548117727493L745.0971447829861,8.52646301793476L745.8199004166667,54.466607538505855L746.16822921875,88.74401126618994L747.4108149913194,102.592176827542L747.4283912152778,115.39574790079797L747.7218608940973,105.96475253322785L747.9775150607638,83.38958997107693L749.2701664409723,28.01350084206041L749.5758862152778,59.019881302819954L749.69625671875,113.87362315254074L750.6006333333333,147.81919896047168L751.6797069618056,121.82183382688757L752.32310328125,38.28876997100588L753.8927133420138,96.86017567640619L755.5486066840277,86.83489063900072L759.3418753819445,81.54378181240344L759.633214609375,8.141070422776863L759.8095094618055,80.21065985736999L760.21323,109.2732112850839L763.1713617534722,95.24230186873382L765.3966182291666,92.05159088640204L766.7297481857639,116.38943072104581L766.7462591840277,136.07198603843693L767.2154911024305,49.8750399038326L768.3787175607638,70.98650070340221L768.9198522135416,119.8510096811188L771.7277871440972,101.18809111374213L772.62843546875,92.36798328178537L776.650195078125,52.99448388995603L776.9958608159723,124.1166014396916L777.5790718836805,147.2429734618867L778.85041875,105.18151306135167L779.7558605902777,87.21435866113984L780.6559763020833,-34.84270970523755L780.9196196614583,40.40586951757945L780.9760766232639,76.69156708180765L781.0309357465278,52.37137329835463L781.2253394357639,81.9929398671315L781.4857871180556,135.44666036817583L782.6282416753472,168.18621571317067L782.8631239409723,182.55145028334277L785.1544244097222,158.00027314570113L785.4739921180555,127.09554607461686L785.6146019097223,158.55480533969023L786.3980754079861,67.07022341908839L788.085392907986,107.92925215214728L788.4891134461806,78.49634182295767L788.9727259114584,132.23320741601586L790.9780132812499,150.40134877991215L791.2411240277778,162.76472334795406L791.4951803559028,133.0102093655147L791.6459097916667,123.24778169621692L792.4847750260417,163.42797102000685L796.5555350173611,138.67087076243723L796.898005078125,97.91672079815078L797.0412779340278,151.6602514568186L797.4817487586805,194.44974411157636L797.8077078211805,203.69993116889265L798.3451141840278,197.1932706518148L798.8207374565973,123.24743217895897L800.3823583246528,126.11930142104057L800.5916751736112,145.37837599840844L801.5029757552084,167.58739094341615L802.3263952170139,119.90354576352132L802.678984921875,133.31245656396683L803.0294441753473,152.70585002396797L804.4243572222223,160.09325923984397L806.2709259635417,184.58413842767993L809.1848508506945,173.11155639559337L809.4335810503472,160.6846161529781L809.457016015625,179.60353421711523L809.5374405555556,144.75207763978855L809.6578110590278,143.84565490440224L809.8671279079862,118.61084059620742L810.0892274652778,42.301824227583325L811.1193007118056,89.92977114058255L811.4628359982639,88.21869870914475L812.3325927777778,125.43497365223868L812.3368536805556,164.78121141327495L812.5946382986111,135.70806438252882L813.4196555989583,125.87755909960518L813.6449508333333,143.20402716552132L814.1061935590278,160.15604874294516L814.614838828125,110.77355938605803L815.8941748871528,41.34655079685473L816.5040165972222,98.11093650809335L817.2065329427083,39.307118667755674L817.4611218836806,93.79160678175168L817.6528625086806,127.78077553298604L817.7242326302083,168.29578559918554L819.1313957725695,191.50382739072478L819.1814613802084,131.89927054333518L819.8632058246528,114.86463762454883L820.4836997916666,120.10140041191994L820.6924840277778,136.7531303046067L822.0096355989583,150.6870577475466L822.1529084548612,134.21172457071086L822.2093654166666,159.02816563242126L822.8181419010417,188.0326726575018L822.9491646614583,179.00268074934183L823.7603340277778,162.49969320846583L824.0372927083333,42.862142656080096L825.8162196180556,-17.436768632546034L825.8167522309028,56.78052533142005L826.1459069704862,130.26707360131883L827.2633287239584,179.34149055896776L827.8971380121528,171.9838189546807L828.5112406249999,205.8240720868264L828.9458527083334,125.10462621689763L830.2582107638889,160.11006784812594L831.1716417968751,186.96219636681408L831.2312944357639,197.47137709496627L831.6073191059028,172.0004086462663L832.0824097656249,141.26801344050716L832.4887933680556,47.568955237572766L833.2381796440972,113.43073861380452L833.5652039322916,115.00359338016193L834.0243162065972,56.1169223261187L834.2607963107638,88.04269929618636L835.3169675868055,65.73962187531754L835.4639687326388,122.39915211570448L835.6940574826389,133.6711530813194L836.7188046006944,170.80614731822962L837.075122595486,146.87270371471288L837.5166586458333,161.89925656274482L837.9976080468749,177.41072966957827L839.68013203125,171.0604206073567L840.8007494618056,170.55862527223985L840.9781095399305,158.73537128391257L841.6044622482639,94.64167660862779L842.2388041493056,68.01432895893203L843.3951066406249,123.43584831539255L843.5974995225695,150.98999431719457L844.4608649479167,136.97551917172376L845.9053109895833,84.92313494508466L846.0027791406251,-12.26262359995934L847.9047396180556,60.658145486239846L849.3188267274306,125.46659433011237L849.7220146527778,144.93108798788967L851.0167964843749,113.83162595211513L851.7992047569445,-19.56745610096334L851.8615204600694,30.419936937768114L852.7637666232639,31.864297417125783L854.1837124739583,69.56974275378252L854.2577456597222,34.08839508488785L854.4574754774305,-63.0833547028771L855.2553295225695,27.664007815377147L856.4606323958334,31.968465889231993L857.183920642361,119.36745266132317L857.2728669878472,121.15579216232416L857.4443683246527,159.3697067225436L857.5567496354167,139.20591383892483L857.6600765277777,91.42792491915168L858.803596310764,16.871372588716554L859.4560470486111,95.8004619630488L859.827278203125,131.68825261053175L860.3854564670138,161.99372273155376L861.2546806336806,102.07638940494252L861.2717242447917,141.46729239563172L862.6373435850695,167.33795063340676L863.2935226128471,114.82640327258457L864.2069536458333,110.46879769793992L864.2543561892361,130.97210003905883L864.4567490711805,142.361568221717L865.0719169097222,108.18215200687155L865.0804387152778,90.31895602915364" style="fill: none;" fill="none"></path></g></g></g></g><g opacity="0.2"><g><g><g><path stroke="rgb(0, 153, 136)" stroke-width="2px" d="M112.10115640625001,317.9504244430988L112.16080904513889,307.61072007513474L113.17277345486112,323.10118634054066L114.24119482638889,323.0224537123847L115.42306273437501,317.3815146970696L115.82358759548612,318.05609967067306L116.78069288194445,321.6449740464034L116.89147635416667,321.66322181922646L117.68933039930556,321.6412082498095L118.22354108506944,319.78672561159226L120.43228656250001,317.4586150130656L122.53397685763888,296.42408374271224L122.7880331857639,314.33092258112237L123.7419427951389,315.89384682350124L125.01861578993056,314.30426027100265L125.29877014756946,307.13087122262056L128.15304239583332,307.6196708367871L128.85822180555556,314.78999395462284L129.52132480034723,308.5885324765529L129.84302296006945,312.70921460658843L130.9977276128472,310.3877509329468L131.35777389756944,319.34509775275365L131.37375228298612,313.3591856126274L131.96228947916666,315.4865577002721L132.02194211805553,317.1815997239734L132.53538090277777,312.06072578047L135.09138995659723,311.8609650443707L135.27993490451388,303.7359167972047L135.3901857638889,310.36418276745826L136.01440802083332,306.09636606621956L136.56885799479167,303.36699820230046L140.02711321180556,304.8206003899021L141.95250865451388,306.3341267856636L143.13757223958333,310.5418838511354L143.90080644965278,308.17268946979726L144.05845985243056,317.5430371975526L144.94472763020835,307.8168283533305L146.21341143229165,308.94151701033115L146.811003046875,310.08199803105424L147.4203121440972,311.20814128087034L147.54494355034723,315.89196901941403L147.76810833333334,308.40227437445094L149.48099125000002,307.2783443628411L149.89216836805556,308.715327827526L150.1739205642361,311.48332892424827L150.73422927951387,316.8339858979785L154.6654447048611,301.5939900036901L154.78421736979166,299.9244735759816L156.90827740451388,294.7857282041971L157.16819247395833,315.59737760946155L158.06884079861112,311.6004048365035L158.114112890625,309.6374882602L158.39533247395832,313.4687967050288L158.79159643229167,313.1264206671289L159.43605797743055,312.04379482168173L159.44457978298612,313.02491579477544L159.76947361979168,316.13339631592055L159.91008341145832,308.7931021466585L160.66106752604165,309.5711074154824L160.91299340277777,298.1203095040151L161.86157688368056,310.4163938718183L162.70257256944444,312.9298637971016L163.13984771701388,313.73304355330765L164.29721543402778,301.0853038486093L165.0481995486111,306.1350369178025L165.56696446180555,306.0586620172752L166.14484940104165,316.87033943273127L166.70835379340278,305.9878634738603L167.41832671875,304.37256573938896L167.7176551388889,309.1568080326542L168.18528921875,314.09546663891524L169.28406952256944,313.1905882736402L169.68299654513888,304.44120747276713L171.1407579079861,314.7118628840627L173.37506880208332,307.74138389062136L174.18943384548612,311.70117802359164L174.5026101996528,308.6824615536524L174.79821032986112,306.9091799919094L176.39711409722221,306.1751297592584L176.47167989583335,306.67312967298284L176.5094954079861,313.2051511302457L176.73958415798612,316.1517480106226L181.12618356770832,280.8288323943104L181.98315763888888,303.71140063846747L182.08754975694444,312.6743275772647L183.419081875,307.4049478580377L183.4260058420139,308.62037928149635L183.4712779340278,306.7251062869493L186.09652665798612,297.94696718294705L186.12102684895834,316.228719795788L186.40118120659722,307.1506474151143L186.443790234375,294.95507039502263L186.81395616319446,307.61544750178496L186.94125063368054,304.50312547625174L187.95481288194446,306.5677845502006L188.6653184201389,283.093192014311L188.696742578125,292.90454344265163L189.98087215277778,304.3781082395996L192.14434553819444,293.31678006239235L192.20026988715276,301.8812595451517L192.29560758680554,301.40948995255997L192.42023899305553,309.7990421096661L193.21383213541668,309.8269803233977L195.2835656597222,303.6439551822841L195.53815460069444,307.22042398168037L195.800732734375,312.1251705119919L197.20097190972223,301.70224682002197L198.552210703125,311.54256220082084L198.82224541666668,306.2862167617838L199.52849005208333,304.26715917259986L199.97641745659723,307.9807735032269L200.047787578125,299.44199767868434L200.15590798611112,307.5908661371629L200.91967480902778,310.9340408202261L202.37317526909723,299.1756542104163L202.4930131597222,295.94548759556244L203.28181278645832,308.97671314062814L203.9758073263889,298.636298718197L204.04025348090278,309.91678011244426L204.28685322916667,314.7505907907949L204.8679338454861,315.2712121307185L206.53501205729165,308.1538612705522L207.0058418142361,300.4184858990567L207.02714632812499,272.9967077911964L207.2907896875,308.9685310560412L208.30914545138887,310.487214986501L208.83057342881943,293.3908865505031L209.289685703125,310.45403020695915L209.46118703993056,310.167277296739L209.63535144097222,312.8790025799535L210.41296619791666,310.43102757712563L211.03825368055556,305.999628120235L211.49523550347223,307.0425699149657L211.52186614583331,304.71532925071995L211.94955426215276,313.03167463553007L213.22516203125,300.31514209535504L214.2248763454861,302.8717632688848L215.86638914062502,309.1520179080378L215.92124826388888,300.9218402190932L216.03789047743058,311.31704263229454L216.62749289930554,279.33212159307936L217.99151440104168,306.4505920197282L218.483648671875,301.0531523315502L219.11745796006943,294.06207580225805L221.6255318576389,305.7577820013144L222.423918515625,311.4273183231375L223.0305645486111,307.5264627862988L223.12963053819445,302.15383519125834L223.69100447916665,305.7582585058574L223.79912488715277,296.23742688154533L226.8680401128472,288.82762323905314L226.90532301215276,295.92931152028694L226.9207687847222,299.6117687235985L227.88746110243054,315.00780167330856L228.76467446180555,297.93754744050756L228.94949111979167,313.61111481846973L229.16466671006944,299.55133791587184L230.90737594618057,310.60933683107476L231.60403355034722,313.1039095893502L232.35075676215277,285.9732556939125L232.40295282118058,306.724457989979L232.40934417534723,306.665572060139L232.97071811631946,307.81738887314816L233.97149765625,305.68855466893206L234.8945157204861,300.48171303607523L235.44683524305555,297.4342207075762L236.96851014756945,305.6619030174666L237.12722877604165,302.5761310726936L238.635588359375,289.64138265007307L238.93811245659722,300.765616950712L239.32319154513888,309.4800373656409L239.72584685763889,224.02687260189225L240.49121151909725,310.68143196843033L240.543407578125,305.0172274816515L240.7750941666667,281.2303752489388L240.92262792534726,311.47637070396115L242.89808897569444,288.3420249830399L243.67410589409724,313.8813066879021L244.44799236111115,310.65033126928444L244.82934315972224,310.9628191867045L245.46475028645833,315.3441963252345L245.70442606770834,288.660184558481L245.95848239583336,313.6639967910679L246.10228786458333,296.3190470939236L246.83356530381946,296.50460047088563L248.70090594618057,275.31283586791585L249.37306335937498,282.19377213397195L249.44922699652778,280.11444675177336L249.85454537326387,305.6406032643946L250.8356182378472,292.5603792587561L251.66596166666668,306.0159672102226L251.71176637152774,297.1681280311729L252.57140350694448,306.5835593584925L253.3112027517361,300.2567602571632L253.36073574652775,309.79330399180094L254.53408184895832,306.51058644961034L254.9548459982639,270.38148032075594L255.97000608506943,274.14698474215606L256.112746328125,310.62997574758316L256.21447538194445,311.48717732541263L257.21898321180555,311.1770882321788L259.61627363715274,303.10666496107086L260.3832361371528,310.0960774863405L260.47324770833336,312.98598411965315L261.46177715277776,295.26625795662403L263.2721282204861,283.1656156890094L263.58264151041664,302.25120889462L263.9293724739583,303.5994797529919L265.96768184027775,308.5899983550023L266.7410356944444,304.46033035245324L268.4374076128472,295.0768975591553L269.1867938888889,308.0394186728767L269.27467500868056,287.26444256199255L269.9713326128472,312.87996812863275L271.18941819444444,296.20550860092044L271.3582564670139,299.93679999613335L272.60670098090276,315.81271502827957L272.9608885243056,284.65206659505407L273.7752535677083,264.28086789431313L276.11235874131944,288.58156883264223L276.4308612239583,308.3205563532455L276.9139410763889,311.6864653188469L277.8316330121528,299.02208431996405L278.4260289496528,311.8637789290931L279.2441222829861,291.1806252436446L279.71175636284727,293.1843920528356L281.2227790104167,254.0529185757041L281.4374219878472,274.1722595462842L281.66058677083333,304.46565842561955L281.8113162065972,297.43103314297537L281.98388276909725,309.4527361632458L282.25338486979166,302.7595514648461L283.0214125954861,293.21581125764976L283.55668850694445,287.89143476342514L283.9087455989583,290.3206774948963L284.57717472222225,256.74145250820686L284.78223066840275,298.88677709310184L284.9808952604167,296.55748495140244L287.6359703038194,288.13473798307984L287.7872323524305,283.16656117433945L288.12703934895836,294.08181813785006L288.48335734375,315.21779597144837L288.6489999392361,315.5017023940038L289.3456575434028,278.4182761646807L289.97999944444445,287.5071539128465L291.01539881944444,303.8629967969443L292.2489301736111,273.12554458794847L292.2638433333333,299.91045932658017L292.3458657118055,305.3586417327502L294.56952434895834,302.7249935998448L295.33542162326387,288.28103240153615L295.3514000086805,271.0803670260523L295.45153122395834,307.2119685339608L295.7487291927083,291.43045908345704L297.2959695138889,292.10545284780005L297.91912654513885,301.8419880470527L299.6629010069445,299.93592222460677L302.95391578993053,290.3816424892949L303.26016817708336,298.9956333019904L303.47747421875,295.54106314240823L305.8976669965278,295.77961636414483L306.14479935763893,303.70862437252487L308.01853135416667,273.3688227284167L309.3612483420139,288.98311670310795L309.8352737760416,288.4314172353063L311.25202394965277,276.51401353574227L311.50128676215274,301.76397422168935L311.6056788802083,308.2307427706463L311.870920078125,227.9165240121739L314.09990484375,275.6912506967783L314.14997045138887,237.4841032400727L314.4445053559028,267.1837034752326L314.5861803732639,295.74647923505734L315.792015859375,278.29060805801834L317.1746788107639,286.2897023609174L317.58159502604167,266.65932276525666L318.31393769097224,265.30116443761756L318.4928956076389,289.0412402256791L319.3626523871528,263.8329787030816L320.21802861979165,276.96669786742757L322.1844352517361,179.423489300268L322.5535359548611,288.6174245455435L323.2208998524306,279.34214825183153L323.5676308159722,312.59386288840324L323.79399127604165,294.96110444728816L323.9330032291667,272.46365971437524L324.99929414930557,273.4978350794741L326.5502627604167,285.8017215821892L327.1313433767361,290.87613884066894L328.00802412326385,291.5880617070943L328.897487578125,265.12896572745274L330.88945962673614,255.3683820962906L331.32566954861113,254.21632452309132L332.14269765625,259.7020153605512L332.89155131944443,279.1436715700796L333.22177128472225,300.2043999316437L333.47156671006945,199.95809645631482L334.64651065104164,281.3447965293058L335.11307950520836,286.0576872830944L335.47578885416664,267.65544798863783L336.3615240190972,305.9014456131096L336.8808215451389,250.67940685472314L337.54445715277774,272.04365857850223L338.2283320486111,258.70206305331413L338.5383127256944,296.25366565478697L339.0480232204861,-65.46820589900017L339.30421,243.68154138965264L339.94494325520833,191.4454681915896L340.9419945052083,192.79816928825204L341.26156221354165,226.78240307314053L341.9757960416667,119.95050586334293L344.17974800347224,205.45792192327124L345.29716975694447,252.25203235340967L345.57253059895834,239.83140474557874L347.39672960069447,247.7025475470083L347.6023181597222,144.63885829491272L347.8249503298611,211.8044006622263L348.2430514149305,266.53581780354887L349.04836203993057,241.4396828157561L350.19454488715274,270.1615308395454L350.9902684809028,262.4529663723494L351.772144140625,241.64806076032772L352.8815767013889,248.36919245017424L354.54705707465274,274.4945321083069L356.02452511284724,214.58842108930858L356.84048799479166,292.04254421644976L357.0455439409722,245.25825981157166L357.3853509375,249.62361323088408L358.62580625868054,172.61879376109152L360.611386953125,221.2814339952809L361.431078125,247.687088736466L363.3271798611111,212.20491527020928L363.5040073263889,268.34038063458036L363.58709493055557,212.21091421161375L363.64355189236113,273.44528415213733L365.09598712673613,300.3544813072575L365.72553551215276,266.9347022644111L365.8501669184028,264.49515951105525L365.9753309375,263.81672237440944L366.8301745572916,288.8681060618588L366.9910236371528,274.89597464618936L367.0565350173611,70.43542408091679L370.1494178211806,249.32021526460136L370.20800523437504,214.36535677313802L370.9786960243056,185.31688745639153L373.103288671875,192.28397574382166L375.0680974652778,189.87518007308242L377.55966036458335,273.6360013335943L377.6853569965278,249.41056052595377L378.8943881597222,243.0306211364056L379.03606317708335,242.68990032481295L380.3489538454861,199.77238006464069L382.80589690972226,244.1736401707998L383.35768381944445,277.67971920222044L383.7443607465278,200.91558970085208L384.11452667534724,215.69401194580962L384.4442140277778,247.52756504714486L385.00558796875,250.26969320114168L385.8567032986111,237.78871503898074L386.4250012065972,257.7156886176339L387.0092775,241.59914129919235L387.1765179340278,162.59055000437155L387.9594588194444,246.24259781731024L388.18954756944447,169.4183284267783L388.27849391493055,180.60690588823385L390.6997519184028,252.8262654702578L393.07627044270833,202.99353071195736L393.5982310329861,272.340250053576L393.820863203125,242.11072159239222L393.9007551302083,287.3512265788657L394.41632436631943,246.1978515328041L395.1049927777778,263.08568916789125L395.5539854079861,210.68266884131089L395.6818124913195,204.43245405171595L395.96090162326385,60.57944424024646L397.4522175954861,243.92223637391413L397.84155758680555,251.5892095182623L399.4250155815972,243.67867233072008L400.3368487760417,226.8831210860184L400.8023524045139,-59.62355164970671L402.19673283854166,229.32556299333058L403.3189481076389,226.8996131590434L403.95595307291666,138.72123364465577L404.49975078993054,283.4238234691854L404.64089319444446,232.8942810701472L406.54658196180554,147.34269554700165L407.2746637239583,133.4664819879191L408.47783614583335,239.4653088131121L408.5316300434028,90.050196898835L408.77130582465276,195.83600111412147L409.17875465277774,59.89654802424565L409.5361378732639,182.81033311677828L409.7811397829861,212.105722071869L411.4530115104167,241.08228434515848L412.53794388020833,186.18694462520733L412.7419346006945,160.696038163134L412.83407662326385,250.99340830104688L414.1735979340278,202.87824670757564L414.24976157118056,191.61304731560602L414.8675924739583,114.27853686043193L415.00873487847224,252.22474619852642L415.564250078125,223.77172699038468L417.0955120138889,-1.645889627082056L417.59297241319445,176.72086588080435L418.19695538194446,208.90362157459768L419.4091822222222,147.1750863279615L421.47572006944444,241.5761336535215L422.4296296788194,105.30074987666944L423.2679623003472,129.9414117272411L423.5337361111111,205.8984829762152L423.75583566840277,149.5264907883746L423.82880362847226,247.46195789533002L424.3768622482639,233.5426883889096L425.30946734375004,223.62238545077187L425.6636548871528,159.24979170092513L425.68229633680556,199.13221878239085L425.7227749131945,127.23655124434401L425.95925501736116,240.0638486774904L428.008216640625,272.63439881588727L429.4542605208333,196.64315968326156L431.3104162934028,235.75256598421504L431.3200033246528,208.64410215296914L432.1695208159722,261.7807839848101L433.61077118055556,83.3611164093017L435.0371083854167,250.61392008300336L436.0836926302083,169.00280643360955L436.28235722222223,243.24725514916435L437.14572264756947,156.88596802737027L438.0437079079861,-440.91105084759863L439.36085947916666,180.17660723839484L440.0750933072917,104.44881994383672L443.7144368923611,128.0468497276306L443.884340390625,173.95658778931409L444.517084453125,231.639479085803L445.2243943142361,278.57598913673843L445.68084352430554,193.7425812291247L448.0994384635417,228.72752471268174L448.82858545138885,113.96384322856153L450.4679677951389,245.63291777830037L452.5094728385416,241.73460401701075L452.53024473958334,275.2711141332984L453.53954608506945,251.26424345161232L454.36616122395833,220.8506036666887L455.628453671875,171.94866786684304L456.05134827256944,155.87897850040875L456.6324288888889,262.43716648487106L456.8582567361111,183.51701443323066L457.545859921875,194.1667304624404L458.37886641493054,214.2478758320212L459.0936328559028,229.94539007118766L460.0102595659722,251.51847116489495L461.22887776041665,272.24118726700544L462.2285920746528,260.7154753176229L462.9316410329861,258.4435016566089L463.4344275607639,184.04131990564719L464.70257875,206.13899237449678L465.22613717881944,278.04639697181324L466.087904765625,203.24237643182275L466.1901664322917,55.716931059956494L466.4889622395833,259.58475511627535L467.2021308420139,232.6367178250636L467.27137051215277,227.85144853911225L467.4226325607639,122.63544344050541L467.67029753472224,64.98934832641055L467.8641686111111,189.44818184418335L472.1293322916667,27.152740834014764L472.6363797222222,172.67676680854387L473.33942868055556,106.85610083171298L474.7769507552083,164.1883851013013L475.0358005989583,214.20454902946946L475.05284421006945,146.29936126300265L476.53723621527774,225.8437392818076L476.8504125694445,235.1931697140847L477.0165877777778,249.93800591251676L477.87196401041666,-12.539024240204242L478.1254877256944,255.69090043434073L478.38859847222227,198.12339345897945L478.82800407118054,154.83164157824856L480.5052019270833,31.909821114369777L480.56805024305555,148.09511126790724L481.17629411458336,240.33527569685663L481.7685596006944,176.25731222970143L481.8702886545139,122.61128716809407L481.9592349999999,225.85647950853618L482.9461666059028,7.962428231324452L483.7109986545139,126.58182397059028L484.46943934895836,186.7983150013855L484.86943159722216,173.66629119004517L484.98341074652774,160.73468017365246L486.7681963975695,-134.15865308897838L487.0792423003472,188.55295520382265L488.73247257812505,205.01332813714228L489.8466986545139,66.61042681336397L490.9880879861111,227.61867356193915L491.6724954947917,130.4058381340333L492.1545101215278,-11.209004759788513L492.5624915625,140.88408274948594L492.9140160416666,-196.21479273268153L493.2037574305555,206.11396334639613L493.6181302256945,276.588418466172L494.0596662760417,237.48019088698283L494.39840804687503,150.8273381590843L494.7781610069444,245.82093643929275L494.82982445312496,229.18266178880415L495.3155673697916,243.4062521755695L497.17278836805554,202.14444977470805L497.51738888020833,27.141625738569644L499.5205457986112,256.4720117604094L499.5594265364583,232.4267047175339L499.90669011284723,61.04469324435502L500.18950753472217,207.60450968359194L500.1980293402778,244.88312534029993L501.7378130815972,69.27552173818856L502.55111289930556,196.97199797630307L503.7281872916667,246.35546418811592L503.7862420920139,170.5090623732124L504.34335513020835,185.83504351228473L504.4109969618056,235.1679801791906L506.36515349826385,-7.409287312201116L507.0048215277778,242.5799381238009L507.082050390625,113.96273974435667L507.91665472222223,108.8983892713274L508.35126680555555,204.08009148176225L508.66018225694444,214.98494309080496L510.59090382812497,233.16840660997798L511.34614884548614,82.08845804418831L511.3530728125,0.876936088715297L511.4031384201389,144.38668205908363L511.89420746527776,240.16246003870452L511.9128489149306,177.52812476669035L512.16797046875,274.5758588942034L512.527484140625,35.06743113483702L513.0265423784722,248.47899916023013L513.0483795052083,199.89687314629552L514.60307640625,115.78593641093795L514.8811003124999,222.66644711579593L514.9977425260416,244.26443184167144L515.0312971354167,239.93266446888444L515.3918760329861,151.43772543115273L516.7436474392362,32.993141653282294L517.3865111458333,56.72862544230048L518.454932517361,195.51804718800952L519.1143072222222,172.50483393775565L519.6144306857639,215.0912688097783L520.2359898784723,243.94948240209902L520.5507640711805,278.82510571181774L521.031180859375,85.15201108370508L521.9797643402777,-34.0576283250536L522.2545925694444,16.90283719556669L522.6604435590277,254.20206449766243L524.2343145225694,116.14041566423003L526.1613078038195,228.84416299313304L526.2262865711806,88.86780354167729L526.738127517361,-37.236545622348785L527.6009603298611,217.59203487315347L527.7437005729166,175.42541555102378L532.9824805381944,111.58467109288483L533.2621022829861,245.69387524894302L533.3185592447917,174.35065203053608L533.5401261892362,234.28894466161725L535.3233140017361,-13.149170752082568L535.7611217621528,220.74052610141888L536.4471271093751,198.7967796474695L536.516366779514,157.10457828002316L536.6905311805556,252.3145798444748L540.4955173611112,200.26381173942767L540.6132248003472,36.431237295269966L541.2289252517361,96.70524994816094L541.4888403211805,211.6525712673153L542.1045407725695,236.3463207398142L542.1247800607639,202.1351002539907L542.3000096875,-51.305608093738556L542.6376862326389,200.26999125097475L543.7188903125,205.46511463395183L544.8895733506944,204.17905395158698L545.3353703038194,104.44625183514182L547.0786121527777,239.01657194537773L548.0921744010417,246.6712261933301L548.8628651909722,106.13871571847369L550.1336794444444,201.10260017854824L550.6439225520834,250.62333982544283L551.4849182378472,196.28701517198763L552.5442851909722,203.53868200417074L553.1834206076389,149.3203398755618L553.6878049739584,192.7954707677875L553.8268169270833,20.113715408103815L554.1650260850694,174.24007288153678L557.2216912152778,-39.301264886345166L559.9790279253472,122.92228914371555L562.9446162586805,189.8753104848521L564.0694945920139,177.8035142975194L564.4593671961806,235.0967853846294L565.2359167274305,217.135041937232L565.8031494097222,121.87165180061541L565.9666615538194,176.3734990847962L566.7815592100695,28.745871075562036L567.509108359375,185.30989537920266L569.1442298003471,54.07436472603251L570.0070626128472,86.76384036668708L570.6062520659722,148.12841642754418L570.6110455815972,207.89765527844426L572.7217902951389,194.01397815346715L574.5513154253472,128.9327669739723L574.6205550954861,175.34340661125523L578.3355297048612,203.42049884583267L579.2937002170139,171.7509435606854L579.7602690711806,183.5531284617526L579.844954513889,179.29768206924197L580.0830324565973,265.3587061230625L581.3852708680556,175.64486846434218L582.3780612152779,205.64474179915015L583.3346338888889,252.78611369271363L583.6866909809028,214.78139038171085L584.2209016666666,192.6421065266643L587.7196354600694,182.88661397035628L587.9933984635417,202.29961971725734L588.1446605121528,86.19727144922524L588.2788789496528,176.32135444028034L588.720415,88.29156408991128L589.0831243489583,151.84585408014908L589.777651501736,-414.52437603473675L590.5834947395833,157.47068424416437L591.1379447135417,232.5489607357553L593.8121938194445,174.8906370103359L594.4784924913195,-82.54793442147121L594.7836796527778,230.73329785679064L596.3149415885417,241.20335662577833L597.7199742795138,169.46169535602837L598.2302173871527,226.34682776246748L598.8549722569445,90.1680690752608L599.4781292881944,200.46577944393667L600.0586772916666,142.37922359364373L601.2975347743055,192.59818785531178L601.7396034375,213.1166139202458L602.6940456597222,245.21243010620984L603.1494296440972,175.94885829942567L603.3800510069444,190.48746333164826L603.6420965277778,147.8902644727911L603.8098695746528,215.6264586491244L603.9334357552083,235.30697906230176L606.7333814930556,218.24611008805886L607.0593405555557,201.59848591685292L609.6691435069445,162.10363258314982L610.3125398263888,182.2963101108159L611.1769704774306,183.66205238444462L611.5460711805555,115.8678751289844L612.0706948350694,175.95397445346623L613.6882400520834,-56.65634281294689L614.2725163454861,196.08959181606767L615.2674371440971,198.8152579920632L617.4181278211805,163.29006870516707L618.1760359027777,170.53679995345217L618.4918753211806,189.21057159985813L620.8369696875001,77.62562684289043L620.9488183854166,207.18146393448112L621.2886253819445,5.7348547620432555L623.2150860503472,164.03552244390755L623.6294588454862,184.87070866567745L625.1016007552083,160.9065428227186L625.8216933246528,82.40238926878993L625.891998220486,247.71811670597108L630.074074296875,222.94099398595944L631.3305080034722,93.87162289023394L631.3736496440972,222.11978104071957L633.2772079600694,143.81933067100388L633.7704074565972,192.0466865130833L633.9008976041667,24.72351064213683L635.1429507638888,10.992034084030536L635.2159187239583,65.76559930614059L635.2782344270834,210.96261275240352L636.0984582118056,-39.61353085296497L636.1357411111111,27.371170516525012L636.5059070399305,181.20214533167226L636.5959186111112,83.8074055484363L636.7290718229166,100.19855992708887L636.8851273871528,177.77313838686257L637.6808509809028,255.56180782988667L638.7428809982638,-74.3821513056755L640.1761421701389,205.9899517851216L640.4850576215277,-39.07270321249962L640.9697353125,171.53586445748803L641.2802486024306,-149.81139596445223L641.9651887239584,177.78674133760586L642.5872805295139,119.70952497635568L642.9910010677083,201.82564315625598L643.3909933159722,198.2747112384864L645.0138646614583,150.02004917817456L645.6588588194445,68.13760882616037L645.6822937847222,-19.83259337714742L646.587735625,151.85088998079297L646.9488471354166,-43.51821974345614L647.0005105815972,163.08558305033614L648.7698504600694,224.93083683082034L649.1368207118056,-78.4079826985087L650.2995145572917,191.98608516688856L650.9679436805555,0.048700971262803705L651.5144044618055,142.96423072900086L651.6661991232639,243.62926633336713L654.0448480989584,211.1813634485006L657.5478427951389,195.90386539271896L657.9568894618055,227.48161079202376L661.1733384461805,-405.7621496745519L661.4540254166667,23.21795691975524L662.804198984375,175.4452582033617L662.8643842361112,62.233406556504065L663.2494633246528,102.80807937468796L663.3719642795139,100.71161989229063L664.6007021180556,128.66807120825558L665.1871088628473,-107.14102607113978L665.3815125520833,-582.8603698355812L665.5530138888888,169.3236996403762L665.8731142100695,87.40486437295164L666.5431411718749,180.8662246763706L669.1374983506945,180.91516921669242L670.1878108854166,191.82909949123857L670.4674326302084,-49.27808627911975L671.1443835590278,62.02617222283567L671.2706128038194,15.21847890530313L671.4330597222222,162.48686261581523L671.9092156076389,184.00663037491694L672.1451630989584,67.31432935595507L672.2548813454862,-81.59315976074765L672.3944259114583,189.56483015630923L673.3717704861111,93.76558808982367L673.8623069184027,153.8412745360817L674.1003848611111,259.20724313812593L674.6878568315972,138.99068442412783L675.5948965104167,159.4693148359656L675.8468223871528,179.24486530252864L675.9693233420139,163.48910716069594L676.5914151475695,36.13807163706849L676.5978065017362,-14.704080313444138L677.4776829253472,162.7541264902268L678.9700641232639,-46.29217840092525L679.0169340538195,120.04022916087081L679.3077406684029,195.0677453790392L680.3633793315972,163.35629782080647L680.3788251041667,192.8519290323768L681.1505811197916,67.2304444930383L681.5596277864583,174.9756454208067L681.793444826389,-37.79964358040263L682.0411098003472,36.64288556575775L682.5737226475695,206.86768318499836L682.6275165451389,201.14552571411642L682.6600059288194,200.86052583903071L683.9659726302083,23.811370598418364L683.9931358854167,103.51446977257723L684.1651698350695,-79.61122187546323L684.2221594097222,-51.23598827208792L684.5486510850694,229.13001556055886L685.4040273177084,196.63215493623696L685.9595425173611,239.17285540380647L686.2050770399305,171.0393567553588L686.2918929340278,219.5777346364089L686.3355671875,117.86851205570355L686.7243745659722,141.15451663306777L687.0396813715278,190.31493859205924L687.3246292447916,151.56773593383176L688.2780062413195,128.98735934708796L689.8721164930555,150.46427179234368L690.6193723177084,115.33591548885613L690.6981990190973,154.8347313340221L691.0326798871528,250.60023687886337L691.0843433333333,201.5123338954789L691.5636948958332,151.86266716676099L691.8108272569444,116.29414104563847L693.3266434201389,195.1339544313294L693.9471373871528,151.91412965740471L695.6658790451389,82.67368587638646L695.86507625,-307.8903235111919L696.3460256510417,242.66639109541262L697.1406840190972,162.95308469235894L697.4027295399305,206.1660076741661L697.6221660329861,179.75203667474642L698.0903327256945,154.02136315831115L698.3220193142361,197.79760479501311L698.9206761545139,90.74109839115823L699.0927101041667,171.9885839000344L700.4498076388888,234.31267960369584L700.7379511892361,49.12381356954569L701.1821503038194,98.65602945217063L701.3797496701388,90.68724836196213L702.7128796267361,93.8064170054027L702.7757279427083,74.51041067923813L703.4787769010417,198.0861358195543L704.1711736024305,198.18528889119622L705.2113664930555,146.62061561005456L706.9173254427083,215.5702812714236L707.2102625086806,205.2612108162471L707.4781667708334,27.79436674075464L709.9830449913195,218.70908190203562L710.2727863802083,202.16656961717774L710.6109955381944,186.4832301342061L710.9635852430555,101.96594035625452L711.4216322916667,114.8244204648903L714.0745768836806,150.97420187507353L714.1395556510416,231.8176215631621L716.6715971267361,192.38589755765025L717.7224422743055,166.56053506476536L718.0196402430555,199.17559574331554L719.7479689322917,161.0021848082542L721.2062629079861,102.08666152826373L721.733549626736,-12.14034542867114L724.5313649131945,84.61098280974795L726.2277368315972,262.63259855338504L727.2956255902777,228.25056874432732L728.8402028472223,158.20261528555832L729.1352703645833,175.1798100620508L731.8009976649306,189.34756414805136L731.8057911805555,217.3919330601181L732.0731628298611,117.14041311400274L732.3943283767361,195.9497703356402L732.4491875,263.8427294907825L733.95435140625,78.73695581725661L734.3926917795138,253.07090791847023L734.428909453125,181.96045967723637L735.8137028559028,230.56940035734854L735.8211594357639,181.50318585442645L738.0006112065972,113.20137576971734L738.1598624479167,151.04021029387198L738.4506690625,146.094574657934L738.8522591493056,173.14893766811915L739.7848642447916,-26.687236624104685L740.0208117361111,-30.292780978339067L740.4655434635416,142.70148110815455L741.2479517361111,1.464210382529643L741.360333046875,-146.4917944627149L741.7842928732639,134.91076224190846L742.1150454513889,156.47559228326588L742.5693642100695,-38.304758459329605L742.7445938368055,196.89774352099212L742.8516490190973,208.33095339898549L742.9405953645834,178.77403868734834L745.0827642361111,141.9627887180873L745.0971447829861,-205.61206422107557L745.8199004166667,123.37682431936261L746.16822921875,140.160116857716L747.4108149913194,123.36442516957007L747.4283912152778,134.60110451068192L747.7218608940973,91.81825948187281L747.9775150607638,49.52684612785066L749.2701664409723,-55.05063285146446L749.5758862152778,105.52945199395924L749.69625671875,196.15423592712196L750.6006333333333,198.73756267236809L751.6797069618056,82.82578612651139L752.32310328125,-87.01082581281662L753.8927133420138,184.7172842345067L755.5486066840277,71.79696308289255L759.3418753819445,73.60711857250755L759.633214609375,-101.96299666166306L759.8095094618055,188.31504400925976L760.21323,152.86703842665463L763.1713617534722,74.19593774420872L765.3966182291666,87.26552441290443L766.7297481857639,152.89619047301156L766.7462591840277,165.5958190145237L767.2154911024305,-79.42037929807395L768.3787175607638,102.65369190275663L768.9198522135416,193.14777314769367L771.7277871440972,73.19371326267714L772.62843546875,79.13782153385023L776.650195078125,-6.065765197787982L776.9958608159723,230.7997777642948L777.5790718836805,181.93253149517943L778.85041875,42.08932246054917L779.7558605902777,60.263627060822046L780.6559763020833,-217.9283122548036L780.9196196614583,153.27873835180483L780.9760766232639,131.12011342814986L781.0309357465278,15.89108262317518L781.2253394357639,126.42528972029683L781.4857871180556,215.62724111974237L782.6282416753472,217.2955487306629L782.8631239409723,204.099302138601L785.1544244097222,121.17350743923865L785.4739921180555,80.73845546799043L785.6146019097223,205.7436942373003L786.3980754079861,-70.15664946181437L788.085392907986,169.2177952517356L788.4891134461806,34.346976329173344L788.9727259114584,212.8385058056031L790.9780132812499,177.6535608257566L791.2411240277778,181.3097852000168L791.4951803559028,88.37843839185575L791.6459097916667,108.60414019227022L792.4847750260417,223.6982550056917L796.5555350173611,101.5352203760828L796.898005078125,36.785495851721066L797.0412779340278,232.27554744482038L797.4817487586805,258.63398309371297L797.8077078211805,217.57521175486698L798.3451141840278,187.43327987619807L798.8207374565973,12.32867446967532L800.3823583246528,130.4271052841629L800.5916751736112,174.26698786446025L801.5029757552084,200.90091336092775L802.3263952170139,48.37777799367899L802.678984921875,153.42582276463506L803.0294441753473,181.79594021396977L804.4243572222223,171.17437306365795L806.2709259635417,221.3204572094338L809.1848508506945,155.90268334746358L809.4335810503472,142.04420578905513L809.457016015625,207.9819113133209L809.5374405555556,92.4748927737985L809.6578110590278,142.48602080132275L809.8671279079862,80.7586191339152L810.0892274652778,-72.16170032535285L811.1193007118056,161.37169151008126L811.4628359982639,85.65209006198813L812.3325927777778,181.25938606687953L812.3368536805556,223.80056805482928L812.5946382986111,92.0983438364097L813.4196555989583,111.13180117521966L813.6449508333333,169.19372926439553L814.1061935590278,185.58408110908098L814.614838828125,36.69982535072734L815.8941748871528,-62.793962086950046L816.5040165972222,183.25751507495127L817.2065329427083,-48.898608092750806L817.4611218836806,175.5183389527457L817.6528625086806,178.76452865983754L817.7242326302083,229.06830069848468L819.1313957725695,226.3158900780337L819.1814613802084,42.492435272250816L819.8632058246528,89.3126882463693L820.4836997916666,127.95654459297654L820.6924840277778,161.73072514363696L822.0096355989583,171.58794891195637L822.1529084548612,109.49872480545724L822.2093654166666,196.25282722498687L822.8181419010417,231.53943319512263L822.9491646614583,165.45769288710184L823.7603340277778,137.74521189715176L824.0372927083333,-136.59418317249845L825.8162196180556,-107.88513556548526L825.8167522309028,168.1064662773694L826.1459069704862,240.4968960061669L827.2633287239584,252.95311599544112L827.8971380121528,160.94731154825L828.5112406249999,256.58445178504496L828.9458527083334,4.025457412004471L830.2582107638889,212.61823029496838L831.1716417968751,227.24038914484635L831.2312944357639,213.2351481871945L831.6073191059028,133.79395597321644L832.0824097656249,95.16942063186849L832.4887933680556,-92.97963206682891L833.2381796440972,212.22341367815218L833.5652039322916,117.36287552969793L834.0243162065972,-32.21308425494601L834.2607963107638,135.93136475128784L835.3169675868055,32.285005744014484L835.4639687326388,207.38844747628482L835.6940574826389,150.57915452974183L836.7188046006944,226.50863867359502L837.075122595486,110.97253830943788L837.5166586458333,184.43908583479268L837.9976080468749,200.67793932982852L839.68013203125,161.53495701402423L840.8007494618056,169.8059322695647L840.9781095399305,141.0004903014217L841.6044622482639,-1.4988654042993517L842.2388041493056,28.07330748438835L843.3951066406249,206.56812735008342L843.5974995225695,192.32121331989762L844.4608649479167,115.95380645351747L845.9053109895833,6.84455860512594L846.0027791406251,-158.04126141752522L847.9047396180556,170.03929911553857L849.3188267274306,222.6792675959212L849.7220146527778,174.12782847455568L851.0167964843749,67.18243289845327L851.7992047569445,-219.66607918058128L851.8615204600694,105.40102649586538L852.7637666232639,34.03083813616206L854.1837124739583,126.12791075876777L854.2577456597222,-19.133626418454355L854.4574754774305,-208.84097938452453L855.2553295225695,163.78505159275872L856.4606323958334,38.42515300001418L857.183920642361,250.46593281946008L857.2728669878472,123.83830141382558L857.4443683246527,216.69057856287273L857.5567496354167,108.96022451349666L857.6600765277777,19.76094153949191L858.803596310764,-94.96345590693613L859.4560470486111,214.19409602454726L859.827278203125,185.51993858175618L860.3854564670138,207.45192791308673L861.2546806336806,12.200389415025711L861.2717242447917,200.5536468816655L862.6373435850695,206.14393799006936L863.2935226128471,36.05908223135128L864.2069536458333,103.93238933597291L864.2543561892361,161.7270535507372L864.4567490711805,159.44577049570424L865.0719169097222,56.91302768460338L865.0804387152778,63.524162062576806" style="fill: none;" fill="none"></path></g></g></g></g></g></g><g transform="translate(59, 377)" clip-path="url(#clip_1)"><clipPath id="clip_1"><rect width="958" height="23"></rect></clipPath><g><g><line x1="0" y1="0" x2="0" y2="5" style="visibility: inherit;" fill="rgb(0, 0, 0)" stroke="rgb(204, 204, 204)" stroke-width="1px"></line><line x1="106.52256944444444" y1="0" x2="106.52256944444444" y2="5" style="visibility: inherit;" fill="rgb(0, 0, 0)" stroke="rgb(204, 204, 204)" stroke-width="1px"></line><line x1="213.04513888888889" y1="0" x2="213.04513888888889" y2="5" style="visibility: inherit;" fill="rgb(0, 0, 0)" stroke="rgb(204, 204, 204)" stroke-width="1px"></line><line x1="319.5677083333333" y1="0" x2="319.5677083333333" y2="5" style="visibility: inherit;" fill="rgb(0, 0, 0)" stroke="rgb(204, 204, 204)" stroke-width="1px"></line><line x1="426.09027777777777" y1="0" x2="426.09027777777777" y2="5" style="visibility: inherit;" fill="rgb(0, 0, 0)" stroke="rgb(204, 204, 204)" stroke-width="1px"></line><line x1="532.6128472222223" y1="0" x2="532.6128472222223" y2="5" style="visibility: inherit;" fill="rgb(0, 0, 0)" stroke="rgb(204, 204, 204)" stroke-width="1px"></line><line x1="639.1354166666666" y1="0" x2="639.1354166666666" y2="5" style="visibility: inherit;" fill="rgb(0, 0, 0)" stroke="rgb(204, 204, 204)" stroke-width="1px"></line><line x1="745.6579861111111" y1="0" x2="745.6579861111111" y2="5" style="visibility: inherit;" fill="rgb(0, 0, 0)" stroke="rgb(204, 204, 204)" stroke-width="1px"></line><line x1="852.1805555555555" y1="0" x2="852.1805555555555" y2="5" style="visibility: inherit;" fill="rgb(0, 0, 0)" stroke="rgb(204, 204, 204)" stroke-width="1px"></line><line x1="958.703125" y1="0" x2="958.703125" y2="5" style="visibility: inherit;" fill="rgb(0, 0, 0)" stroke="rgb(204, 204, 204)" stroke-width="1px"></line></g><g transform="translate(0, 8)"><text x="0" y="0" dx="0em" dy="0.95em" style="text-anchor: middle; visibility: hidden; font-family: &quot;Helvetica Neue&quot;, sans-serif; font-size: 12px; font-weight: 200;" fill="rgb(50, 49, 63)" stroke="none" stroke-width="1px">-200k</text><text x="106.52256944444444" y="0" dx="0em" dy="0.95em" style="text-anchor: middle; visibility: inherit; font-family: &quot;Helvetica Neue&quot;, sans-serif; font-size: 12px; font-weight: 200;" fill="rgb(50, 49, 63)" stroke="none" stroke-width="1px">0</text><text x="213.04513888888889" y="0" dx="0em" dy="0.95em" style="text-anchor: middle; visibility: inherit; font-family: &quot;Helvetica Neue&quot;, sans-serif; font-size: 12px; font-weight: 200;" fill="rgb(50, 49, 63)" stroke="none" stroke-width="1px">200k</text><text x="319.5677083333333" y="0" dx="0em" dy="0.95em" style="text-anchor: middle; visibility: inherit; font-family: &quot;Helvetica Neue&quot;, sans-serif; font-size: 12px; font-weight: 200;" fill="rgb(50, 49, 63)" stroke="none" stroke-width="1px">400k</text><text x="426.09027777777777" y="0" dx="0em" dy="0.95em" style="text-anchor: middle; visibility: inherit; font-family: &quot;Helvetica Neue&quot;, sans-serif; font-size: 12px; font-weight: 200;" fill="rgb(50, 49, 63)" stroke="none" stroke-width="1px">600k</text><text x="532.6128472222223" y="0" dx="0em" dy="0.95em" style="text-anchor: middle; visibility: inherit; font-family: &quot;Helvetica Neue&quot;, sans-serif; font-size: 12px; font-weight: 200;" fill="rgb(50, 49, 63)" stroke="none" stroke-width="1px">800k</text><text x="639.1354166666666" y="0" dx="0em" dy="0.95em" style="text-anchor: middle; visibility: inherit; font-family: &quot;Helvetica Neue&quot;, sans-serif; font-size: 12px; font-weight: 200;" fill="rgb(50, 49, 63)" stroke="none" stroke-width="1px">1M</text><text x="745.6579861111111" y="0" dx="0em" dy="0.95em" style="text-anchor: middle; visibility: inherit; font-family: &quot;Helvetica Neue&quot;, sans-serif; font-size: 12px; font-weight: 200;" fill="rgb(50, 49, 63)" stroke="none" stroke-width="1px">1.2M</text><text x="852.1805555555555" y="0" dx="0em" dy="0.95em" style="text-anchor: middle; visibility: inherit; font-family: &quot;Helvetica Neue&quot;, sans-serif; font-size: 12px; font-weight: 200;" fill="rgb(50, 49, 63)" stroke="none" stroke-width="1px">1.4M</text><text x="958.703125" y="0" dx="0em" dy="0.95em" style="text-anchor: middle; visibility: hidden; font-family: &quot;Helvetica Neue&quot;, sans-serif; font-size: 12px; font-weight: 200;" fill="rgb(50, 49, 63)" stroke="none" stroke-width="1px">1.6M</text></g><line x1="0" y1="0" x2="958.703125" y2="0" fill="rgb(0, 0, 0)" stroke="rgb(204, 204, 204)" stroke-width="1px"></line></g></g></g></g></svg>