<svg viewBox="0 0 1018 400" xmlns="http://www.w3.org/2000/svg"><g><g><g><g><g><line x1="39.578125" y1="377" x2="34.578125" y2="377" style="visibility: inherit;" fill="rgb(0, 0, 0)" stroke="rgb(204, 204, 204)" stroke-width="1px"></line><line x1="39.578125" y1="342.72727272727275" x2="34.578125" y2="342.72727272727275" style="visibility: inherit;" fill="rgb(0, 0, 0)" stroke="rgb(204, 204, 204)" stroke-width="1px"></line><line x1="39.578125" y1="308.45454545454544" x2="34.578125" y2="308.45454545454544" style="visibility: inherit;" fill="rgb(0, 0, 0)" stroke="rgb(204, 204, 204)" stroke-width="1px"></line><line x1="39.578125" y1="274.1818181818182" x2="34.578125" y2="274.1818181818182" style="visibility: inherit;" fill="rgb(0, 0, 0)" stroke="rgb(204, 204, 204)" stroke-width="1px"></line><line x1="39.578125" y1="239.9090909090909" x2="34.578125" y2="239.9090909090909" style="visibility: inherit;" fill="rgb(0, 0, 0)" stroke="rgb(204, 204, 204)" stroke-width="1px"></line><line x1="39.578125" y1="205.63636363636365" x2="34.578125" y2="205.63636363636365" style="visibility: inherit;" fill="rgb(0, 0, 0)" stroke="rgb(204, 204, 204)" stroke-width="1px"></line><line x1="39.578125" y1="171.36363636363637" x2="34.578125" y2="171.36363636363637" style="visibility: inherit;" fill="rgb(0, 0, 0)" stroke="rgb(204, 204, 204)" stroke-width="1px"></line><line x1="39.578125" y1="137.0909090909091" x2="34.578125" y2="137.0909090909091" style="visibility: inherit;" fill="rgb(0, 0, 0)" stroke="rgb(204, 204, 204)" stroke-width="1px"></line><line x1="39.578125" y1="102.81818181818181" x2="34.578125" y2="102.81818181818181" style="visibility: inherit;" fill="rgb(0, 0, 0)" stroke="rgb(204, 204, 204)" stroke-width="1px"></line><line x1="39.578125" y1="68.5454545454545" x2="34.578125" y2="68.5454545454545" style="visibility: inherit;" fill="rgb(0, 0, 0)" stroke="rgb(204, 204, 204)" stroke-width="1px"></line><line x1="39.578125" y1="34.27272727272731" x2="34.578125" y2="34.27272727272731" style="visibility: inherit;" fill="rgb(0, 0, 0)" stroke="rgb(204, 204, 204)" stroke-width="1px"></line><line x1="39.578125" y1="0" x2="34.578125" y2="0" style="visibility: inherit;" fill="rgb(0, 0, 0)" stroke="rgb(204, 204, 204)" stroke-width="1px"></line></g><g transform="translate(29.578125, 0)"><text x="0" y="377" dx="0em" dy="0.3em" style="text-anchor: end; visibility: hidden; font-family: &quot;Helvetica Neue&quot;, sans-serif; font-size: 12px; font-weight: 200;" fill="rgb(50, 49, 63)" stroke="none" stroke-width="1px">-10</text><text x="0" y="342.72727272727275" dx="0em" dy="0.3em" style="text-anchor: end; visibility: inherit; font-family: &quot;Helvetica Neue&quot;, sans-serif; font-size: 12px; font-weight: 200;" fill="rgb(50, 49, 63)" stroke="none" stroke-width="1px">0</text><text x="0" y="308.45454545454544" dx="0em" dy="0.3em" style="text-anchor: end; visibility: inherit; font-family: &quot;Helvetica Neue&quot;, sans-serif; font-size: 12px; font-weight: 200;" fill="rgb(50, 49, 63)" stroke="none" stroke-width="1px">10</text><text x="0" y="274.1818181818182" dx="0em" dy="0.3em" style="text-anchor: end; visibility: inherit; font-family: &quot;Helvetica Neue&quot;, sans-serif; font-size: 12px; font-weight: 200;" fill="rgb(50, 49, 63)" stroke="none" stroke-width="1px">20</text><text x="0" y="239.9090909090909" dx="0em" dy="0.3em" style="text-anchor: end; visibility: inherit; font-family: &quot;Helvetica Neue&quot;, sans-serif; font-size: 12px; font-weight: 200;" fill="rgb(50, 49, 63)" stroke="none" stroke-width="1px">30</text><text x="0" y="205.63636363636365" dx="0em" dy="0.3em" style="text-anchor: end; visibility: inherit; font-family: &quot;Helvetica Neue&quot;, sans-serif; font-size: 12px; font-weight: 200;" fill="rgb(50, 49, 63)" stroke="none" stroke-width="1px">40</text><text x="0" y="171.36363636363637" dx="0em" dy="0.3em" style="text-anchor: end; visibility: inherit; font-family: &quot;Helvetica Neue&quot;, sans-serif; font-size: 12px; font-weight: 200;" fill="rgb(50, 49, 63)" stroke="none" stroke-width="1px">50</text><text x="0" y="137.0909090909091" dx="0em" dy="0.3em" style="text-anchor: end; visibility: inherit; font-family: &quot;Helvetica Neue&quot;, sans-serif; font-size: 12px; font-weight: 200;" fill="rgb(50, 49, 63)" stroke="none" stroke-width="1px">60</text><text x="0" y="102.81818181818181" dx="0em" dy="0.3em" style="text-anchor: end; visibility: inherit; font-family: &quot;Helvetica Neue&quot;, sans-serif; font-size: 12px; font-weight: 200;" fill="rgb(50, 49, 63)" stroke="none" stroke-width="1px">70</text><text x="0" y="68.5454545454545" dx="0em" dy="0.3em" style="text-anchor: end; visibility: inherit; font-family: &quot;Helvetica Neue&quot;, sans-serif; font-size: 12px; font-weight: 200;" fill="rgb(50, 49, 63)" stroke="none" stroke-width="1px">80</text><text x="0" y="34.27272727272731" dx="0em" dy="0.3em" style="text-anchor: end; visibility: inherit; font-family: &quot;Helvetica Neue&quot;, sans-serif; font-size: 12px; font-weight: 200;" fill="rgb(50, 49, 63)" stroke="none" stroke-width="1px">90</text><text x="0" y="0" dx="0em" dy="0.3em" style="text-anchor: end; visibility: hidden; font-family: &quot;Helvetica Neue&quot;, sans-serif; font-size: 12px; font-weight: 200;" fill="rgb(50, 49, 63)" stroke="none" stroke-width="1px">100</text></g><line x1="39.578125" y1="0" x2="39.578125" y2="377" fill="rgb(0, 0, 0)" stroke="rgb(204, 204, 204)" stroke-width="1px"></line></g></g><g transform="translate(39, 0)" clip-path="url(#clip_0)"><clipPath id="clip_0"><rect width="978" height="377"></rect></clipPath><g><g><g><line x1="0" y1="0" x2="0" y2="377" fill="rgb(0, 0, 0)" stroke="rgb(60, 60, 60)" stroke-width="1px" opacity="0.25"></line><line x1="81.53515625" y1="0" x2="81.53515625" y2="377" fill="rgb(0, 0, 0)" stroke="rgb(60, 60, 60)" stroke-width="1px" opacity="0.25"></line><line x1="163.0703125" y1="0" x2="163.0703125" y2="377" fill="rgb(0, 0, 0)" stroke="rgb(60, 60, 60)" stroke-width="1px" opacity="0.25"></line><line x1="244.60546875" y1="0" x2="244.60546875" y2="377" fill="rgb(0, 0, 0)" stroke="rgb(60, 60, 60)" stroke-width="1px" opacity="0.25"></line><line x1="326.140625" y1="0" x2="326.140625" y2="377" fill="rgb(0, 0, 0)" stroke="rgb(60, 60, 60)" stroke-width="1px" opacity="0.25"></line><line x1="407.67578125" y1="0" x2="407.67578125" y2="377" fill="rgb(0, 0, 0)" stroke="rgb(60, 60, 60)" stroke-width="1px" opacity="0.25"></line><line x1="489.2109375" y1="0" x2="489.2109375" y2="377" fill="rgb(0, 0, 0)" stroke="rgb(60, 60, 60)" stroke-width="1px" opacity="0.25"></line><line x1="570.74609375" y1="0" x2="570.74609375" y2="377" fill="rgb(0, 0, 0)" stroke="rgb(60, 60, 60)" stroke-width="1px" opacity="0.25"></line><line x1="652.28125" y1="0" x2="652.28125" y2="377" fill="rgb(0, 0, 0)" stroke="rgb(60, 60, 60)" stroke-width="1px" opacity="0.25"></line><line x1="733.81640625" y1="0" x2="733.81640625" y2="377" fill="rgb(0, 0, 0)" stroke="rgb(60, 60, 60)" stroke-width="1px" opacity="0.25"></line><line x1="815.3515625" y1="0" x2="815.3515625" y2="377" fill="rgb(0, 0, 0)" stroke="rgb(60, 60, 60)" stroke-width="1px" opacity="0.25"></line><line x1="896.88671875" y1="0" x2="896.88671875" y2="377" fill="rgb(0, 0, 0)" stroke="rgb(60, 60, 60)" stroke-width="1px" opacity="0.25"></line><line x1="978.421875" y1="0" x2="978.421875" y2="377" fill="rgb(0, 0, 0)" stroke="rgb(60, 60, 60)" stroke-width="1px" opacity="0.25"></line></g><g><line x1="0" y1="377" x2="978.421875" y2="377" fill="rgb(0, 0, 0)" stroke="rgb(60, 60, 60)" stroke-width="1px" opacity="0.25"></line><line x1="0" y1="342.72727272727275" x2="978.421875" y2="342.72727272727275" fill="rgb(0, 0, 0)" stroke="rgb(60, 60, 60)" stroke-width="1px" opacity="0.25"></line><line x1="0" y1="308.45454545454544" x2="978.421875" y2="308.45454545454544" fill="rgb(0, 0, 0)" stroke="rgb(60, 60, 60)" stroke-width="1px" opacity="0.25"></line><line x1="0" y1="274.1818181818182" x2="978.421875" y2="274.1818181818182" fill="rgb(0, 0, 0)" stroke="rgb(60, 60, 60)" stroke-width="1px" opacity="0.25"></line><line x1="0" y1="239.9090909090909" x2="978.421875" y2="239.9090909090909" fill="rgb(0, 0, 0)" stroke="rgb(60, 60, 60)" stroke-width="1px" opacity="0.25"></line><line x1="0" y1="205.63636363636365" x2="978.421875" y2="205.63636363636365" fill="rgb(0, 0, 0)" stroke="rgb(60, 60, 60)" stroke-width="1px" opacity="0.25"></line><line x1="0" y1="171.36363636363637" x2="978.421875" y2="171.36363636363637" fill="rgb(0, 0, 0)" stroke="rgb(60, 60, 60)" stroke-width="1px" opacity="0.25"></line><line x1="0" y1="137.0909090909091" x2="978.421875" y2="137.0909090909091" fill="rgb(0, 0, 0)" stroke="rgb(60, 60, 60)" stroke-width="1px" opacity="0.25"></line><line x1="0" y1="102.81818181818181" x2="978.421875" y2="102.81818181818181" fill="rgb(0, 0, 0)" stroke="rgb(60, 60, 60)" stroke-width="1px" opacity="0.25"></line><line x1="0" y1="68.5454545454545" x2="978.421875" y2="68.5454545454545" fill="rgb(0, 0, 0)" stroke="rgb(60, 60, 60)" stroke-width="1px" opacity="0.25"></line><line x1="0" y1="34.27272727272731" x2="978.421875" y2="34.27272727272731" fill="rgb(0, 0, 0)" stroke="rgb(60, 60, 60)" stroke-width="1px" opacity="0.25"></line><line x1="0" y1="0" x2="978.421875" y2="0" fill="rgb(0, 0, 0)" stroke="rgb(60, 60, 60)" stroke-width="1px" opacity="0.25"></line></g></g></g><g><g><line x1="0" y1="342.72727272727275" x2="978.421875" y2="342.72727272727275" fill="rgb(0, 0, 0)" stroke="rgb(153, 153, 153)" stroke-width="1.5px"></line></g></g><g><g><line x1="81.53515625" y1="0" x2="81.53515625" y2="377" fill="rgb(0, 0, 0)" stroke="rgb(153, 153, 153)" stroke-width="1.5px"></line></g></g><g><g><g><g><g><path stroke="rgb(255, 112, 67)" stroke-width="2px" d="M83.28066087500001,337.5863636363636L87.0625875625,338.31916867372667L88.8080921875,338.60975978732773L93.4627711875,337.5055941834847L94.04460606250001,337.2122134321443L94.91735837499999,336.8377627856301L97.244697875,336.4406314445596L98.1174501875,336.0138940124572L102.48121175,334.456581791221L103.3539640625,333.59206719238534L109.168072984375,332.1613799954651L111.49541248437501,331.18987693523786L112.659082234375,330.56714929077515L118.41546426562499,327.62842295132646L122.0318745859375,324.8379962210572L125.15222501562499,322.21838582759005L126.42107511718751,319.45419997586487L127.2488200234375,317.2201475361124L129.8670769609375,316.3734181683142L133.02248750781249,315.07025733015377L134.46712740625,314.02791345502004L135.04896228125,313.59445203388435L135.33987971875,313.2384135493564L136.49963578125,312.57239021910266L138.8118097421875,311.5284487700678L141.398594109375,310.5867767989255L146.03598765625,310.1177379604991L147.77268648437501,309.75406110085794L149.227273671875,308.89152725179946L153.4630250390625,307.33211569255826L155.12079783593748,307.0956330205305L156.5753850234375,307.0908348803513L158.4952118125,306.45733773226067L159.45227147656252,304.3087667371213L160.0137225625,303.0470416818765L165.183377609375,299.68527988597805L166.5872499296875,297.05131399738394L168.3285147265625,295.6217340045556L169.7332023984375,294.1607852787676L170.3150372734375,293.61323522126054L172.46821767968748,292.29765027490623L175.64401201562498,290.46640939180134L177.939389734375,288.2298104213113L180.05017185937498,286.17497768448203L184.15693460937499,283.3655331108633L185.150358953125,281.2137570667566L187.8340070859375,281.3484355352805L199.21125971875,280.05833352545176L199.50217715625,279.7915098337289L204.038467109375,280.1249411133637L204.5764360703125,280.4209657139403L204.8474589296875,280.8316351243326L205.55795628125,280.3651634157409L209.16539773437498,279.15306179039897L209.98743517968748,278.9056195199734L210.197958953125,278.89424558976947L212.8467100390625,278.5721101534888L217.42539827343748,278.7901031878741L217.9723361015625,279.20878866249143L222.53422809375002,275.75854697068803L223.22401551562498,273.01665420003525L225.218691578125,270.7271922062449L226.3577377109375,267.1874787509264L226.7716101640625,264.0354688595535L227.49319629687503,261.21204432454334L228.735792078125,257.9003164578963L229.94446923437502,256.43422665674234L231.6927460546875,251.82569837530428L232.6917147890625,245.82523772996106L234.4838575234375,238.83881682953825L235.9501857734375,233.2897619882592L236.3457943515625,229.38454977551942L237.4682073125,225.56083811948423L237.6495415,223.1295223086135L240.5125669765625,220.12160408507486L244.5363269375,216.13710748722212L244.948242546875,213.44480785503745L247.39397109375003,211.02059150290617L249.030870890625,210.07330182057805L249.321788328125,210.0395817198992L249.70989567187502,210.17015049622842L250.23481900781252,208.30179813354138L250.711147390625,208.08558650674502L253.122631171875,209.84771554041066L254.08833356249997,209.52037707981725L254.63396682812498,209.31026198397433L255.10393546875002,208.03262908092083L256.4262726328125,203.72910660393688L256.933584375,198.92611662515952L262.113023640625,195.75643298390696L262.9875697265625,192.84015300046048L263.7569354609375,190.96700298302662L264.0478528984375,190.33663585242695L265.1296613515625,188.06656479392686L266.6462152578125,186.37550167598323L267.13721996875,183.4827198149605L267.8398899453125,181.67850628972207L268.4385210625,179.03314264767909L269.20429925,176.66450146940025L270.803366734375,176.27149858061475L271.5428906015625,176.85824543965083L271.671553078125,176.64822103698384L271.79988941406253,176.59075080400848L271.967688765625,175.85710732888504L273.46304353125004,177.22652082544275L274.2632295546875,178.29493297810922L274.484189828125,179.4295031495697L275.348788625,180.60377336190982L275.93062349999997,182.00750205425524L276.4261941796875,181.50624898812399L276.876105171875,179.57411198331738L277.84164449218747,178.46966739917454L277.92725640625,177.34089134859562L281.9819997265625,172.70169928225755L282.73049246093746,171.27538111387688L288.7844778125,169.1172307601674L289.7659980234375,168.9464855841189L290.1417120234375,169.32385456846671L291.071702015625,167.000384213248L292.7322470078125,166.97721109102585L293.721268453125,166.3601091003497L294.45475871875,167.01802972412585L295.35034087500003,167.17972483354333L295.51243276562496,167.1259462920605L296.4107871171875,166.50418783971165L296.71654395312504,165.44567822284773L298.95713004687497,165.0573365074613L299.107154734375,164.50901778526958L300.510211703125,162.90508590864397L300.7967262421875,160.57181769175955L301.79406427343747,157.32112635113972L302.3136062890625,154.49333056532245L302.8478246328125,152.75552749457793L303.95996416406246,148.60088138821513L304.116022453125,146.30002016038824L304.805809875,143.46633790467132L304.9520839453125,142.1225678434553L305.8220640625,141.17921175987294L307.3590017578125,137.65203468254396L308.229960296875,135.30267640090156L308.4929927109375,133.4954965404477L309.595184953125,131.87653491545734L310.02079846875,131.20675961393619L311.44293466406253,131.80565744183474L312.7673917421875,129.43688474663935L313.605410078125,127.89223910215617L315.9012770078125,131.42090626092084L316.68091617187497,132.7841076021003L317.2824825546875,135.26082715170318L317.65656585156245,137.98067915512436L318.171378828125,138.50215211088357L318.8494251875,139.03438112970045L319.2773216875,140.21739273255213L320.12088441406246,141.4618534029812L320.378698578125,142.55125707796594L321.994399234375,144.90482885670943L323.14583871093754,147.6193313766366L323.94211104687497,150.82458043497965L324.11072575,153.24125797944927L325.4095807890625,155.08882939759943L326.3028799609375,156.48526190247566L328.50905821875,158.73515609556478L332.365671109375,161.05843681085895L332.7591597734375,162.17822760553614L332.82243105468746,162.7541388643471L332.9639760859375,163.05855479077624L335.7958551328125,161.78804405721613L337.69056909375,160.76526154286125L337.8485842265625,160.17901084361893L338.5285874296875,157.4144627250989L339.7682479453125,155.90653469072342L344.14163065625,156.5509013775111L344.6081748203125,156.8963957903295L346.1188581953125,155.9521285924727L347.62187726562496,154.52189408219704L348.09380275,154.87015484032057L348.6334024140625,156.51856479472855L351.49936315624996,155.53350355912139L352.26677204687496,153.0231919986431L352.99993617187505,150.22835239955873L353.87187313281254,149.55221164891933L354.9592259765625,145.88376209788322L355.5508450703125,141.99647481299573L355.887585265625,138.23835573241303L357.43039349218753,134.338397558655L357.7040254765625,130.92911000736095L358.1932364140625,128.8424118773303L358.29222009375,127.19282810784352L360.62477784375,126.02485820004435L364.0487651953125,121.26619183098188L364.362023265625,118.3287303518295L364.7434447265625,116.45658868606222L364.88857730468754,115.55264370236L366.502810328125,110.67820942365324L367.7458953203125,107.01325669223348L367.89901834375,103.05951263128475L368.1943386796875,100.37196296096192L368.51868553124996,97.85462813834914L368.9568554609375,95.01445421233296L371.700839609375,92.32329363779581L371.8360248984375,90.73601087284084L373.0910140234375,91.66179043372762L374.2100025078125,91.73744208028273L374.72644618749996,92.12556034094308L375.0264955625,92.46809607561522L376.281810828125,93.86631219082369L376.88011580468753,95.77454927738484L378.5013608515625,97.83799811002115L379.0646057109375,100.89937901072147L381.97867219531247,105.8755906244283L382.13603504687495,109.24517046463387L384.0545572734375,111.07499193276647L384.1949608125,112.35109923015L385.2229560625,112.77403633585277L386.090490125,113.13747383675673L386.55980648437503,112.36848011837145L387.88328514062505,111.96192150608141L388.82795146093747,112.2800640863992L388.981074484375,112.66287607058064L390.6116145390625,114.88037725922516L392.224216859375,117.89710075628079L392.78566794531247,118.11687528864064L393.33978086718747,118.26245202754342L393.6347750625,118.29496045214393L394.1407822421875,117.94432465440963L394.61776290625,118.40568570173673L395.2777084609375,118.88814078561057L396.659077078125,121.23397747229856L397.81899621093754,123.18983998291304L398.7439310234375,124.8705923886292L399.8665070546875,125.8516302522915L401.347022421875,129.8538136782748L402.1573188046875,133.95505330761736L402.2704896015625,136.0593577930088L402.364581171875,136.65019795827598L402.6954508359375,137.23775409268134L403.155798328125,137.3572357380795L404.159006890625,138.30630570676377L405.19939548437503,138.0943299245243L406.5305384453125,136.59623536427156L406.99023365625,135.87559827422703L407.319961828125,136.2246337836502L407.57516686718753,135.597799707113L408.48787140625,137.33290051629555L409.17668040625,139.78599569196837L409.25625871874996,140.9425443340154L409.400412875,142.00661960134138L412.246642109375,142.878116796982L413.3191555546875,141.94784959534567L413.85092784375,140.25183744830292L415.18712598437503,140.07048554226827L415.2665412265625,139.60523510643344L416.5663746875,137.26972120856885L417.489678796875,135.58052321586402L419.4577743984375,137.4047858200546L420.7026531640625,137.92356407459667L421.43467579687496,139.3863948728697L422.87980490625,141.48420160600608L423.5684508359375,141.9751746723217L424.3038979453125,141.15932549542072L424.9860210625,141.20446969799818L426.8566006171875,141.36864503679433L427.30520704687495,141.79617072291552L428.09544578125,142.88893628717616L428.23307712499997,143.92845372731722L428.52399456250004,145.85452887368618L433.51720753125005,146.51664585204372L434.063493078125,144.93980360120318L436.2540165859375,142.7187523777851L436.5053079375,141.37241485385061L436.81383696874997,140.5234867402356L437.958916703125,140.4391083433024L438.3833887265625,140.79975821609773L438.729913140625,141.66047185637206L439.12030346875,141.43660787634101L440.4899310234375,137.36778186170216L442.1000872890625,132.4862697445737L442.44954696875004,129.50252485555546L444.66599865625,126.10831156638721L445.153578890625,123.09843939344563L445.8781002890625,120.34659592921372L446.363560609375,119.54544679314614L447.4354217734375,119.1333069497336L448.067971515625,118.76263578671688L448.4011241640625,117.40238649244912L448.6904108984375,116.0927088064247L451.1938663359375,112.729586410009L452.68644890625,112.32938611780048L452.8875146015625,112.82955810667107L453.31100820312497,113.25304855696254L453.39743546875,113.45230520839624L453.6681321875,113.8049112345015L453.903279578125,113.74229721566542L454.440759328125,113.75955596389849L454.77081364062497,113.29009512286149L455.40173267968754,113.17293147446259L455.7233073359375,113.02038208691482L456.9512267890625,109.48786770762649L459.9615047578125,104.77734173497186L460.5901408125,102.73244391482899L461.0677737578125,102.2732109667063L461.25171707031245,102.50491132678337L461.61927755468747,101.87621533966023L462.5190995390625,99.60714696724608L463.3187963515625,96.8747968528885L464.00140867968753,96.77080873140642L464.72478858593746,93.98029923697948L464.9263434921875,92.16890472307375L465.25917,91.82236017892592L465.3274964609375,90.80560210921988L465.89351351562505,90.99066659112674L466.54514248437505,92.93872890087636L467.674893609375,96.24618112159823L468.220200734375,99.40963510894971L469.900477234375,102.59636539376118L470.6931620234375,106.44137994404258L471.3177213203125,108.57017425770749L471.4243693046875,110.06679086166463L471.5941255,110.75913282776753L472.2361333203125,111.7640293348885L472.4853047578125,112.2298679627051L472.7106679296875,112.52308315888195L472.79367071875004,112.69901227658806L473.68550225781246,113.53114989192056L473.88363268750004,113.87963162438348L474.476230203125,115.2951273577533L477.00838601562504,115.59605906957034L478.28457428125,116.99672635083311L479.21749953906254,117.11054657488194L479.9721889453125,116.7949858373297L480.6228394921875,116.86611500981081L480.713017375,116.5112276218311L482.1208033828125,117.03858735323894L482.31925995312497,117.72515450378467L483.917022875,116.10814473751583L484.85304646875,112.82110962637847L485.6868249765625,109.50539304855431L487.36269857812505,106.24101722894619L489.776791484375,105.22832235685456L489.940514078125,104.45619257737621L490.29535507812506,104.56869401766153L491.7031410859375,105.0748853725554L492.0971189609375,104.48751764376578L494.2786736015625,104.28588738402226L495.7828341640625,107.16720348421308L496.45973903124997,108.580689910574L497.2237234453125,111.10128207156635L497.26074040625,111.69513078746218L497.547418015625,112.69576896319995L497.80490603906253,114.18724486957484L498.33765675,115.27405684939049L501.41772881250006,117.35189074693011L501.563513671875,118.90019275892689L502.64907274218746,118.7872801284563L502.96167853125,118.76065814942814L503.54008892968756,118.53904650653368L504.94135212500004,116.91179363212512L505.6818544140625,116.40154597797004L506.1689454375,115.43736687899616L506.43980522656244,114.74918418212951L506.59113447656256,113.58227038032709L506.75453092968746,111.77168908255527L508.7068087109375,113.63279694118796L509.14693548437504,114.07771913039994L509.63663563281256,115.13979176765758L509.99180277343754,115.91413462646813L511.23521390625,115.9948770105666L512.3286003515625,114.42564929538469L512.4642748515624,113.41557348725394L513.5124908203125,111.13701723799335L513.5496708515625,109.6327946711873L513.6559926953125,108.81251232961222L514.4762363671874,107.0591090712403L515.2429929765625,107.29572500861781L516.8847848828125,106.34096311463446L517.4309073593749,105.91890681498091L517.5246727890625,105.37778338120268L518.410633796875,103.76445142853515L518.9763247109375,101.71343282001175L519.54658159375,100.20864402039837L520.2670262343751,97.77034879349787L522.1718505546876,92.35915724085373L522.387592578125,89.56484481947666L523.009868890625,88.51887429336392L523.4822835859376,88.34368402869944L525.4078178359375,90.45944636248777L526.1240226484375,92.22243187222455L528.0564058515625,94.93902192296184L529.1664254687499,96.11657344319474L529.4447864921875,96.94649161230353L530.247581640625,98.2532738569862L531.29612375,100.12036264071867L531.4006518203124,101.21320233119081L531.6380821953126,101.8414821065004L532.9423185546875,106.64649093737319L535.2742240234375,109.78997231011567L535.31482853125,111.51154827753783L535.4023972890625,112.16064098600958L536.1978542734374,110.76791060922824L537.2672693828125,107.67027029131822L537.6636933125,106.73020314047807L539.0908846875001,104.6992905410695L539.1817148515626,103.64524537844142L539.4843733515625,102.58783980962875L539.660652359375,102.14532290433198L539.7774107031249,101.78384954315851L543.344084578125,102.89674901810923L544.47024815625,100.05495431809209L544.57852684375,97.95232306581971L545.7668202109375,97.74633971240553L546.4394852500001,97.4582368441337L546.9164659140625,98.25871932261123L547.6727860234375,99.86315384587493L548.222496046875,100.60647454407501L549.8673862890626,100.2573371800583L550.0868789296875,99.92447796388547L550.1853733984375,99.43687278019564L550.3699689921875,99.78862815697573L551.5905502812501,100.58917271050291L553.227450078125,97.0664474073742L554.719869578125,95.51488997318876L555.478472671875,93.78882572974061L555.54011325,92.21853347495374L555.7946660078126,90.33042750240833L557.6399696640625,88.12825650144498L557.926484203125,86.62873948436305L558.4406448984375,84.59117221844991L558.6682910546875,83.49200865666472L558.8336443515625,82.8736465780542L559.219957921875,83.64047592734568L559.404553515625,84.12799757589426L559.7938023515625,83.81730721807736L559.857236703125,83.54864180487874L561.0421055937501,81.87944464880081L561.407056953125,80.82308873641301L562.0007959609375,79.27075814907437L562.3337855390624,78.69579908888534L563.3100875,78.91290140046362L564.3767304140625,77.63111763804096L564.788482953125,77.25961227205579L564.927418859375,76.04966329274339L566.3066675625,73.74714635876927L568.001620390625,75.20341759819837L570.2987918828125,75.5014010338835L571.690270859375,75.70760467506199L571.76560934375,75.76277722154111L572.405171109375,75.27493906019737L573.0347855859376,75.07819938138653L573.656898828125,76.45445192197826L574.3204319296875,78.99383980996959L574.40995753125,79.64008110211284L576.2293330078126,82.35837760746796L577.419257078125,84.34579480289523L578.1626946328125,84.79795295595585L578.200037734375,84.47975652033313L578.8464484531249,83.5485464947638L579.1202435078125,82.42774273173046L581.3755059296875,80.72707865572869L581.6383752734375,80.35100915632779L582.261140796875,80.34471793165176L582.4233957578125,79.76515342966758L582.5326528671875,79.84240365891912L582.844280234375,79.91616737623747L582.9139112578124,79.82333678937886L584.747636921875,77.53306038439615L585.2787569296875,75.52827761469302L586.24364396875,74.75038642410703L586.4109541093751,74.09172527376461L586.6201733203125,73.80620382104144L588.4204695703125,73.38812689467562L588.9895849609375,72.10909892067434L590.2920275468749,71.23200689879133L590.380737796875,70.32189881367998L590.7419385390625,69.78953552289363L591.180434609375,69.3878663499134L591.7608018515624,68.9549384101345L592.6211608203124,68.61293044775857L594.296056,67.74968470464592L594.5789829921874,67.10836046101554L594.736019703125,67.05258116807772L594.987474125,66.81347513683744L595.3825934921875,65.94343137338444L596.807012671875,66.38103729526648L597.3032356328125,66.01298392168223L599.095867578125,66.40906726396457L599.416789953125,67.00314610234182L599.8507200546876,67.45555662336352L600.524037375,67.98747901019527L600.8359908828126,68.73161091353018L601.0300445546875,69.68533018448181L601.4960995078125,69.9148344743254L601.6464503359375,70.57347873746278L602.284218328125,72.12023437049618L603.0994068203124,73.65149109726218L603.7286951562501,74.32348107858991L604.0913635312501,75.02826628165326L605.9603123828125,78.71390773374696L606.2831916015624,81.83008716621583L607.5205691328125,84.15219733590669L607.8082251640625,85.80593951193998L607.9093287578125,86.27723266912244L608.397398203125,87.36885036585556L610.1425766875,89.03829078259042L610.2503661640626,89.4367516856853L610.8799806406249,90.1008171579843L611.136979453125,89.85492749516345L611.39299984375,90.11867060842621L612.48491865625,88.5358560737738L614.1984615,85.94108062757397L615.5847222265625,83.49312235892188L616.3113635390624,80.94132796080771L616.4284480234376,79.5610521586757L618.7192597734374,80.37797340280486L618.9831075390625,80.60766053426994L619.3684426875001,81.7051049931028L619.773183203125,83.54255432332081L620.1829788984376,85.0288767934332L622.371871703125,88.31976118459153L623.3481736640625,90.69185671075496L623.3905719453124,92.11511402645294L624.1439567890625,93.95612463479932L624.7301945625,94.51236527160228L626.874569171875,93.0776356713065L627.427051390625,92.60065078311061L627.5651719453125,91.73868054222078L629.700903828125,88.8224074885959L629.9671976484375,85.92108504047638L630.3621539453125,84.08432835360935L630.4239575937501,82.88631112349373L630.4823367656251,81.67397267596056L631.2164793125,80.54900471597227L631.5830613749999,80.02482477671583L631.7273786015626,78.83293583171667L632.4005328515625,77.00735898882056L632.9331204921875,74.82899344615987L634.0400417734376,73.6316493580457L634.6698193203125,73.79062388662254L635.0054180234374,73.98197182176403L636.122612734375,73.54841485464397L636.2838892734375,73.15119185712234L636.4668541640625,72.19998993338737L637.8686065703125,73.6856324155101L638.268618046875,74.24800265154323L638.7348360703126,74.33866073843132L638.9083428828125,74.09145391709109L639.9580264843751,74.39552187529017L640.35167821875,75.33196683389212L640.4902879843751,75.27692890182675L641.4874629453125,74.1060490869234L643.2975434140625,75.81632412655927L643.9216134999999,77.63760847407121L644.530518046875,77.16754355567855L646.4281672734375,75.5694331324749L646.5884653906251,74.1993004268038L646.6349404296875,73.02078151118707L647.0943095,71.7378908538447L647.9509178515624,70.22786429524365L648.6958230390625,69.3629739593373L649.314674875,67.377167448889L649.6152134609375,66.35019639884331L650.6073332421875,66.03560498308264L651.0896952265625,64.98318117166775L651.5818414296874,64.36543890430568L652.9920734921875,63.06257494370203L653.3288136875,63.08968791055713L654.3246840859375,63.39384534465637L654.6798512265625,63.61747586357643L655.1220979140625,64.20404622593173L655.4857447109375,65.15919179029095L655.5917404140624,66.0201687828926L656.6689828984374,67.16737190516699L656.7746524609374,67.88311781750537L657.713774390625,68.81979503465271L657.918590703125,69.395513384428L658.056874328125,70.05625808725301L658.4699314296876,68.94469654158303L658.6566469375,68.20922043515924L658.7965612656251,68.26146288076887L658.8414056015625,67.93636905592047L660.7167141953125,66.15105319513788L662.1305338046875,65.39517737162822L662.553048984375,64.28361091183524L662.647629765625,63.822309491437125L662.7808582109375,63.3124766039532L663.5423965703126,62.80093841598517L668.776464390625,65.49630975924134L670.3264477109375,69.58116265330762L671.302097390625,71.42888150200764L671.3536276093749,71.57787017206749L671.4999016796875,72.00999064683072L671.682377359375,72.74908948087187L671.9543786406249,73.37076319780044L672.0986958671875,74.18245791868026L672.255732578125,74.45012427624368L674.0594533046875,73.5688407123194L674.49990621875,72.49170484575984L674.6833603203125,71.53010963286431L675.458107375,70.80235166839043L676.310312828125,69.55686554648884L677.05163046875,68.32975778337095L677.2778089921875,67.52494348727214L677.3482553671876,67.1928557463495L678.1808923828124,66.65087582906858L678.54404996875,64.54351233604206L679.8412743046875,63.07345578474843L680.219434359375,61.30032885304013L680.428816640625,59.098595638351014L680.9661333203125,57.00984996557452L681.0912082499999,55.38645125020764L681.7286501015625,54.63176249595193L682.066042578125,54.16523722391173L682.5146490078125,53.26841715346103L682.8544875390625,52.6480634534758L683.27243675,51.8097471629946L683.9232503671875,51.34788298796008L684.4604039765625,50.45385957571284L684.7810002109375,49.93114708864505L685.98266534375,50.96101510754602L687.6272294453125,54.27962850145053L688.26304059375,57.079627881010595L688.7282801953124,59.4725060931749L689.3163117421875,62.71783260210526L689.4441588671875,64.82953090448046L691.4332905390625,68.53677685345713L691.539123171875,71.06271563710976L691.667622578125,72.35893889154323L692.05409921875,72.82135915124337L692.29544328125,73.4278370195102L695.019043640625,76.80771955678779L695.4095970390625,77.19056235374597L695.752207765625,77.33800637420603L696.0145878984374,77.3990592067147L696.78835653125,77.2986020889702L696.9175082187501,75.42872823669182L698.1863583203125,72.75766995870538L698.2419652968749,70.7300565206778L699.9413210234376,68.77319629366553L699.98062096875,67.5168289589497L700.1466265468749,66.21464282991536L700.6366528359375,65.80347200498932L700.8219007109375,65.255178295767L701.4099322578126,63.80205703405642L701.5082636562499,61.68265198388377L701.673616953125,60.34245931555222L702.8201643203125,59.46980453553164L703.0109565859375,59.4534413372636L704.383845546875,62.41850409457231L704.6742737734374,64.85557225543829L705.5926857734376,66.37265077069912L705.786902515625,66.94017060712827L705.9504620390625,67.17100727150353L706.220017265625,68.02238785455694L707.1676188515625,69.49284838434284L708.35330309375,68.40102272356557L709.7407053125,69.84341656271715L710.270031546875,71.32575777343459L710.8727394218749,72.44821453511008L711.521759265625,72.80638535836192L712.0532054140625,73.85754323450402L712.5678553203124,72.8157271958072L712.614330359375,71.50518302713454L712.6899949843751,70.45838045171217L713.423811390625,67.92473610683163L715.1495845078125,65.85618377169845L715.6537979140625,65.42389417304213L715.9988546953125,64.57502908638918L716.424305140625,64.20279885164706L717.137900828125,63.37625736385576L717.7561003828125,65.00524574577264L718.2815129296876,65.13267137324488L718.5507420156249,65.07203793247845L718.645322796875,64.43245452107266L719.120835828125,63.59631242322598L719.3949570234374,63.19059038251339L719.5854231484375,63.27617241132623L719.7727909375,63.779924138823446L719.96782303125,63.369296590893555L720.66641625,62.80761682838204L720.9806527421875,62.55286016938362L721.0561542968751,62.27662937622182L721.202265296875,62.42619413407823L721.403820203125,62.59818418730066L721.7478985624999,63.34570716543436L721.78834,63.64342011557807L722.203517015625,63.60270786990611L722.8559613359375,64.4693735234352L723.054091765625,65.01678649532005L723.3906688906251,66.11294002241397L725.137478078125,67.3464219058489L725.3118002421876,67.71635972420893L726.3898580781249,67.32141750799838L727.7358404375,69.01742855766656L729.1331899453124,69.17136622550902L729.2607109296874,69.45565526220525L730.5264626953125,69.32462701075002L730.6660508828126,69.13633482239459L730.8066174921875,68.88627069213169L730.8690734218751,68.64026899597854L732.41595840625,67.34110936234208L734.7503099296874,67.50753374262723L734.936699296875,67.0041954830586L736.0744408671875,65.05709534270272L736.55794434375,63.62836964347673L737.316221296875,62.68887256622628L737.404279265625,62.33081277535365L737.7560219296876,62.84255704553891L737.8828906328124,63.19072920690434L737.946977265625,63.34480534418867L739.0318840546876,63.533214244554756L739.62105709375,64.01640043726906L741.2447481953125,62.3596237540163L741.8306598281249,61.530060141081606L742.05667528125,60.442841105068L742.4982696874999,58.529265370826636L743.5192529140626,56.73679098408161L743.6816709453126,56.1548344614983L743.7599446953125,55.81937256743521L744.634816921875,57.63333346810674L746.114843078125,58.803961207018176L747.4498997265625,60.06841559805679L748.04070346875,61.5262443384151L748.3901631484375,61.701785476894884L748.49469121875,62.09499981396897L749.1288716640624,62.23496519821805L750.276397453125,63.264875048440786L750.627977046875,64.81502909955458L751.0041802578124,66.15639844117806L752.8948174609375,63.958925790115245L753.308852984375,62.83236863546824L754.2319940234376,61.1693885829589L754.4819808125,59.842574839006545L755.7720300546875,58.08685441268125L756.4813859140625,57.814839920336L758.37544759375,56.28072213401981L758.5947771640625,55.565889917707636L758.677779953125,55.13699058792042L758.8418286875,55.00302778781082L758.941953859375,54.07269316527345L759.0037575078126,53.24030429804549L759.25602728125,52.42556774395507L760.7303459765625,54.43177993858717L760.9984335703125,55.33390558189342L762.8121015859375,56.65659873132705L763.975608265625,58.766286093155315L765.152323640625,60.12806172824759L766.1723284453125,60.84916389130757L767.7210072031249,62.652734280052584L767.9223990390625,63.26877244280968L768.60321759375,62.500538284799745L768.6472465781251,61.83395933451624L768.8672284296875,60.87193421665438L770.1634743437501,60.78824725540096L770.3363288749999,60.10741815193552L771.635673125,56.79260011102099L771.75895428125,54.2964691575217L773.0989030390625,54.62210218654076L773.51880909375,54.72151878595679L774.6086079921876,52.176439381037824L774.671063921875,50.71794137631446L774.7915728828125,50.07589460872549L775.1294545703124,49.89630500364973L777.09200578125,49.54178718587241L777.879635390625,50.34354629390094L778.3315032265625,50.87943937745911L778.642804453125,50.995336772116445L779.330308890625,52.833349191288335L779.8206613203125,55.142552877477215L780.155444671875,56.3361486531997L780.2916083828125,56.62732764739741L780.5277341953125,57.28185113389304L781.84713609375,54.64485738998604L782.4596281875,54.18680617981897L782.93514121875,53.473284962996104L783.588400890625,52.469392924930105L783.9893907890626,51.11305351840804L784.4052200859376,51.39598133090453L784.5024099921875,51.59315159816987L784.7633224921875,51.16308803032416L785.5988947734376,51.98806932653969L785.7818596640625,52.93546061447847L786.3095551953124,54.16192589372258L787.487085921875,53.540607989846876L787.8587231640626,53.332330103744766L788.5892781640625,53.68717946206044L789.8661187109375,55.84677747593122L790.0311458671874,57.25221152173589L791.25172715625,58.931727331409775L792.0297356171875,60.37812730793672L792.2288444687499,61.657244204808194L792.471166953125,62.71260399691721L793.28293096875,62.82486772374517L793.469157265625,62.39869785037814L796.010445015625,59.771329056240745L796.4678572421875,58.08523254227606L796.5973350703125,55.77121518121618L797.225971125,54.7255320373074L798.297995359375,53.49491880401621L799.3056068203125,53.44200540949595L799.84357578125,53.65702142751576L800.2951174765625,53.868282236836194L801.044099421875,54.61195408886124L801.338278265625,55.962951761289105L801.64909028125,56.37598547327735L801.9297342890626,56.34962806597105L802.3385515624999,56.69025291380137L803.339151,56.97687902100813L803.381223140625,56.655326575868344L804.6569221953125,57.284938471488715L804.8685874609375,56.85387426564358L805.4776550781249,56.60894776162337L806.3011601562499,55.84507649277839L807.274689921875,53.74166700606298L807.5497895390625,53.082814201773374L808.012093875,52.618963340178084L808.66763653125,50.69555563860615L809.3796015156249,50.99468176628693L809.7626536796874,51.96927676662585L809.9081123984375,52.86934745978908L810.080803859375,53.32713867717854L810.1894086875,53.313923753626L811.0256332499999,54.11482614271182L811.9515464843751,56.17191512255005L812.050693234375,57.43358209022034L812.8613157578125,57.88898059734953L813.204252625,57.51790121463307L813.2624687265625,57.240415966262105L815.0399351328125,59.431890127076144L815.42657484375,61.58303000575563L815.5394195,62.95596513147183L815.581491640625,63.35474773566574L815.8161498203125,63.14161478797263L816.498599078125,63.466137529566254L817.96133978125,63.53746391755334L819.4932222968749,61.97629862419143L819.95862496875,61.27265148341934L820.1345778359375,60.00049579727812L820.6482493203125,59.70331691528986L821.23579165625,60.155626512810215L821.32841559375,60.495561909550474L821.4437063046875,60.781774346103134L821.6253666328125,60.15837202509795L821.9391139140625,60.45607315846257L823.1027836640626,59.33233438580015L823.7681105390625,58.795179939452396L824.997497625,58.431761672389484L825.0400589765625,58.131459513643165L825.4266986875,58.211743833407866L825.747947203125,57.64300951804012L826.16312421875,56.19133591212915L826.9724421796875,56.41705274578601L827.087080609375,56.25088117250709L827.9401014140625,55.08187081110367L828.6214091796875,55.80621130391182L828.8953673046875,56.26823963857049L829.4078972968749,56.17530532766466L829.5235141484376,55.680854250398454L829.6564164531251,55.274508366556574L830.4096382265625,53.330776492101904L830.6359798203125,52.58951583866491L830.765294578125,52.336696341799836L831.5764063125,52.73335991267936L832.512756046875,52.13510267301598L832.9695159921874,52.39306369565088L833.3788224765625,52.34220185375415L833.5458064765626,52.21572153062067L834.86977434375,52.77045026345405L835.68643046875,53.50085239462254L835.751332453125,54.199569747542284L835.93299278125,55.12602982903849L836.27348359375,53.52957902357724L836.3284382890624,52.462033302818156L836.6366411796876,50.87558570989586L837.0945426171875,50.01968037213777L837.3505630078125,48.86180822328271L837.9098941796875,48.756576261428734L838.496784234375,48.61118588580791L839.547609328125,48.35943880421206L840.0177410390626,48.31806579273672L841.3607881328126,48.27952996636469L842.7794998515625,48.35237168853689L843.06242684375,47.87513503260902L843.27507053125,46.91704005387828L843.348452171875,46.50669592286317L843.8720709453124,46.91853040994124L845.016987609375,48.248650539111054L846.3218762500001,50.89744779749901L847.2397990390625,52.25366365808043L847.6420935,52.69725232193451L848.0378651484375,52.908567901505876L850.186316515625,54.049827047943666L851.7770674140625,53.81607595510678L852.51267759375,53.305684446909936L853.6005196484375,52.54704703178237L853.6760212031251,52.02331494447782L854.1722441640625,50.557517076150475L854.394509,49.390148701167846L855.27182728125,48.292162784709944L855.3127579296876,47.60594719586152L856.50790025,49.96346006334426L856.879374421875,50.32236192667847L857.4085375859376,49.578070864725134L857.56263903125,49.33713468303074L857.8243668828126,49.219986553781496L858.3624989140625,49.190823275486196L858.4311515156251,49.35155018421926L859.0046698046875,48.78994536377195L859.1191451640625,48.85054736297195L859.18421021875,48.66756854673383L859.5801449375,47.831190653075794L859.9980941484375,47.83660404583162L861.4717605625,49.512362845867244L862.3149971484374,51.43632470658821L863.72147859375,54.2083749686617L864.0262570078124,54.76117210921552L864.1351879765625,53.96870535737048L864.1971546953124,53.49322530626358L864.3507669296876,53.22164929508625L865.0372929453125,52.89419083215648L865.117034328125,52.99931742787169L865.8837909375,53.37769661905435L866.11991675,54.26276509945109L866.891891609375,56.12358967934392L867.1164394296875,56.63688108033364L869.090079421875,54.68285382908624L869.5660816640625,52.057277188920125L870.238746703125,50.660145621324375L870.36431084375,48.61547044608125L870.64870546875,47.21045092443143L871.1273168359376,46.353727191954704L871.24228140625,45.85340497195551L871.3482771093751,45.745138075946784L871.7544852578125,45.11810019064973L871.937287078125,44.57736460324816L872.3653466484375,44.89725219700756L872.5600526015625,44.801295099276956L872.6813769140625,45.182411331361266L873.161618984375,43.46439267173042L873.5295056093751,43.02307280341108L873.9027735546874,42.662317664424165L874.7862885078125,43.87161129068221L874.868639015625,44.72056426419982L875.7526431796875,45.983940231992904L876.194074515625,47.276619521386806L876.6917651093751,48.03851507553628L876.911583890625,48.6738772837362L877.9703994296874,50.94694538879645L878.8301061171875,51.885807780596735L880.1506495078125,54.340975995817246L881.77923271875,55.923752162431754L882.0729223515625,56.99679466016323L883.060965375,55.80360699740294L883.429830421875,55.14253201848794L883.7067238125,54.29348452092944L884.117661,53.41390471069326L884.5612122499999,53.95547470119402L884.8858852421876,54.43120707302461L885.4550006328125,53.96265277164679L885.926763046875,53.84603304704348L886.011559609375,53.433333939554245L886.0919532734375,53.267965673569165L887.2114309687499,52.20910207481802L887.6623203828125,51.10767984507726L887.8188678828126,50.39198888849165L888.1971910078125,49.40050702605487L888.8698560468749,48.80561790859281L889.05347321875,48.20192038338365L889.299709390625,47.209074482338394L889.4342423984375,46.805303836908365L890.1768646015624,47.64605042736696L890.604271890625,47.65698073138469L890.9501440234375,47.965130128062015L891.850781359375,46.820246733619854L892.0185807109375,45.54382536949544L892.5903052265625,44.94247494803784L892.7145648046875,44.23893742243598L892.96455159375,42.445905816165805L894.090062890625,40.849145163172466L894.19932,40.00076400885871L894.3172198359375,39.65623771328757L895.844047171875,39.778547648391566L896.08636965625,39.81079755099336L896.263464015625,40.131749166027475L897.6210243671875,41.462177190712L897.7746366015625,41.41046660384484L898.0913191484375,41.62620430645643L898.4725775390625,41.72823334825591L898.5782471015625,41.67977553585342L899.5419926484376,43.18612279554429L899.89569215625,44.158470330380624L900.667014734375,45.34508219822834L901.286029640625,44.37082653506803L901.6723432109375,43.087117031436776L902.331636484375,42.166090492521505L902.8457971796875,41.47638575192269L902.88314028125,40.84321243259893L903.2435256718751,41.135050966972415L903.604237203125,40.830337997619495L904.2989167343751,38.96129789134517L904.5422176406249,37.785036208839415L905.3000053828125,35.47530761397553" style="fill: none;" fill="none"></path></g></g></g></g><g opacity="0.2"><g><g><g><path stroke="rgb(255, 112, 67)" stroke-width="2px" d="M83.28066087500001,337.5863636363636L87.0625875625,338.75885169614446L88.8080921875,338.88872725638475L93.4627711875,336.2070954333652L94.04460606250001,336.8291755231944L94.91735837499999,336.31976273926824L97.244697875,335.8727272727273L98.1174501875,335.3917067397725L102.48121175,332.15984875722364L103.3539640625,332.30836376710374L109.168072984375,330.02832542766225L111.49541248437501,329.73790922164915L112.659082234375,329.63509113788604L118.41546426562499,323.2260907129808L122.0318745859375,320.65563616752627L125.15222501562499,318.29081778959795L126.42107511718751,315.3090909090909L127.2488200234375,313.8696361021562L129.8670769609375,315.10345310731367L133.02248750781249,313.1156351869757L134.46712740625,312.4644548069347L135.04896228125,312.9442741654136L135.33987971875,312.7043628519232L136.49963578125,311.57336311340333L138.8118097421875,309.9625440164046L141.398594109375,309.1742728580128L146.03598765625,309.41418090300124L147.77268648437501,309.20854636972604L149.227273671875,307.5977272727273L153.4630250390625,304.9929992155595L155.12079783593748,306.7409090909091L156.5753850234375,307.08363767103714L158.4952118125,305.50709208575165L159.45227147656252,301.08591039830986L160.0137225625,301.1544541532343L165.183377609375,294.6426372788169L166.5872499296875,293.1003652052446L168.3285147265625,293.4773640285839L169.7332023984375,291.96936219822277L170.3150372734375,292.79191013682976L172.46821767968748,290.3242728580128L175.64401201562498,287.719548069347L177.939389734375,284.8749119671908L180.05017185937498,283.0927285801281L184.15693460937499,279.1513662511652L185.150358953125,277.98609300093216L187.8340070859375,281.55045323805376L199.21125971875,278.123180510781L199.50217715625,279.39127429615365L204.038467109375,280.6250880328092L204.5764360703125,280.8650026148016L204.8474589296875,281.4476392399181L205.55795628125,279.66545585285536L209.16539773437498,277.3349093523892L209.98743517968748,278.5344561143355L210.197958953125,278.87718469446355L212.8467100390625,278.08890699906783L217.42539827343748,279.117092739452L217.9723361015625,279.8368168744174L222.53422809375002,270.5831844329834L223.22401551562498,268.9038150440563L225.218691578125,267.2929992155595L226.3577377109375,261.8779085679488L226.7716101640625,259.3074540224942L227.49319629687503,256.9769075220281L228.735792078125,252.9327246579257L229.94446923437502,254.23509195501154L231.6927460546875,244.91290595314717L232.6917147890625,236.82454676194624L234.4838575234375,228.359185478904L235.9501857734375,224.96617972634056L236.3457943515625,223.52673145640978L237.4682073125,219.82527063543145L237.6495415,219.48254859230735L240.5125669765625,215.60972674976696L244.5363269375,210.160362590443L244.948242546875,209.40635840676046L247.39397109375003,207.38426697470925L249.030870890625,208.65236729708585L249.321788328125,209.98900156888095L249.70989567187502,210.3660036607222L250.23481900781252,205.49926958951085L250.711147390625,207.7612690665505L253.122631171875,212.4909090909091L254.08833356249997,209.02936938892714L254.63396682812498,208.99508934020997L255.10393546875002,206.11617972634053L256.4262726328125,197.27382288846104L256.933584375,191.72163165699354L262.113023640625,191.00190752202815L262.9875697265625,188.46573302529075L263.7569354609375,188.1572779568759L264.0478528984375,189.39108515652742L265.1296613515625,184.66145820617675L266.6462152578125,183.83890699906783L267.13721996875,179.14354702342638L267.8398899453125,178.97218600186434L268.4385210625,175.0650971846147L269.20429925,173.11153970198197L270.803366734375,175.68199424743653L271.5428906015625,177.73836572820488L271.671553078125,176.3331844329834L271.79988941406253,176.50454545454545L271.967688765625,174.75664211619983L273.46304353125004,179.2806410702792L274.2632295546875,179.89755120710893L274.484189828125,181.13135840676048L275.348788625,182.36517868041994L275.93062349999997,184.11309509277345L276.4261941796875,180.7543693889271L276.876105171875,176.67590647610749L277.84164449218747,176.81300052296032L277.92725640625,175.64772727272728L281.9819997265625,165.74291118275036L282.73049246093746,169.13590386130593L288.7844778125,165.88000522960317L289.7659980234375,168.6903678200462L290.1417120234375,169.8899080449885L291.071702015625,163.51517868041992L292.7322470078125,166.94245140769263L293.721268453125,165.4344561143355L294.45475871875,168.00491065979003L295.35034087500003,167.42226749766957L295.51243276562496,167.04527847983618L296.4107871171875,165.57155016118827L296.71654395312504,163.85791379755193L298.95713004687497,164.47482393438167L299.107154734375,163.68653970198199L300.510211703125,160.4991880937056L300.7967262421875,157.07191536643288L301.79406427343747,152.44508934020996L302.3136062890625,150.25163688659666L302.8478246328125,150.148822888461L303.95996416406246,142.368912228671L304.116022453125,142.84872831864791L304.805809875,139.21581452109595L304.9520839453125,140.1069127516313L305.8220640625,139.7641776344993L307.3590017578125,132.36126906655053L308.229960296875,131.77863897843795L308.4929927109375,130.78472674976695L309.595184953125,129.44809247797184L310.02079846875,130.2020966616544L311.44293466406253,132.70400418368254L312.7673917421875,125.88372570384632L313.605410078125,125.57527063543148L315.9012770078125,136.71390699906783L316.68091617187497,134.8289096138694L317.2824825546875,138.9759064761075L317.65656585156245,142.0604571602561L318.171378828125,139.2843615445224L318.8494251875,139.8327246579257L319.2773216875,141.99191013682972L320.12088441406246,143.3285444086248L320.378698578125,144.185362590443L321.994399234375,148.43518652482467L323.14583871093754,151.6910851565274L323.94211104687497,155.63245402249422L324.11072575,156.86627429615368L325.4095807890625,157.86018652482466L326.3028799609375,158.57991065979002L328.50905821875,162.10999738519843L332.365671109375,164.54335788380018L332.7591597734375,163.85791379755193L332.82243105468746,163.61800575256348L332.9639760859375,163.51517868041992L335.7958551328125,159.88227795687587L337.69056909375,159.23108777132902L337.8485842265625,159.2996347947554L338.5285874296875,153.2676405473189L339.7682479453125,153.64464263916017L344.14163065625,157.51745140769268L344.6081748203125,157.414637409557L346.1188581953125,154.53572779568756L347.62187726562496,152.37654231678357L348.09380275,155.39254597750576L348.6334024140625,158.99117972634056L351.49936315624996,154.05591170571066L352.26677204687496,149.2577246579257L352.99993617187505,146.03609300093217L353.87187313281254,148.53800052296032L354.9592259765625,140.381087771329L355.5508450703125,136.1655438856645L355.887585265625,132.601177111539L357.43039349218753,128.48846029801803L357.7040254765625,125.81517868041993L358.1932364140625,125.71236468228429L358.29222009375,124.71845245361328L360.62477784375,124.27290333834563L364.0487651953125,114.12819227738811L364.362023265625,113.922538133101L364.7434447265625,113.6483761874112L364.88857730468754,114.19672622680662L366.502810328125,103.36655800559299L367.7458953203125,101.51582759510387L367.89901834375,97.1288965398615L368.1943386796875,96.34063845547763L368.51868553124996,94.07862590443006L368.9568554609375,90.75419332330875L371.700839609375,88.28655277598989L371.8360248984375,88.3550867254084L373.0910140234375,93.05045977505767L374.2100025078125,91.8509195501154L374.72644618749996,92.7077377319336L375.0264955625,92.9818996776234L376.281810828125,95.96363636363634L376.88011580468753,98.63690490722655L378.5013608515625,100.93317135897553L379.0646057109375,105.49145036177202L381.97867219531247,113.33990804498848L382.13603504687495,114.29954022494229L384.0545572734375,113.81972413496538L384.1949608125,114.26526017622518L385.2229560625,113.40844199440699L386.090490125,113.68263008811255L386.55980648437503,111.21498954079368L387.88328514062505,111.35208358764646L388.82795146093747,112.7572779568759L388.981074484375,113.2370940468528L390.6116145390625,118.20662904219193L392.224216859375,122.42218600186433L392.78566794531247,118.44653708718045L393.33978086718747,118.48081713589755L393.6347750625,118.34372308904472L394.1407822421875,117.41837095780807L394.61776290625,119.0977272727273L395.2777084609375,119.61182341142131L396.659077078125,124.75273250233045L397.81899621093754,126.12363374883478L398.7439310234375,127.39172099720349L399.8665070546875,127.32318704778498L401.347022421875,135.85708881724963L402.1573188046875,140.1069127516313L402.2704896015625,139.21581452109595L402.364581171875,137.53645820617675L402.6954508359375,138.11908829428936L403.155798328125,137.53645820617675L404.159006890625,139.72991065979005L405.19939548437503,137.7763662511652L406.5305384453125,134.3490935238925L406.99023365625,134.79464263916014L407.319961828125,136.748187047785L407.57516686718753,134.65754859230734L408.48787140625,139.93555173006925L409.17668040625,143.4656384554776L409.25625871874996,142.67736729708585L409.400412875,143.60273250233044L412.246642109375,144.185362590443L413.3191555546875,140.55244879289106L413.85092784375,137.7078192277388L415.18712598437503,139.79845768321644L415.2665412265625,138.9073594526811L416.5663746875,133.76645036177203L417.489678796875,133.04672622680664L419.4577743984375,140.14117972634054L420.7026531640625,138.7017314564098L421.43467579687496,141.5806410702792L422.87980490625,144.63091170571064L423.5684508359375,142.7116342717951L424.3038979453125,139.93555173006925L424.9860210625,141.27218600186436L426.8566006171875,141.61490804498845L427.30520704687495,142.4374592520974L428.09544578125,144.5280846335671L428.23307712499997,145.48772988752884L428.52399456250004,148.74364159323952L433.51720753125005,147.50982131958006L434.063493078125,142.5745402249423L436.2540165859375,139.38717554265804L436.5053079375,139.3529085679488L436.81383696874997,139.25009456981311L437.958916703125,140.3125407479026L438.3833887265625,141.34073302529075L438.729913140625,142.95154231678356L439.12030346875,141.10081190629438L440.4899310234375,131.26454283974388L442.1000872890625,125.16400156888093L442.44954696875004,125.02690752202813L444.66599865625,121.01699163263493L445.153578890625,118.58363113403323L445.8781002890625,116.2188307328658L446.363560609375,118.34372308904472L447.4354217734375,118.51509718461466L448.067971515625,118.20662904219193L448.4011241640625,115.3620125510476L448.6904108984375,114.12819227738811L451.1938663359375,107.68490281538533L452.68644890625,111.72908567948775L452.8875146015625,113.57981608997693L453.31100820312497,113.88828423239966L453.39743546875,113.75119018554688L453.6681321875,114.3338202736594L453.903279578125,113.6483761874112L454.440759328125,113.78544408624822L454.77081364062497,112.5859038613059L455.40173267968754,112.99718600186435L455.7233073359375,112.791558005593L456.9512267890625,104.18909613869408L459.9615047578125,97.71155277598984L460.5901408125,99.6650971846147L461.0677737578125,101.58436154452238L461.25171707031245,102.85246186689898L461.61927755468747,100.93317135897553L462.5190995390625,96.2035444086248L463.3187963515625,92.77627168135211L464.00140867968753,96.61482654918325L464.72478858593746,89.79453499533912L464.9263434921875,89.45181295221505L465.25917,91.30254336270417L465.3274964609375,89.28046500466087L465.89351351562505,91.26826331398706L466.54514248437505,95.86082236550072L467.674893609375,101.20735945268109L468.220200734375,104.15481608997692L469.900477234375,107.37646082097831L470.6931620234375,112.20890176946466L471.3177213203125,111.76336572820492L471.4243693046875,112.31171576760033L471.5941255,111.79764577692208L472.2361333203125,113.27137409556997L472.4853047578125,112.92862590443008L472.7106679296875,112.96290595314724L472.79367071875004,112.96290595314724L473.68550225781246,114.7793563149192L473.88363268750004,114.40235422307796L474.476230203125,117.41837095780807L477.00838601562504,116.0474566372958L478.28457428125,119.0977272727273L479.21749953906254,117.28127691095528L479.9721889453125,116.32164473100141L480.6228394921875,116.97280876853245L480.713017375,115.97889653986152L482.1208033828125,117.82962695035064L482.31925995312497,118.75500522960317L483.917022875,113.68263008811255L484.85304646875,107.89055695967244L485.6868249765625,104.53181818181815L487.36269857812505,101.34445349953393L489.776791484375,103.70928004871718L489.940514078125,103.29799790815878L490.29535507812506,104.7374461780895L491.7031410859375,105.8341724048961L492.0971189609375,103.6064660505815L494.2786736015625,103.98344199440697L495.7828341640625,111.48917763449924L496.45973903124997,110.70091955011543L497.2237234453125,114.88217031305487L497.26074040625,112.5859038613059L497.547418015625,114.19672622680662L497.80490603906253,116.42445872913709L498.33765675,116.904274819114L501.41772881250006,120.46864159323951L501.563513671875,121.22264577692204L502.64907274218746,118.61791118275039L502.96167853125,118.720725180886L503.54008892968756,118.20662904219193L504.94135212500004,114.47091432051229L505.6818544140625,115.6361744967374L506.1689454375,113.99109823053533L506.43980522656244,113.71691013682971L506.59113447656256,111.83189967762343L506.75453092968746,109.05581713589754L508.7068087109375,116.42445872913709L509.14693548437504,114.74510241421785L509.63663563281256,116.73290072354405L509.99180277343754,117.07564891468394L511.23521390625,116.1159905867143L512.3286003515625,112.07180772261188L512.4642748515624,111.9004597750577L513.5124908203125,107.71918286410244L513.5496708515625,107.37646082097831L513.6559926953125,107.58208881724966L514.4762363671874,104.42900418368254L515.2429929765625,107.65064891468398L516.8847848828125,104.90882027365944L517.4309073593749,105.28582236550074L517.5246727890625,104.56609823053532L518.410633796875,101.34445349953393L518.9763247109375,98.63690490722655L519.54658159375,97.95146082097835L520.2670262343751,94.11290595314722L522.1718505546876,84.24236991188747L522.387592578125,85.37337618741122L523.009868890625,86.94991850419478L523.4822835859376,88.08089863170278L525.4078178359375,93.63308986317031L526.1240226484375,94.86691013682969L528.0564058515625,99.01390699906779L529.1664254687499,97.88290072354403L529.4447864921875,98.19136886596681L530.247581640625,100.21344722401011L531.29612375,102.92099581631749L531.4006518203124,102.85246186689898L531.6380821953126,102.78390176946465L532.9423185546875,113.85400418368255L535.2742240234375,114.5051943692294L535.31482853125,114.093912228671L535.4023972890625,113.13428004871719L536.1978542734374,108.67881504405625L537.2672693828125,103.0238098144531L537.6636933125,105.32010241421784L539.0908846875001,101.65292164195665L539.1817148515626,102.06417763449929L539.4843733515625,101.0017314564098L539.660652359375,101.48154754638671L539.7774107031249,101.24163950139825L543.344084578125,104.56609823053532L544.47024815625,95.7922622680664L544.57852684375,94.79837618741124L545.7668202109375,97.43736468228428L546.4394852500001,97.02608254172583L546.9164659140625,99.45944304032759L547.6727860234375,102.26980563077058L548.222496046875,101.72145559137516L549.8673862890626,99.7336311340332L550.0868789296875,99.42518913962624L550.1853733984375,98.70546500466088L550.3699689921875,100.31626122214573L551.5905502812501,101.78998954079373L553.227450078125,91.78235945268108L554.719869578125,93.18755382191051L555.478472671875,91.19972936456855L555.54011325,89.86309509277345L555.7946660078126,87.4982685435902L557.6399696640625,84.82499999999999L557.926484203125,84.37946395874025L558.4406448984375,81.53482131958009L558.6682910546875,81.84326331398705L558.8336443515625,81.94610346013849L559.219957921875,84.79071995128282L559.404553515625,84.85928004871715L559.7938023515625,83.3512716813521L559.857236703125,83.14564368508081L561.0421055937501,79.37564891468395L561.407056953125,79.23855486783111L562.0007959609375,76.94226226806643L562.3337855390624,77.83336049860173L563.3100875,79.23855486783111L564.3767304140625,75.708441994407L564.788482953125,76.70235422307792L564.927418859375,74.23473982377482L566.3066675625,70.29337095780807L568.001620390625,77.38782445734199L570.2987918828125,75.94837618741121L571.690270859375,76.01691013682972L571.76560934375,75.84553604125978L572.405171109375,74.54318181818184L573.0347855859376,74.78308986317029L573.656898828125,78.51883073286581L574.3204319296875,82.80292164195669L574.40995753125,80.60944304032756L576.2293330078126,86.43582236550071L577.419257078125,87.32692059603608L578.1626946328125,85.4761901855469L578.200037734375,84.00246186689901L578.8464484531249,82.15173145640978L579.1202435078125,80.7465370871804L581.3755059296875,78.1760825417258L581.6383752734375,79.78690490722659L582.261140796875,80.33528109463776L582.4233957578125,78.89580667669122L582.5326528671875,79.95827900279653L582.844280234375,80.02681295221504L582.9139112578124,79.68409090909091L584.747636921875,74.09764577692204L585.2787569296875,72.52110346013848L586.24364396875,73.58354963822796L586.4109541093751,73.10373354825106L586.6201733203125,73.37792164195668L588.4204695703125,72.76101150512693L588.9895849609375,70.19055695967245L590.2920275468749,69.91636886596677L590.380737796875,68.95673668601296L590.7419385390625,68.9909905867143L591.180434609375,68.78536259044301L591.7608018515624,68.30554650046605L592.6211608203124,68.09991850419476L594.296056,66.45481608997693L594.5789829921874,66.14637409556997L594.736019703125,66.968912228671L594.987474125,66.45481608997693L595.3825934921875,64.63836572820492L596.807012671875,67.03744617808945L597.3032356328125,65.4609038613059L599.095867578125,67.00319227738811L599.416789953125,67.89426435990765L599.8507200546876,68.1341724048961L600.524037375,68.78536259044301L600.8359908828126,69.84780876853245L601.0300445546875,71.1159090909091L601.4960995078125,70.2590909090909L601.6464503359375,71.56144513216884L602.284218328125,74.44036782004616L603.0994068203124,75.94837618741121L603.7286951562501,75.33146605058147L604.0913635312501,76.08544408624823L605.9603123828125,84.24236991188747L606.2831916015624,86.50435631491916L607.5205691328125,87.63536259044298L607.8082251640625,88.28655277598989L607.9093287578125,86.98417240489613L608.397398203125,89.00627691095525L610.1425766875,91.54245140769262L610.2503661640626,90.03444304032757L610.8799806406249,91.09691536643288L611.136979453125,89.48609300093221L611.39299984375,90.5142852783203L612.48491865625,86.1616342717951L614.1984615,82.04891745827416L615.5847222265625,79.82118495594375L616.3113635390624,77.11363636363637L616.4284480234376,77.49063845547761L618.7192597734374,81.6033552689986L618.9831075390625,80.95219123146751L619.3684426875001,83.3512716813521L619.773183203125,86.29872831864787L620.1829788984376,87.25836049860175L622.371871703125,93.25608777132902L623.3481736640625,94.25L623.3905719453124,94.25L624.1439567890625,96.71764054731892L624.7301945625,95.34672622680665L626.874569171875,90.92554127086294L627.427051390625,91.88517345081675L627.5651719453125,90.44572518088597L629.700903828125,84.44799790815875L629.9671976484375,81.56910136829725L630.3621539453125,81.3291933233088L630.4239575937501,81.08928527832029L630.4823367656251,79.85546500466091L631.2164793125,78.86155277598988L631.5830613749999,79.23855486783111L631.7273786015626,77.04510241421787L632.4005328515625,74.26899372447622L632.9331204921875,71.56144513216884L634.0400417734376,71.83563322587446L634.6698193203125,74.02908567948771L635.0054180234374,74.26899372447622L636.122612734375,72.89807940396395L636.2838892734375,72.55535736083982L636.4668541640625,70.77318704778497L637.8686065703125,75.9140961386941L638.268618046875,75.09155800559301L638.7348360703126,74.47464786876333L638.9083428828125,73.7206436850808L639.9580264843751,74.8516238125888L640.35167821875,76.73663427179508L640.4902879843751,75.19437200372869L641.4874629453125,72.34972936456853L643.2975434140625,78.38173668601291L643.9216134999999,80.36953499533911L644.530518046875,76.46244617808946L646.4281672734375,73.17226749766957L646.5884653906251,72.14410136829724L646.6349404296875,71.25300313776188L647.0943095,69.81355486783116L647.9509178515624,67.96282445734198L648.6958230390625,68.0656384554776L649.314674875,64.3984576832164L649.6152134609375,64.80973982377486L650.6073332421875,65.56371785944157L651.0896952265625,63.404545454545485L651.5818414296874,63.43882550326259L652.9920734921875,61.10827900279651L653.3288136875,63.13035736083987L654.3246840859375,63.85008149580523L654.6798512265625,63.952921641956664L655.1220979140625,65.08390176946466L655.4857447109375,66.59191013682971L655.5917404140624,67.31163427179513L656.6689828984374,68.88817658857869L656.7746524609374,68.95673668601296L657.713774390625,70.2248108603738L657.918590703125,70.2590909090909L658.056874328125,71.04737514149059L658.4699314296876,67.27735422307796L658.6566469375,67.10600627552378L658.7965612656251,68.33982654918321L658.8414056015625,67.44872831864791L660.7167141953125,63.473079403963936L662.1305338046875,64.26136363636363L662.553048984375,62.61626122214574L662.647629765625,63.13035736083987L662.7808582109375,62.547727272727286L663.5423965703126,62.033631134033214L668.776464390625,69.53936677412554L670.3264477109375,75.708441994407L671.302097390625,74.20045977505771L671.3536276093749,71.8013531771573L671.4999016796875,72.6581713589755L671.682377359375,73.85773773193358L671.9543786406249,74.30327377319338L672.0986958671875,75.39999999999998L672.255732578125,74.8516238125888L674.0594533046875,72.24691536643286L674.49990621875,70.87600104592065L674.6833603203125,70.08771681352096L675.458107375,69.71071472167966L676.310312828125,67.68863636363636L677.05163046875,66.4890961386941L677.2778089921875,66.31772204312409L677.3482553671876,66.69472413496538L678.1808923828124,65.83790595314724L678.54404996875,61.382467096502126L679.8412743046875,60.868370957808054L680.219434359375,58.64063845547764L680.428816640625,55.795995816317486L680.9661333203125,53.8767314564098L681.0912082499999,52.95135317715733L681.7286501015625,53.499729364568566L682.066042578125,53.4654493158514L682.5146490078125,51.92318704778495L682.8544875390625,51.71753290349784L683.27243675,50.55227272727268L683.9232503671875,50.65508672540841L684.4604039765625,49.11282445734196L684.7810002109375,49.14707835804336L685.98266534375,52.50581713589753L687.6272294453125,59.25754859230739L688.26304059375,61.27962695035069L688.7282801953124,63.0618234114213L689.3163117421875,67.58582236550075L689.4441588671875,67.99707835804332L691.4332905390625,74.09764577692204L691.539123171875,74.8516238125888L691.667622578125,74.30327377319338L692.05409921875,73.51498954079369L692.29544328125,74.33755382191055L695.019043640625,81.87754336270416L695.4095970390625,77.76482654918323L695.752207765625,77.55917240489612L696.0145878984374,77.49063845547761L696.78835653125,77.14791641235354L696.9175082187501,72.62391745827415L698.1863583203125,68.75108254172585L698.2419652968749,67.68863636363636L699.9413210234376,65.83790595314724L699.98062096875,65.6322779568759L700.1466265468749,64.26136363636363L700.6366528359375,65.18671576760033L700.8219007109375,64.43273773193357L701.4099322578126,61.62237514149058L701.5082636562499,58.503544408624805L701.673616953125,58.33217031305486L702.8201643203125,58.160822365500735L703.0109565859375,59.42889653986151L704.383845546875,66.86609823053533L704.6742737734374,68.5111744967374L705.5926857734376,68.64826854359023L705.786902515625,67.79145036177204L705.9504620390625,67.51726226806642L706.220017265625,69.29945872913709L707.1676188515625,71.69853917902168L708.35330309375,66.76328423239966L709.7407053125,72.0070073214444L710.270031546875,73.5492695895108L710.8727394218749,74.13189967762344L711.521759265625,73.34364159323951L712.0532054140625,75.43428004871714L712.5678553203124,71.25300313776188L712.614330359375,69.53936677412554L712.6899949843751,68.88817658857869L713.423811390625,64.12426958951085L715.1495845078125,62.753355268998575L715.6537979140625,64.7754597750577L715.9988546953125,63.30173145640981L716.424305140625,63.64445349953394L717.137900828125,62.13644513216889L717.7561003828125,67.44872831864791L718.2815129296876,65.32380981445311L718.5507420156249,64.98108777132904L718.645322796875,63.473079403963936L719.120835828125,62.342099276456L719.3949570234374,62.582007321444394L719.5854231484375,63.404545454545485L719.7727909375,64.53555173006924L719.96782303125,62.753355268998575L720.66641625,61.965097184614706L720.9806527421875,62.170725180885995L721.0561542968751,61.86228318647909L721.202265296875,62.6505412708629L721.403820203125,62.85616926713419L721.7478985624999,64.46699163263497L721.78834,64.08998954079368L722.203517015625,63.541639501398265L722.8559613359375,65.76937200372868L723.054091765625,65.83790595314724L723.3906688906251,67.75717031305487L725.137478078125,69.19664473100141L725.3118002421876,68.27126645174894L726.3898580781249,66.72900418368255L727.7358404375,71.56144513216884L729.1331899453124,69.4022727272727L729.2607109296874,69.88208881724961L730.5264626953125,69.12808463356714L730.6660508828126,68.85389653986152L730.8066174921875,68.5111744967374L730.8690734218751,68.27126645174894L732.41595840625,65.39236991188744L734.7503099296874,67.75717031305487L734.936699296875,66.24918809370564L736.0744408671875,62.13644513216889L736.55794434375,61.4852810946378L737.316221296875,61.27962695035069L737.404279265625,61.79372308904476L737.7560219296876,63.610173450816774L737.8828906328124,63.71298744895239L737.946977265625,63.57591955011543L739.0318840546876,63.81582759510388L739.62105709375,64.74117972634059L741.2447481953125,59.874458729137075L741.8306598281249,60.28571472167971L742.05667528125,58.81201255104759L742.4982696874999,55.65890176946465L743.5192529140626,54.048079403963925L743.6816709453126,55.281899677623414L743.7599446953125,55.31617972634058L744.634816921875,60.35427481911404L746.114843078125,60.55990281538533L747.4498997265625,61.965097184614706L748.04070346875,63.71298744895239L748.3901631484375,61.965097184614706L748.49469121875,62.68482131958007L749.1288716640624,62.44491327459161L750.276397453125,64.80973982377486L750.627977046875,67.14026017622518L751.0041802578124,68.16845245361327L752.8948174609375,60.662716813520944L753.308852984375,61.14253290349785L754.2319940234376,58.67491850419475L754.4819808125,57.85235422307795L755.7720300546875,55.45327377319336L756.4813859140625,57.40681818181815L758.37544759375,53.97954545454547L758.5947771640625,54.49364159323949L758.677779953125,54.49364159323949L758.8418286875,54.80208358764651L758.941953859375,52.67719123146753L759.0037575078126,51.991720997203515L759.25602728125,51.20346291281959L760.7303459765625,57.44109823053532L760.9984335703125,56.68709404685279L762.8121015859375,58.64063845547764L763.975608265625,61.93081713589754L765.152323640625,62.170725180885995L766.1723284453125,61.93081713589754L767.7210072031249,65.35808986317028L767.9223990390625,64.19282968694512L768.60321759375,61.34818704778496L768.6472465781251,60.83409090909089L768.8672284296875,59.42889653986151L770.1634743437501,60.662716813520944L770.3363288749999,59.086174496737385L771.635673125,51.82037304964933L771.75895428125,50.55227272727268L773.0989030390625,55.11055173006923L773.51880909375,54.870643685080836L774.6086079921876,48.35882027365943L774.671063921875,48.530194369229434L774.7915728828125,49.11282445734196L775.1294545703124,49.62692059603603L777.09200578125,49.010010459206285L777.879635390625,51.546184955943716L778.3315032265625,51.683279002796496L778.642804453125,51.16918286410248L779.330308890625,55.59036782004614L779.8206613203125,58.60635840676048L780.155444671875,58.12654231678357L780.2916083828125,57.06409613869408L780.5277341953125,58.26363636363635L781.84713609375,50.689366774125574L782.4596281875,53.499729364568566L782.93514121875,52.403003137761914L783.588400890625,50.963554867831135L783.9893907890626,49.07854440862479L784.4052200859376,51.82037304964933L784.5024099921875,51.888906999067785L784.7633224921875,50.51799267855557L785.5988947734376,53.22554127086289L785.7818596640625,54.35654754638671L786.3095551953124,56.001623812588775L787.487085921875,52.6086311340332L787.8587231640626,53.0199132745916L788.5892781640625,54.21945349953393L789.8661187109375,59.086174496737385L790.0311458671874,59.360362590443L791.25172715625,61.451001045920634L792.0297356171875,62.547727272727286L792.2288444687499,63.57591955011543L792.471166953125,64.29564368508079L793.28293096875,62.993263313987086L793.469157265625,61.7594430403276L796.010445015625,55.830275865034594L796.4678572421875,55.55608777132903L796.5973350703125,52.30018913962624L797.225971125,53.15700732144444L798.297995359375,51.64899895407933L799.3056068203125,53.36263531771573L799.84357578125,53.97954545454547L800.2951174765625,54.18517345081676L801.044099421875,55.72746186689898L801.338278265625,57.98944826993073L801.64909028125,56.995536041259754L801.9297342890626,56.31009195501156L802.3385515624999,57.201190185546864L803.339151,57.40681818181815L803.381223140625,56.17299790815878L804.6569221953125,58.22935631491919L804.8685874609375,56.207277956875885L805.4776550781249,56.24155800559299L806.3011601562499,54.699269589510834L807.274689921875,50.586552775989844L807.5497895390625,52.09453499533913L808.012093875,51.92318704778495L808.66763653125,47.81044408624825L809.3796015156249,51.44337095780804L809.7626536796874,53.43116926713424L809.9081123984375,54.21945349953393L810.080803859375,54.01382550326264L810.1894086875,53.29410136829722L811.0256332499999,55.31617972634058L811.9515464843751,59.25754859230739L812.050693234375,59.32608254172584L812.8613157578125,58.57207835804331L813.204252625,56.96128214055841L813.2624687265625,56.82418809370563L815.0399351328125,62.71910136829723L815.42657484375,64.80973982377486L815.5394195,65.01536782004615L815.581491640625,63.952921641956664L815.8161498203125,62.82191536643285L816.498599078125,63.952921641956664L817.96133978125,63.64445349953394L819.4932222968749,59.63455068414862L819.95862496875,60.217180772261145L820.1345778359375,58.092262268066406L820.6482493203125,59.25754859230739L821.23579165625,60.83409090909089L821.32841559375,61.00546500466089L821.4437063046875,61.21109300093218L821.6253666328125,59.22326854359022L821.9391139140625,60.9026248585094L823.1027836640626,57.64672622680666L823.7681105390625,57.98944826993073L824.997497625,57.88663427179512L825.0400589765625,57.68100627552383L825.4266986875,58.33217031305486L825.747947203125,56.789908044988465L826.16312421875,54.01382550326264L826.9724421796875,56.7556279962713L827.087080609375,56.001623812588775L827.9401014140625,53.32835526899862L828.6214091796875,56.89272204312408L828.8953673046875,56.96128214055841L829.4078972968749,56.03590386130588L829.5235141484376,54.93917763449929L829.6564164531251,54.66498954079373L830.4096382265625,50.4151786804199L830.6359798203125,51.47762485850939L830.765294578125,51.957467096502114L831.5764063125,53.32835526899862L832.512756046875,51.23771681352093L832.9695159921874,52.78000522960315L833.3788224765625,52.265909090909076L833.5458064765626,52.02600104592068L834.86977434375,53.60254336270418L835.68643046875,54.59645559137516L835.751332453125,55.24764577692207L835.93299278125,56.51571995128285L836.27348359375,51.13490281538532L836.3284382890624,50.8607147216797L836.6366411796876,48.49591432051227L837.0945426171875,48.735822365500724L837.3505630078125,47.125L837.9098941796875,48.598728318647886L838.496784234375,48.3931003223766L839.547609328125,47.9818181818182L840.0177410390626,48.256006275523816L841.3607881328126,48.22172622680665L842.7794998515625,48.461634271795106L843.06242684375,47.159280048717164L843.27507053125,45.47989758578217L843.348452171875,45.89117972634057L843.8720709453124,47.5362821405584L845.016987609375,50.243830732865774L846.3218762500001,54.870643685080836L847.2397990390625,54.28798744895238L847.6420935,53.36263531771573L848.0378651484375,53.22554127086289L850.186316515625,55.76171576760032L851.7770674140625,53.4654493158514L852.51267759375,52.540097184614694L853.6005196484375,51.40909090909088L853.6760212031251,51.23771681352093L854.1722441640625,48.35882027365943L854.394509,47.63909613869407L855.27182728125,46.64518391002309L855.3127579296876,46.576623812588764L856.50790025,53.499729364568566L856.879374421875,50.8607147216797L857.4085375859376,48.461634271795106L857.56263903125,48.97573041048918L857.8243668828126,49.04426435990763L858.3624989140625,49.14707835804336L858.4311515156251,49.59264054731892L859.0046698046875,47.947538133101034L859.1191451640625,48.94145036177201L859.18421021875,48.3931003223766L859.5801449375,46.576623812588764L859.9980941484375,47.84472413496542L861.4717605625,52.02600104592068L862.3149971484374,54.32226749766954L863.72147859375,58.366450361772024L864.0262570078124,55.59036782004614L864.1351879765625,52.78000522960315L864.1971546953124,52.78000522960315L864.3507669296876,52.81428527832031L865.0372929453125,52.403003137761914L865.117034328125,53.15700732144444L865.8837909375,53.94526540582831L866.11991675,55.59036782004614L866.891891609375,58.9148265491832L867.1164394296875,57.40681818181815L869.090079421875,51.751812952215005L869.5660816640625,48.11891222867098L870.238746703125,48.56444826993072L870.36431084375,45.54845768321644L870.64870546875,45.10292164195664L871.1273168359376,45.06864159323948L871.24228140625,45.10292164195664L871.3482771093751,45.582737731933605L871.7544852578125,44.17754336270417L871.937287078125,43.76626122214577L872.3653466484375,45.377083587646496L872.5600526015625,44.65735945268108L872.6813769140625,45.75408567948773L873.161618984375,40.88736468228427L873.5295056093751,42.361093000932215L873.9027735546874,42.121184955943704L874.7862885078125,45.68555173006928L874.868639015625,45.993993724476184L875.7526431796875,47.879004183682525L876.194074515625,49.21563845547763L876.6917651093751,49.18135840676052L876.911583890625,49.62692059603603L877.9703994296874,54.35654754638671L878.8301061171875,53.29410136829722L880.1506495078125,58.0237283186479L881.77923271875,58.297916412353516L882.0729223515625,58.60635840676048L883.060965375,54.01382550326264L883.429830421875,54.15091955011542L883.7067238125,53.0199132745916L884.117661,52.09453499533913L884.5612122499999,54.767829686945106L884.8858852421876,55.14480563077058L885.4550006328125,53.259821319580055L885.926763046875,53.67110346013851L886.011559609375,52.81428527832031L886.0919532734375,53.0199132745916L887.2114309687499,50.620806676691245L887.6623203828125,49.455546500466085L887.8188678828126,49.318452453613304L888.1971910078125,47.91328423239963L888.8698560468749,47.91328423239963L889.05347321875,47.296374095569945L889.299709390625,45.719805630770566L889.4342423984375,46.19964786876329L890.1768646015624,48.90717031305485L890.604271890625,47.673376187411236L890.9501440234375,48.42735422307794L891.850781359375,45.10292164195664L892.0185807109375,43.629193323308755L892.5903052265625,44.04044931585139L892.7145648046875,43.18363113403319L892.96455159375,39.75635840676051L894.090062890625,38.454004183682514L894.19932,38.72819227738813L894.3172198359375,39.13944826993077L895.844047171875,39.96201255104762L896.08636965625,39.85917240489613L896.263464015625,40.61317658857865L897.6210243671875,43.45781922773881L897.7746366015625,41.332900723544014L898.0913191484375,41.94981086037376L898.4725775390625,41.88127691095525L898.5782471015625,41.60708881724963L899.5419926484376,45.445643685080825L899.89569215625,45.61699163263495L900.667014734375,47.125L901.286029640625,42.909443040327574L901.6723432109375,41.16155277598989L902.331636484375,40.7845506841486L902.8457971796875,40.44182864102447L902.88314028125,39.89345245361329L903.2435256718751,41.57280876853247L903.604237203125,40.3732685435902L904.2989167343751,36.157737731933594L904.5422176406249,36.02064368508081L905.3000053828125,32.010714721679676" style="fill: none;" fill="none"></path></g></g></g></g></g></g><g transform="translate(39, 377)" clip-path="url(#clip_1)"><clipPath id="clip_1"><rect width="978" height="23"></rect></clipPath><g><g><line x1="0" y1="0" x2="0" y2="5" style="visibility: inherit;" fill="rgb(0, 0, 0)" stroke="rgb(204, 204, 204)" stroke-width="1px"></line><line x1="81.53515625" y1="0" x2="81.53515625" y2="5" style="visibility: inherit;" fill="rgb(0, 0, 0)" stroke="rgb(204, 204, 204)" stroke-width="1px"></line><line x1="163.0703125" y1="0" x2="163.0703125" y2="5" style="visibility: inherit;" fill="rgb(0, 0, 0)" stroke="rgb(204, 204, 204)" stroke-width="1px"></line><line x1="244.60546875" y1="0" x2="244.60546875" y2="5" style="visibility: inherit;" fill="rgb(0, 0, 0)" stroke="rgb(204, 204, 204)" stroke-width="1px"></line><line x1="326.140625" y1="0" x2="326.140625" y2="5" style="visibility: inherit;" fill="rgb(0, 0, 0)" stroke="rgb(204, 204, 204)" stroke-width="1px"></line><line x1="407.67578125" y1="0" x2="407.67578125" y2="5" style="visibility: inherit;" fill="rgb(0, 0, 0)" stroke="rgb(204, 204, 204)" stroke-width="1px"></line><line x1="489.2109375" y1="0" x2="489.2109375" y2="5" style="visibility: inherit;" fill="rgb(0, 0, 0)" stroke="rgb(204, 204, 204)" stroke-width="1px"></line><line x1="570.74609375" y1="0" x2="570.74609375" y2="5" style="visibility: inherit;" fill="rgb(0, 0, 0)" stroke="rgb(204, 204, 204)" stroke-width="1px"></line><line x1="652.28125" y1="0" x2="652.28125" y2="5" style="visibility: inherit;" fill="rgb(0, 0, 0)" stroke="rgb(204, 204, 204)" stroke-width="1px"></line><line x1="733.81640625" y1="0" x2="733.81640625" y2="5" style="visibility: inherit;" fill="rgb(0, 0, 0)" stroke="rgb(204, 204, 204)" stroke-width="1px"></line><line x1="815.3515625" y1="0" x2="815.3515625" y2="5" style="visibility: inherit;" fill="rgb(0, 0, 0)" stroke="rgb(204, 204, 204)" stroke-width="1px"></line><line x1="896.88671875" y1="0" x2="896.88671875" y2="5" style="visibility: inherit;" fill="rgb(0, 0, 0)" stroke="rgb(204, 204, 204)" stroke-width="1px"></line><line x1="978.421875" y1="0" x2="978.421875" y2="5" style="visibility: inherit;" fill="rgb(0, 0, 0)" stroke="rgb(204, 204, 204)" stroke-width="1px"></line></g><g transform="translate(0, 8)"><text x="0" y="0" dx="0em" dy="0.95em" style="text-anchor: middle; visibility: hidden; font-family: &quot;Helvetica Neue&quot;, sans-serif; font-size: 12px; font-weight: 200;" fill="rgb(50, 49, 63)" stroke="none" stroke-width="1px">-500k</text><text x="81.53515625" y="0" dx="0em" dy="0.95em" style="text-anchor: middle; visibility: inherit; font-family: &quot;Helvetica Neue&quot;, sans-serif; font-size: 12px; font-weight: 200;" fill="rgb(50, 49, 63)" stroke="none" stroke-width="1px">0</text><text x="163.0703125" y="0" dx="0em" dy="0.95em" style="text-anchor: middle; visibility: inherit; font-family: &quot;Helvetica Neue&quot;, sans-serif; font-size: 12px; font-weight: 200;" fill="rgb(50, 49, 63)" stroke="none" stroke-width="1px">500k</text><text x="244.60546875" y="0" dx="0em" dy="0.95em" style="text-anchor: middle; visibility: inherit; font-family: &quot;Helvetica Neue&quot;, sans-serif; font-size: 12px; font-weight: 200;" fill="rgb(50, 49, 63)" stroke="none" stroke-width="1px">1M</text><text x="326.140625" y="0" dx="0em" dy="0.95em" style="text-anchor: middle; visibility: inherit; font-family: &quot;Helvetica Neue&quot;, sans-serif; font-size: 12px; font-weight: 200;" fill="rgb(50, 49, 63)" stroke="none" stroke-width="1px">1.5M</text><text x="407.67578125" y="0" dx="0em" dy="0.95em" style="text-anchor: middle; visibility: inherit; font-family: &quot;Helvetica Neue&quot;, sans-serif; font-size: 12px; font-weight: 200;" fill="rgb(50, 49, 63)" stroke="none" stroke-width="1px">2M</text><text x="489.2109375" y="0" dx="0em" dy="0.95em" style="text-anchor: middle; visibility: inherit; font-family: &quot;Helvetica Neue&quot;, sans-serif; font-size: 12px; font-weight: 200;" fill="rgb(50, 49, 63)" stroke="none" stroke-width="1px">2.5M</text><text x="570.74609375" y="0" dx="0em" dy="0.95em" style="text-anchor: middle; visibility: inherit; font-family: &quot;Helvetica Neue&quot;, sans-serif; font-size: 12px; font-weight: 200;" fill="rgb(50, 49, 63)" stroke="none" stroke-width="1px">3M</text><text x="652.28125" y="0" dx="0em" dy="0.95em" style="text-anchor: middle; visibility: inherit; font-family: &quot;Helvetica Neue&quot;, sans-serif; font-size: 12px; font-weight: 200;" fill="rgb(50, 49, 63)" stroke="none" stroke-width="1px">3.5M</text><text x="733.81640625" y="0" dx="0em" dy="0.95em" style="text-anchor: middle; visibility: inherit; font-family: &quot;Helvetica Neue&quot;, sans-serif; font-size: 12px; font-weight: 200;" fill="rgb(50, 49, 63)" stroke="none" stroke-width="1px">4M</text><text x="815.3515625" y="0" dx="0em" dy="0.95em" style="text-anchor: middle; visibility: inherit; font-family: &quot;Helvetica Neue&quot;, sans-serif; font-size: 12px; font-weight: 200;" fill="rgb(50, 49, 63)" stroke="none" stroke-width="1px">4.5M</text><text x="896.88671875" y="0" dx="0em" dy="0.95em" style="text-anchor: middle; visibility: inherit; font-family: &quot;Helvetica Neue&quot;, sans-serif; font-size: 12px; font-weight: 200;" fill="rgb(50, 49, 63)" stroke="none" stroke-width="1px">5M</text><text x="978.421875" y="0" dx="0em" dy="0.95em" style="text-anchor: middle; visibility: hidden; font-family: &quot;Helvetica Neue&quot;, sans-serif; font-size: 12px; font-weight: 200;" fill="rgb(50, 49, 63)" stroke="none" stroke-width="1px">5.5M</text></g><line x1="0" y1="0" x2="978.421875" y2="0" fill="rgb(0, 0, 0)" stroke="rgb(204, 204, 204)" stroke-width="1px"></line></g></g></g></g></svg>