<svg viewBox="0 0 1018 400" xmlns="http://www.w3.org/2000/svg"><g><g><g><g><g><line x1="59.296875" y1="377" x2="54.296875" y2="377" style="visibility: inherit;" fill="rgb(0, 0, 0)" stroke="rgb(204, 204, 204)" stroke-width="1px"></line><line x1="59.296875" y1="348" x2="54.296875" y2="348" style="visibility: inherit;" fill="rgb(0, 0, 0)" stroke="rgb(204, 204, 204)" stroke-width="1px"></line><line x1="59.296875" y1="319" x2="54.296875" y2="319" style="visibility: inherit;" fill="rgb(0, 0, 0)" stroke="rgb(204, 204, 204)" stroke-width="1px"></line><line x1="59.296875" y1="290" x2="54.296875" y2="290" style="visibility: inherit;" fill="rgb(0, 0, 0)" stroke="rgb(204, 204, 204)" stroke-width="1px"></line><line x1="59.296875" y1="261" x2="54.296875" y2="261" style="visibility: inherit;" fill="rgb(0, 0, 0)" stroke="rgb(204, 204, 204)" stroke-width="1px"></line><line x1="59.296875" y1="232" x2="54.296875" y2="232" style="visibility: inherit;" fill="rgb(0, 0, 0)" stroke="rgb(204, 204, 204)" stroke-width="1px"></line><line x1="59.296875" y1="203" x2="54.296875" y2="203" style="visibility: inherit;" fill="rgb(0, 0, 0)" stroke="rgb(204, 204, 204)" stroke-width="1px"></line><line x1="59.296875" y1="174" x2="54.296875" y2="174" style="visibility: inherit;" fill="rgb(0, 0, 0)" stroke="rgb(204, 204, 204)" stroke-width="1px"></line><line x1="59.296875" y1="145" x2="54.296875" y2="145" style="visibility: inherit;" fill="rgb(0, 0, 0)" stroke="rgb(204, 204, 204)" stroke-width="1px"></line><line x1="59.296875" y1="116" x2="54.296875" y2="116" style="visibility: inherit;" fill="rgb(0, 0, 0)" stroke="rgb(204, 204, 204)" stroke-width="1px"></line><line x1="59.296875" y1="87" x2="54.296875" y2="87" style="visibility: inherit;" fill="rgb(0, 0, 0)" stroke="rgb(204, 204, 204)" stroke-width="1px"></line><line x1="59.296875" y1="58" x2="54.296875" y2="58" style="visibility: inherit;" fill="rgb(0, 0, 0)" stroke="rgb(204, 204, 204)" stroke-width="1px"></line><line x1="59.296875" y1="29" x2="54.296875" y2="29" style="visibility: inherit;" fill="rgb(0, 0, 0)" stroke="rgb(204, 204, 204)" stroke-width="1px"></line><line x1="59.296875" y1="0" x2="54.296875" y2="0" style="visibility: inherit;" fill="rgb(0, 0, 0)" stroke="rgb(204, 204, 204)" stroke-width="1px"></line></g><g transform="translate(49.296875, 0)"><text x="0" y="377" dx="0em" dy="0.3em" style="text-anchor: end; visibility: hidden; font-family: &quot;Helvetica Neue&quot;, sans-serif; font-size: 12px; font-weight: 200;" fill="rgb(50, 49, 63)" stroke="none" stroke-width="1px">-0.01</text><text x="0" y="348" dx="0em" dy="0.3em" style="text-anchor: end; visibility: inherit; font-family: &quot;Helvetica Neue&quot;, sans-serif; font-size: 12px; font-weight: 200;" fill="rgb(50, 49, 63)" stroke="none" stroke-width="1px">0</text><text x="0" y="319" dx="0em" dy="0.3em" style="text-anchor: end; visibility: inherit; font-family: &quot;Helvetica Neue&quot;, sans-serif; font-size: 12px; font-weight: 200;" fill="rgb(50, 49, 63)" stroke="none" stroke-width="1px">0.01</text><text x="0" y="290" dx="0em" dy="0.3em" style="text-anchor: end; visibility: inherit; font-family: &quot;Helvetica Neue&quot;, sans-serif; font-size: 12px; font-weight: 200;" fill="rgb(50, 49, 63)" stroke="none" stroke-width="1px">0.02</text><text x="0" y="261" dx="0em" dy="0.3em" style="text-anchor: end; visibility: inherit; font-family: &quot;Helvetica Neue&quot;, sans-serif; font-size: 12px; font-weight: 200;" fill="rgb(50, 49, 63)" stroke="none" stroke-width="1px">0.03</text><text x="0" y="232" dx="0em" dy="0.3em" style="text-anchor: end; visibility: inherit; font-family: &quot;Helvetica Neue&quot;, sans-serif; font-size: 12px; font-weight: 200;" fill="rgb(50, 49, 63)" stroke="none" stroke-width="1px">0.04</text><text x="0" y="203" dx="0em" dy="0.3em" style="text-anchor: end; visibility: inherit; font-family: &quot;Helvetica Neue&quot;, sans-serif; font-size: 12px; font-weight: 200;" fill="rgb(50, 49, 63)" stroke="none" stroke-width="1px">0.05</text><text x="0" y="174" dx="0em" dy="0.3em" style="text-anchor: end; visibility: inherit; font-family: &quot;Helvetica Neue&quot;, sans-serif; font-size: 12px; font-weight: 200;" fill="rgb(50, 49, 63)" stroke="none" stroke-width="1px">0.06</text><text x="0" y="145" dx="0em" dy="0.3em" style="text-anchor: end; visibility: inherit; font-family: &quot;Helvetica Neue&quot;, sans-serif; font-size: 12px; font-weight: 200;" fill="rgb(50, 49, 63)" stroke="none" stroke-width="1px">0.07</text><text x="0" y="116" dx="0em" dy="0.3em" style="text-anchor: end; visibility: inherit; font-family: &quot;Helvetica Neue&quot;, sans-serif; font-size: 12px; font-weight: 200;" fill="rgb(50, 49, 63)" stroke="none" stroke-width="1px">0.08</text><text x="0" y="87" dx="0em" dy="0.3em" style="text-anchor: end; visibility: inherit; font-family: &quot;Helvetica Neue&quot;, sans-serif; font-size: 12px; font-weight: 200;" fill="rgb(50, 49, 63)" stroke="none" stroke-width="1px">0.09</text><text x="0" y="58" dx="0em" dy="0.3em" style="text-anchor: end; visibility: inherit; font-family: &quot;Helvetica Neue&quot;, sans-serif; font-size: 12px; font-weight: 200;" fill="rgb(50, 49, 63)" stroke="none" stroke-width="1px">0.1</text><text x="0" y="29" dx="0em" dy="0.3em" style="text-anchor: end; visibility: inherit; font-family: &quot;Helvetica Neue&quot;, sans-serif; font-size: 12px; font-weight: 200;" fill="rgb(50, 49, 63)" stroke="none" stroke-width="1px">0.11</text><text x="0" y="0" dx="0em" dy="0.3em" style="text-anchor: end; visibility: hidden; font-family: &quot;Helvetica Neue&quot;, sans-serif; font-size: 12px; font-weight: 200;" fill="rgb(50, 49, 63)" stroke="none" stroke-width="1px">0.12</text></g><line x1="59.296875" y1="0" x2="59.296875" y2="377" fill="rgb(0, 0, 0)" stroke="rgb(204, 204, 204)" stroke-width="1px"></line></g></g><g transform="translate(59, 0)" clip-path="url(#clip_0)"><clipPath id="clip_0"><rect width="958" height="377"></rect></clipPath><g><g><g><line x1="0" y1="0" x2="0" y2="377" fill="rgb(0, 0, 0)" stroke="rgb(60, 60, 60)" stroke-width="1px" opacity="0.25"></line><line x1="68.47879464285714" y1="0" x2="68.47879464285714" y2="377" fill="rgb(0, 0, 0)" stroke="rgb(60, 60, 60)" stroke-width="1px" opacity="0.25"></line><line x1="136.95758928571428" y1="0" x2="136.95758928571428" y2="377" fill="rgb(0, 0, 0)" stroke="rgb(60, 60, 60)" stroke-width="1px" opacity="0.25"></line><line x1="205.43638392857142" y1="0" x2="205.43638392857142" y2="377" fill="rgb(0, 0, 0)" stroke="rgb(60, 60, 60)" stroke-width="1px" opacity="0.25"></line><line x1="273.91517857142856" y1="0" x2="273.91517857142856" y2="377" fill="rgb(0, 0, 0)" stroke="rgb(60, 60, 60)" stroke-width="1px" opacity="0.25"></line><line x1="342.3939732142857" y1="0" x2="342.3939732142857" y2="377" fill="rgb(0, 0, 0)" stroke="rgb(60, 60, 60)" stroke-width="1px" opacity="0.25"></line><line x1="410.87276785714283" y1="0" x2="410.87276785714283" y2="377" fill="rgb(0, 0, 0)" stroke="rgb(60, 60, 60)" stroke-width="1px" opacity="0.25"></line><line x1="479.3515625" y1="0" x2="479.3515625" y2="377" fill="rgb(0, 0, 0)" stroke="rgb(60, 60, 60)" stroke-width="1px" opacity="0.25"></line><line x1="547.8303571428571" y1="0" x2="547.8303571428571" y2="377" fill="rgb(0, 0, 0)" stroke="rgb(60, 60, 60)" stroke-width="1px" opacity="0.25"></line><line x1="616.3091517857143" y1="0" x2="616.3091517857143" y2="377" fill="rgb(0, 0, 0)" stroke="rgb(60, 60, 60)" stroke-width="1px" opacity="0.25"></line><line x1="684.7879464285714" y1="0" x2="684.7879464285714" y2="377" fill="rgb(0, 0, 0)" stroke="rgb(60, 60, 60)" stroke-width="1px" opacity="0.25"></line><line x1="753.2667410714286" y1="0" x2="753.2667410714286" y2="377" fill="rgb(0, 0, 0)" stroke="rgb(60, 60, 60)" stroke-width="1px" opacity="0.25"></line><line x1="821.7455357142857" y1="0" x2="821.7455357142857" y2="377" fill="rgb(0, 0, 0)" stroke="rgb(60, 60, 60)" stroke-width="1px" opacity="0.25"></line><line x1="890.2243303571429" y1="0" x2="890.2243303571429" y2="377" fill="rgb(0, 0, 0)" stroke="rgb(60, 60, 60)" stroke-width="1px" opacity="0.25"></line><line x1="958.703125" y1="0" x2="958.703125" y2="377" fill="rgb(0, 0, 0)" stroke="rgb(60, 60, 60)" stroke-width="1px" opacity="0.25"></line></g><g><line x1="0" y1="377" x2="958.703125" y2="377" fill="rgb(0, 0, 0)" stroke="rgb(60, 60, 60)" stroke-width="1px" opacity="0.25"></line><line x1="0" y1="348" x2="958.703125" y2="348" fill="rgb(0, 0, 0)" stroke="rgb(60, 60, 60)" stroke-width="1px" opacity="0.25"></line><line x1="0" y1="319" x2="958.703125" y2="319" fill="rgb(0, 0, 0)" stroke="rgb(60, 60, 60)" stroke-width="1px" opacity="0.25"></line><line x1="0" y1="290" x2="958.703125" y2="290" fill="rgb(0, 0, 0)" stroke="rgb(60, 60, 60)" stroke-width="1px" opacity="0.25"></line><line x1="0" y1="261" x2="958.703125" y2="261" fill="rgb(0, 0, 0)" stroke="rgb(60, 60, 60)" stroke-width="1px" opacity="0.25"></line><line x1="0" y1="232" x2="958.703125" y2="232" fill="rgb(0, 0, 0)" stroke="rgb(60, 60, 60)" stroke-width="1px" opacity="0.25"></line><line x1="0" y1="203" x2="958.703125" y2="203" fill="rgb(0, 0, 0)" stroke="rgb(60, 60, 60)" stroke-width="1px" opacity="0.25"></line><line x1="0" y1="174" x2="958.703125" y2="174" fill="rgb(0, 0, 0)" stroke="rgb(60, 60, 60)" stroke-width="1px" opacity="0.25"></line><line x1="0" y1="145" x2="958.703125" y2="145" fill="rgb(0, 0, 0)" stroke="rgb(60, 60, 60)" stroke-width="1px" opacity="0.25"></line><line x1="0" y1="116" x2="958.703125" y2="116" fill="rgb(0, 0, 0)" stroke="rgb(60, 60, 60)" stroke-width="1px" opacity="0.25"></line><line x1="0" y1="87" x2="958.703125" y2="87" fill="rgb(0, 0, 0)" stroke="rgb(60, 60, 60)" stroke-width="1px" opacity="0.25"></line><line x1="0" y1="58" x2="958.703125" y2="58" fill="rgb(0, 0, 0)" stroke="rgb(60, 60, 60)" stroke-width="1px" opacity="0.25"></line><line x1="0" y1="29" x2="958.703125" y2="29" fill="rgb(0, 0, 0)" stroke="rgb(60, 60, 60)" stroke-width="1px" opacity="0.25"></line><line x1="0" y1="0" x2="958.703125" y2="0" fill="rgb(0, 0, 0)" stroke="rgb(60, 60, 60)" stroke-width="1px" opacity="0.25"></line></g></g></g><g><g><line x1="0" y1="348" x2="958.703125" y2="348" fill="rgb(0, 0, 0)" stroke="rgb(153, 153, 153)" stroke-width="1.5px"></line></g></g><g><g><line x1="68.47879464285714" y1="0" x2="68.47879464285714" y2="377" fill="rgb(0, 0, 0)" stroke="rgb(153, 153, 153)" stroke-width="1.5px"></line></g></g><g><g><g><g><g><path stroke="rgb(51, 187, 238)" stroke-width="2px" d="M75.44103369419642,342.0975232748315L75.65126359374999,344.10959336860105L75.69372044642857,344.7011385169641L75.72795984375,340.9332087939496L77.02905694196428,341.5664565937101L78.40274156250001,344.2329840641444L78.84237542410713,345.70821125515863L79.92228601562499,344.3468799349254L80.43724655133929,345.70737811876666L81.66781049107142,345.94011606111894L81.81024638392857,345.7887610516877L82.79428666294643,346.5491372898315L82.83605872767856,346.95542645353686L83.52290103794643,347.25805300185084L86.36271665178572,346.6675987984359L88.775909375,344.3542245680677L89.06488988839286,344.55957211677685L89.39153373883929,345.2118812262691L89.41824046875,344.3534590055042L89.60792672991072,345.03591602804346L90.61798895089287,345.4841433875291L91.55683322544643,346.10374457587926L91.86224864955358,346.3230154003237L91.98208654017857,346.31239508627L92.25942565848214,346.4652784161715L92.61962411830358,345.1346851868782L96.2894027232143,345.70583090177126L96.35377279017857,346.1041395702663L97.19606196428572,345.8871054273214L97.53777114955356,346.18027102496285L98.04862295758929,345.11461542445977L98.46223487723213,344.5247519699332L99.94685514508929,343.03491703273494L100.40977179687499,343.9455072722061L100.43031543526786,345.2115292709386L101.18700611607143,345.7904137534419L101.26370236607143,345.8399846868875L101.84166339285714,344.6998666395924L101.92383794642856,345.4587598044957L103.58855744419644,345.45577145167624L105.21013530133929,345.01900058270786L105.452550234375,345.6537779933571L105.5943013392857,345.92210700635815L106.39687281249999,345.2590507492747L107.10973706473213,345.34665192778283L108.02118982142856,345.63925222284905L108.32044215401785,344.55323716384464L111.55606520089286,344.87245586072504L114.03157362723213,345.1751461743908L115.55522680803571,345.54254435231667L116.53652793526786,345.15347005452253L116.73922516741071,344.3133839346104L117.87871231026786,343.32605381210766L119.50987719866072,343.70178884729853L120.27820927455357,344.30850910691277L121.06160668526785,341.9014779972893L121.22184706473215,343.2108576443638L121.5087732142857,342.9801000077259L123.71105124999998,343.36733914688125L124.23970754464287,344.09703223114775L124.60196036830357,342.07269631634983L124.63962370535714,340.78402678555744L125.32235728794642,342.5050217726022L128.88256982142855,341.72549617957714L129.37013883928572,342.1462084966698L130.3767771205357,342.86341307436965L130.52948483258928,343.4539541073176L133.26041916294642,343.57658863693666L133.59459568080356,343.5484762823519L134.75257209821427,344.096462004166L134.81077907366074,342.7331197889335L134.90870375,341.1261264171712L135.172347109375,341.843229911045L135.68182934151787,343.0058167919908L136.04956046875,343.97329467088474L136.51042275669644,344.41868945688304L136.5213793638393,344.82923900529175L136.93910001116072,345.0340637128282L137.11988402901787,344.2643584112512L138.08543503348213,344.71028967668485L138.40933973214285,343.5973248949341L139.33448824776784,344.03901696049076L139.62894706473213,343.69324366077274L140.6396940736607,343.65908527064767L140.71022723214287,343.26542727873294L141.27243813616073,343.25511820823294L142.76048234375,343.61879597804153L143.7260333482143,339.2870504346562L144.3930168080357,341.45358556115315L145.1360117299107,341.1049662287008L145.86051737723216,341.27138361252673L146.7733397098214,342.1136681896363L147.15819053571428,342.03204057101397L147.75943435267857,342.4893884093477L149.17215188616072,342.13426139911496L149.68505805803574,342.18103851503423L151.55932266741073,342.32913855538544L151.81611814732145,342.44096013743894L152.64060283482144,342.1349449557913L154.1430275892857,342.7818858310418L154.43200810267857,342.2992400979898L155.47904887276786,343.48914372341494L155.88170418526784,343.6567433450992L156.2617614955357,342.66715585101394L158.31749491071426,343.70821318804843L158.4133652232143,344.0217617826439L158.46198516741072,344.1085337159352L158.75781356026783,343.8986428440253L164.39772708705357,340.51099386427643L165.49955089285714,341.55192539294114L165.63376933035715,342.35111992627117L167.34573919642858,339.62132623013696L167.35464143973215,339.02599735016724L167.41284841517856,339.85932505476535L168.918697109375,341.6409464305524L168.92212104910715,342.90816814159655L170.788168203125,344.0894107783343L170.8196684486607,344.197002039038L171.17986690848213,343.3729755800562L171.23464994419643,341.2753888757734L171.71057756696428,338.7785348514741L171.87424188616072,338.5980039526537L172.03379747767858,340.69365371570825L173.17739334821428,341.925166598854L174.09090046875,341.7623919006571L174.13130295758927,341.95147424303804L175.78232669642858,342.9257968577791L177.13615246651787,339.10790896940523L178.56393533482142,336.3640646325248L178.63583806919644,337.1041679035394L178.75841511160712,337.7521162055891L178.91865549107143,303.86525046962265L179.93898953125,319.25705014214077L182.60007549107144,327.66096322563385L182.9274041294643,333.94469365039225L183.2650045870536,338.2891069734246L185.0653120982143,339.63946337568166L186.80261911830357,338.6255742658222L187.14980660714284,337.58140914136436L188.05783542410714,338.4406466789202L188.63374208705358,340.6880949477274L188.725503671875,339.9809816678565L188.864515625,339.2723810855419L189.84650154017856,337.10393164359755L189.9574371875,339.91558551801427L191.71528784598212,341.69689587865435L191.86936513392857,340.55154811807967L192.876688203125,341.2266130523741L192.88353608258927,341.84631590127856L193.7758147767857,300.87859291481914L193.85867411830355,317.4365458601591L194.1757309375,328.2435478498117L194.92283458705356,333.05717346397495L197.066220859375,337.613997365996L197.67157340401786,339.5332541033788L197.69896492187502,341.45292413194704L198.03793495535714,341.48458934514065L199.3068470200893,340.26699826084575L199.34724950892857,341.2060950990424L200.01765690848214,338.31642824014455L200.60794411830358,337.7238564281191L200.82844583705355,339.1265583098546L201.0523714955357,341.2452228997642L202.05216189732144,342.021260607436L202.85610294642856,337.8233400989739L203.44365100446427,338.9946301778655L203.47789040178571,340.9492220178545L204.02777512276785,342.02537904055714L204.97209770089285,341.1412252466935L205.6678422544643,339.3300554003452L206.95318922991072,340.5805649468234L209.06370568080357,340.2796722909171L209.1342388392857,342.0797257854258L209.2842073995536,342.9660758392492L210.04226765625,342.80864913561817L211.79600958705356,343.45313453982845L212.42875364955356,340.47708968109237L213.24365130580358,341.22435933764336L213.59905625,340.99525639215443L216.46831774553573,340.4261603347172L217.11201841517857,341.14889372314275L217.49481487723216,341.38100146494963L218.2747883482143,342.11016719783936L218.40215890625,342.21073309180497L219.12392540178573,342.5329075532249L219.2629373549107,340.90376165000146L221.25430070312498,342.4565873307365L222.78206261160716,342.6500999774711L223.20868550223216,341.71691435105663L223.25662065848215,340.1312791416172L223.2764795089286,341.5155689136907L224.51936963169643,342.80997237625564L225.64721537946428,341.569208386915L225.884836796875,342.15320979911957L226.16149112723215,342.1029666877322L226.84970301339285,342.31971364380615L228.40211728794642,337.6169924365681L229.297819921875,339.9012032748581L230.25789262276786,339.2455986619783L230.32500184151786,339.8834670014407L230.333219296875,341.79098896136736L231.05498579241072,341.2105414544097L231.85961162946427,340.2770159490139L232.34170234375,340.5746462876189L233.52843985491072,341.82764708866705L234.23856495535713,341.2004412226083L235.43625907366072,341.0012736037196L236.19500411830356,340.70898897400923L236.39907092633928,342.357800822043L238.338390390625,341.21321913783765L238.72734994419642,341.4784687150121L239.2224516294643,341.2092378676594L239.7401513169643,340.9367466075367L240.72419159598212,341.0503227295367L240.79130081473215,336.8204971243076L241.08918357142855,338.96314233215946L241.27886983258927,338.6612153711754L243.81874832589287,338.3014232360028L244.8164843638393,341.3027568293111L245.81148125,340.3253627040235L246.30178941964286,341.2137460641264L247.11874143973213,340.7203665044724L247.426896015625,342.0342053738203L247.7535398660714,342.87066243112633L247.93843261160714,342.15785036397307L248.87864646205355,342.94769245967166L249.67437005580356,342.3379061219686L251.27951300223214,342.8898438411262L252.14371539062498,339.2731215385977L252.2416400669643,340.1161307504555L252.76276369419642,340.13215651092116L254.02414309151783,340.6804824999105L255.0917275,333.9607366818864L255.15061926339288,335.6936572029399L256.074398203125,339.08120351842535L256.2558670089286,337.2473374668449L256.7680883928571,337.2502939992362L256.98174223214284,331.49424429495417L257.2070374665179,335.31632599389127L257.2707227455357,338.83187969643217L258.77931059151786,336.4454012006124L259.32029306919645,335.6353015245259L260.6254988950893,338.8651672894514L260.8090220647322,340.0463658571843L260.93981656249997,342.02722738761327L261.6389850558036,340.40004014643205L261.82456258928573,339.17052339641555L262.23132662946426,339.41596283020556L263.91864412946427,340.6293791301667L264.00355783482144,342.1178196965974L265.3135571763393,342.6350928956238L266.2996518191964,342.4320613481979L266.41538098214284,340.6539177984524L266.71189416294646,341.1189982114302L267.68634741071423,340.9231604497473L267.94177331473213,341.0639462507272L269.60512323660714,341.8251356897282L270.013941640625,340.0253263036923L270.41317301339285,341.09709892302106L270.85896996651786,340.4118396211675L271.95873940848213,340.01310545244877L273.4796534375,339.6478283035103L274.4739655357143,340.6862039574888L276.53517725446426,340.9463456367794L276.65501514508924,340.4139469013568L277.6185117857143,341.067814489213L277.73150179687497,340.48786371313474L278.62720443080354,341.2760939455804L280.1933144642857,342.3426450660766L280.4103922433036,342.58724864436334L282.01553518973213,342.9741771835127L282.4709191741071,337.81577164042227L283.51795994419643,332.69401057725094L286.522809453125,327.4159972662624L286.82685530133926,331.25532069026804L286.93231264508927,334.6259086946063L287.4376861495536,338.61034338031186L287.55341531249996,339.38768038215625L288.73330494419645,331.46643818058004L289.4975282924107,333.616124072L290.549362578125,335.25800787557637L291.15060639508926,335.25080745383787L293.09334979910716,334.5322620650511L293.36931934151784,335.84878010185844L293.65624549107145,337.994484129964L293.8500404799107,336.5519412195198L294.0719117745536,338.3339056580074L294.4184144754464,338.61333005145536L295.0463650223214,340.0406694737246L295.4058786941965,340.42773490374805L296.09409058035715,335.89467975333645L296.5467354129464,338.73927412735856L297.4061442857143,335.63713608120344L297.6697876450893,337.5991667430667L297.9252135491071,338.1190206935148L300.6561478794643,338.47388012886887L301.33888146205356,337.46366195041446L301.5333612388393,338.81174134147767L301.97025594866074,339.3274405646777L302.4283790848214,341.57078280104434L302.6413481361607,342.6512864285528L303.53705077008925,341.6198986510229L304.35263321428573,339.26034565656136L304.3724920647321,333.35860285394637L305.68386098214285,332.6495581730202L305.91121058035714,334.43399410517486L307.2698298660714,308.7748130444972L307.28900392857145,320.7370839817398L307.39446127232145,329.1193070711537L310.2534509486607,334.0402696316298L311.238176015625,335.0858977092717L311.25871965401785,337.0958176465877L311.3874597879464,338.6428073443203L311.76957146205353,339.9872447421985L313.7588804464286,338.5005883542202L314.56008234375,340.1314746397735L316.80207808035715,340.96548146429666L320.537596328125,341.0253460741669L320.6149773660714,340.32082755597713L321.03338280133926,341.1853492128538L321.4271358705357,342.758976805333L321.70652935267856,342.94739464223306L322.157804609375,340.6081188808377L324.81820578125,335.19441126155823L325.1359473883929,337.04050470735416L327.5450313839286,333.7162080710875L329.271381796875,334.9820743430106L329.46860072544644,337.8241175862222L329.88084306919643,333.38987511185223L331.7023790066964,337.06759952403553L332.022859765625,339.72483156746597L332.157078203125,340.4385874271451L332.49810260044643,342.02829067148616L333.6848401116072,341.31075163550884L333.7457862388393,341.25389771345385L335.36394015625,341.35042531189697L335.4283102232143,323.52375484941825L335.8069979575893,326.046546664467L335.98915155133926,330.22604845039876L337.53951146205355,334.80565277679466L337.6826321428572,336.8454259258133L339.31722097098213,330.02686620185506L339.8403989620536,332.86029654699405L340.78198238839286,336.5026170962771L341.01207113839286,337.65798883311277L341.59824962053574,335.77107890649035L342.1303298549107,335.8138320294225L343.23009929687504,335.22242780534646L343.929952578125,333.711574754913L345.7583363950893,332.85185111793834L346.2328944419643,336.8177695344118L347.0909337388393,337.31525662363936L347.5367306919643,337.84730173354666L347.8277655691964,340.7997281885837L348.0064952232143,333.03722824822034L348.7501749330357,335.7952377500842L349.3774406919643,335.57648847268285L351.3715431919643,336.2978894219772L351.57561,338.4495273679331L352.11864684151783,334.60654844491694L353.24580780133925,338.42377534653406L354.389403671875,339.57585099724326L354.68523206473213,320.67531585924263L356.95051059151785,329.57307510384135L357.51135191964283,332.2603500473989L358.5618166294643,336.1396542400713L359.5246284821428,333.6723511836288L359.6068030357143,329.3602373523329L359.9491970089286,333.2454958608934L360.27036255580356,333.3829265274816L360.99418341517855,335.8982505210169L361.4365564285714,337.69081333326864L361.781004765625,335.97496356321915L362.38087900669643,338.506737535468L362.8472195982143,339.94713441410437L363.986021953125,337.5982963502632L364.65369020089287,335.1146044044332L365.31177141741074,337.46500805965877L365.50693598214286,335.967877576958L366.3862037053571,332.44984830332453L366.7847502901786,329.081952799336L367.44009235491075,330.8194086024022L367.7694753571428,334.96663667746515L368.5932752566964,332.719694849033L369.87519829241074,330.1347226626747L370.2860710602679,330.30205732894376L371.20437169642855,320.08109115548393L373.14779988839285,327.92502250328636L373.5668901116071,333.6493267394154L373.66892351562495,336.84381230038696L374.03802421875,334.29216689832384L375.47470933035714,336.0672302184545L375.8287446986607,333.507449922743L378.17414341517855,330.7954435230986L378.20085014508925,333.0866090771076L378.43847156249996,333.93245187500224L378.7247129241071,335.4492937980539L379.26227146205355,336.06733060455L380.2976708370536,336.62552071817623L381.7713344977679,337.787810073542L382.3814805580357,338.4611300460979L382.54993839285714,336.17724517181426L382.7944076897321,338.3854672234947L382.94780018973216,335.97300810347167L383.09160565848214,337.82291135031085L383.7770783928571,337.09666815974174L383.7996763950893,332.15316573278824L385.2260896875,332.0726979277832L386.23341275669645,325.02988916351217L387.36742159598214,330.8240501468707L389.267023359375,334.82610447095806L390.3161184933036,338.2483430796085L390.5797618526786,331.1390522297155L391.0166565625,334.94970877101605L392.61152768973216,336.9720195953136L395.1644171540178,337.19872850472245L396.21830580357147,336.5600283796758L398.65615089285717,338.7539865593714L398.8835004910714,337.8659541440369L398.99032741071426,339.5890780099399L399.0629149330357,339.41708898220463L400.9303316629464,336.5106136287689L401.5082926897322,334.44069868388414L401.739751015625,329.9663530994215L401.8999913950893,330.2404418607806L402.0609165625,333.3525404912385L402.9894890178571,331.5538487379046L403.16000121651786,334.99418744783355L403.36680717633925,338.6681199414477L403.45103609374996,337.0175559099284L404.8089705915179,337.6127740111659L404.9199062388393,333.68504750008645L407.4275996986607,333.9073027180151L407.50292637276783,336.2182109255502L408.49381453125,330.97934176915345L411.22543364955357,333.3963439551351L413.75161638392854,330.3604610681449L416.9550543973214,330.80461089282716L417.1166643526786,334.6567240109711L418.1856183370536,333.01602841619666L418.67113299107143,335.42807829985924L418.85328658482143,334.8462567008132L420.54128887276784,329.72347810724943L423.2311359263393,289.6767648867343L423.70021566964283,301.1753851554736L424.4089711941964,317.7032554673445L424.40965598214285,326.232249364766L424.90681203125,208.54078563780337L425.3827396540178,257.76690336901396L425.80662339285715,285.3874331852105L426.52838988839284,305.40729732604666L427.6226810267857,314.14560444379947L428.353349765625,324.3160485765344L429.10456214285716,327.2020742962364L429.31958555803567,330.7677530903878L430.3262238392857,328.4793129330434L430.62205223214283,324.443223988447L430.7364118191964,325.19314496468513L433.8494578236607,326.6270805120528L434.1110468191964,331.86032430164875L436.904981640625,332.58852902625716L437.576073828125,331.49482196166946L437.86231518973216,332.7909376924922L437.96503338169646,331.9016385171229L438.6279081138393,331.96529475858296L439.51333892857144,328.8921897859006L440.0906151674107,329.39983296845134L440.2549642745536,328.70650770785676L440.61379315848217,328.673320867999L441.17737363839285,332.3482942862115L441.47868033482143,331.8296402570785L442.53119940848217,317.1312199280966L443.03177939732143,321.8425669340079L445.06765396205356,326.54451658682734L446.2400109263393,331.36528124574846L446.8385155915179,326.19685135581506L448.63129043526783,319.07830390661013L450.07413863839287,324.6661528964582L450.89314502232145,324.4722007793035L451.592313515625,328.94812055121935L451.7737823214286,327.89686506429956L454.22395359374997,328.4514787491539L455.1600587165179,332.34925254561773L456.4406121763393,333.3924621723787L456.7069946875,335.44907775269127L456.7761582700893,332.3903694599639L457.08431284598214,332.82046591042104L457.608175625,328.72098395555395L457.65200205357144,326.847485192592L458.0676683370536,322.0335974293798L458.2258543526786,322.012884390226L458.2970722991071,253.98997973911224L458.38267079241075,280.95183075822746L460.53222015625,284.32488000903936L461.927133203125,302.37234018975147L462.18940698660714,313.744181720815L462.3078753013393,315.7322477465283L462.89062984375,323.4774103531487L463.30150261160713,324.7573622968344L464.03011698660714,324.1518570769756L464.12804166294643,324.9160738878804L464.92239568080356,326.65436461081254L465.1038644866071,329.44228401935186L465.81809831473214,333.85010800156647L467.7868636607143,333.97977792259246L468.4264556026786,332.2924672218334L469.20300513392857,334.04990856958455L470.7615825,335.96953254334943L471.01495404017857,336.900627063321L473.41855973214285,328.7751421952885L474.6450149441964,325.4680330499793L474.97919146205356,329.86583474768906L475.722871171875,330.4094577088577L476.06458035714286,327.7738963934554L476.3501369308036,330.0949173650309L476.44395287946423,333.4819813441434L477.1485996763393,330.2973869559883L477.5759073549107,325.07925311134574L478.3476633705357,315.3489202344794L478.8030473549107,323.7438306456434L478.82701493303574,325.10427433673306L478.8790588169643,329.5615055139289L479.1831046651786,324.11937234106216L479.6960108370535,326.7711378741417L481.8174838950893,331.86177098911423L483.6766831696429,329.7894149827148L486.0631691629464,332.9706148323229L486.0754953459821,335.53899489890404L486.4165197433036,328.41390727490705L487.16773212053573,328.0835750656159L489.0207683035714,325.99521116357033L490.85463042410714,324.0629100155293L492.20023873883923,318.7446100220954L492.4556646428572,326.1641840953157L493.5657059040179,329.99488546809704L494.7202583816964,330.20822890169114L496.41373897321427,325.93136461565905L497.332039609375,324.67268268162024L502.0111956473215,327.44655745487813L502.22964300223214,331.2146365263248L502.33783949776785,335.8954979072919L503.04317108258925,332.5954643996603L503.6245560491071,333.0016815848378L503.9525694754464,334.48563824294376L504.5394327455357,321.77058220474936L507.3929441183036,326.9871390689553L507.64905481026784,326.95241028244146L508.58652950892855,331.40853864841074L510.6943068080358,333.31772987480406L513.3190990066964,330.66585049888755L513.3458057366072,332.06856765813393L514.6434788950893,333.5851885927722L514.8413826116072,332.67866402509844L515.7062697879464,334.1217226074221L517.0963893191964,333.8306484027852L517.3292172209822,333.6885602908819L517.8729388504464,334.20770794674695L518.6200425,336.8112902680036L518.9103925892857,336.71934052789186L519.794453828125,335.81362357875093L520.8654621763393,336.6717014965587L521.7844476004465,335.93790744734844L522.96296765625,336.8996708996179L523.7580064620536,332.8568975095202L524.5297624776786,334.2881388762146L525.8151094531249,336.2480753547579L526.1937971875,337.8656476079899L526.7190295424107,337.62954220969846L527.3654693638393,335.1626705694161L528.9959494642857,330.01352526354566L529.5095404241072,330.99497874964936L529.669096015625,333.3672227629403L530.7770829129464,334.0887300666201L530.9085621986607,331.53754994324015L531.2927282366071,333.7683829303155L532.2096592968751,334.6012630960685L532.2986817299108,326.59069645263804L532.3801714955357,328.1400818630043L532.4931615066964,328.61694775247474L532.8115879017857,326.3337689889902L533.0608507142857,204.606440094318L535.8075351674107,258.3180983590073L538.5446325892857,277.37010110479514L539.1965507142856,302.9670048978145L540.1004708035714,309.0656336501965L541.948713470982,315.3098993632632L542.2815204129464,322.94770153364163L542.303433627232,327.93993860632554L544.2119376339285,329.3463490957044L544.6145929464286,331.01611627662317L544.8282467857142,328.7252767936834L545.286369921875,291.8453621123104L545.9280162276785,310.01428088643365L546.2539752901786,320.07230005769856L546.5922605357143,293.97450389926985L546.9641003906249,310.4589930517397L547.1572105915178,318.33727026986605L549.3136078348214,308.84234465365125L549.3944128125,314.5037269097836L550.1764406473214,322.4063341440124L550.3661269084821,326.24357558467165L550.93792484375,329.0861140105318L551.0687193415179,327.12680265982095L551.1830789285714,325.53380929040395L552.4519909933035,324.9004238820522L553.435346484375,326.35962053695016L554.4104845200892,328.75443788429317L554.9247602678572,322.37948634660376L555.0713048883928,324.39671638867935L557.366029296875,327.571404458652L557.7659454575893,325.6052805194676L558.8068231361607,323.3857531717074L559.8915272433036,325.37946635905814L561.3241036272321,330.44614166125007L561.4398327901786,328.4348704195282L561.6288342633928,318.2934803501523L562.7916041964286,319.9239047578428L563.6715567075893,325.438134244022L564.2912897991072,319.1891320219262L564.8158373660714,319.2165573981776L565.2677974107143,327.0532341821417L565.6403220535714,312.87395338555723L566.1730870758929,319.3891048198375L566.7407762834821,326.9500649960597L567.1763014174107,322.900670569644L567.6645552232143,322.7342389652166L567.7309796540178,323.3759429948946L568.3555062611607,329.0277874118042L570.7433618303571,324.3234968019099L571.1864196316965,326.5388232414467L571.7472609598213,319.3079490449752L573.7619070982142,324.2457642554775L573.8118966183036,326.8949355393371L574.258378359375,332.2107097005678L574.6220007589286,333.78328285415967L574.6329573660714,333.9273783679306L574.6904795535714,333.85719532164933L576.2059152790179,333.29382640953656L576.6126793191964,328.69823612174866L577.6583505133929,330.5127417111485L579.171731875,324.6572038390689L579.2463737611607,329.8779692461165L579.962661953125,326.3648067584677L580.0496300223214,316.3656827432539L581.362368515625,310.6485320670978L582.5621169977678,311.39010012856573L583.3845473214285,320.78980463869243L583.4838415736607,324.3834765561037L584.5569042857143,330.49496330925L585.1156912499999,330.19616273855075L585.5128682589285,306.0953331131631L587.9952245647321,307.15216357045733L588.9662538727679,306.09486471434457L588.9751561160714,314.8201858755649L589.0395261830357,314.34867690245517L589.6709006696428,319.8114824354065L589.6948682477679,322.7356128884502L590.0228816741071,322.69288447905467L590.4851135379464,320.09059638177683L591.1267598437499,322.91563419935306L591.1548361495536,324.9776031997037L593.1537321651786,329.21641427285863L593.5111914732144,322.37132675205106L593.6611600334821,325.13866699862143L593.7043016741071,326.39577051104703L594.1679031138392,328.89936266974564L594.4336008370535,315.5849782117364L595.905894921875,320.1320457831417L596.7324339732144,324.4773348577556L598.10611859375,317.3948586423836L598.9538860714285,322.06278295157205L599.596901953125,319.5511022081247L600.3960494866071,323.9963019159598L600.8007591629464,316.2311487401821L601.418437890625,-85.68067668644807L602.6380452232142,73.78455458272572L602.9913958035714,176.99404179417536L603.51320421875,240.47297811575797L604.3596021205357,273.33220845799485L605.5367526004464,297.72270541766784L608.014315390625,302.72556990164225L608.0978595200893,306.11865369545046L608.7559407366072,318.48330580482855L609.7920248995536,320.7974348532556L609.8652972098214,317.97502674266093L610.0488203794642,323.2186572453641L613.7548927455357,308.24781597562213L615.9311488392857,315.44303152953137L616.4303592522322,322.5109607040557L616.7843946205357,324.3699707878931L616.805623046875,321.1216018642964L617.1439082924107,322.1262563092102L617.2164958147322,323.2960094375962L617.5013676004464,328.47054909921013L617.6075097321428,320.41232505146456L617.9923605580357,318.10672627808924L619.0948691517858,320.78880284084244L619.7940376450892,320.9059279313884L620.3569333370536,324.25539265803707L621.2389402120535,326.54520646993643L621.3279626450893,329.893634513851L621.5518883035714,331.7488663365459L622.260643828125,329.9419939246783L624.8683163281249,332.01411217761097L626.4440133928572,330.8947230529014L626.5953515290179,325.9248736039533L627.3869663950893,325.6893938249787L627.6492401785714,329.09492843845135L627.7211429129464,323.7767656326213L628.5127577790179,325.8128909769606L628.5387797209821,331.2182942824335L628.7640749553572,325.56117174010103L629.1982305133929,326.50674108553306L630.5883500446429,328.40093293570504L632.0935139508929,329.16591787804975L632.6666814620536,324.72005335372575L634.9079924107143,327.63012881134085L636.2111438727678,329.7463306087502L637.2020320312499,330.55540745322395L638.8359360714286,332.05866340541536L639.4919629241072,334.42641764204916L640.5732430915178,327.47104639602435L641.9352863169643,324.95584709520773L642.7570318526786,327.4104860690274L643.4055260379464,330.1834489460014L643.5842556919644,332.4800118956103L643.9266496651786,325.2576166303834L644.0190960379464,329.5126331515241L644.7264819866072,331.10753950802257L647.9490940625,330.9101829749511L651.4942412611607,331.27190467847385L652.0050930691965,331.7456596740067L654.5264822879464,331.58532112303254L655.307140546875,333.92210782446193L655.5262726897322,326.90298674480755L656.7534126897322,331.1272981910505L657.2546774665178,332.5604551865815L658.2530982924106,333.12741082737796L658.9823974553572,331.51650553244326L659.1926273549108,334.46042991495415L660.2403529129465,322.8995030228274L661.1757732477679,321.88922702097756L663.2780722433035,326.56995602815664L664.3874287165179,329.627481224354L665.1578151562501,331.90307896492834L665.1639782477679,328.2632260957834L666.5582065066965,333.0921978735612L667.8777928794643,334.12190351985015L670.2300394754465,328.3871641895301L670.3190619084821,327.9785420874433L671.3147435825892,332.1019380531267L672.429578359375,331.56123475382066L673.849828560268,329.49500941127144L675.0954578348213,334.71139424787225L675.3673186495536,332.38285800886905L675.6912233482143,332.72669642760013L676.0219759263392,330.5373595004896L676.3273913504464,334.77411088991875L676.9272655915179,336.51930182590314L677.0361468750001,334.6943344483628L677.3422470870536,337.15096373356005L679.0165536160714,335.4989735394515L679.0549017410715,335.91004023312314L680.2929983482143,331.0015307745861L681.5228774999999,332.7144885074512L681.9755223325893,332.90949024030067L682.6623646428571,333.8444706306964L683.8497869419642,336.8893100202L684.0483754464286,332.7999976436744L687.1607366629464,333.6818021154672L687.5127176674107,334.3797113227111L687.7071974441964,326.67514051063426L687.8797640066965,330.6335788939212L688.4474532142857,333.8432913712451L688.9137938058036,327.22848887096575L689.8067572879464,331.4104133507653L690.8428414508929,332.12252718872094L691.555705703125,334.72583972091235L694.9940259821428,330.915797976701L695.8506957031251,328.2440439302019L696.2430791964285,328.2956389047677L697.6797643080357,331.8465045449421L697.7112645535714,332.67822942479165L698.2118445424107,334.3446164870632L700.0183151450892,333.2709338810666L700.6743419977678,332.2348881883397L701.4775982589287,333.31201173800076L702.27880015625,330.21076754443556L703.0252190178571,325.32106538243715L704.4283495200893,328.52422287540213L704.61803578125,331.4372904969846L705.1864097767858,334.8869372203108L706.4135497767857,336.1988972906266L706.9990434709821,336.42534261846504L707.2955566517858,336.92818313332776L707.6324723214286,337.26469661998675L707.8481805245536,338.52635232036073L708.0070513281249,339.6018452740446L710.0449802566964,338.9027156567118L711.6069815625,338.1228335401738L712.0260717857143,339.16724006057234L715.3815327232143,332.6989752901819L716.2087565625,331.2113801421658L717.3201673995536,332.520317255374L717.7947254464285,330.8225400381781L718.4692415736607,334.20371374799294L720.5489425669643,332.01247356199315L721.3001549441965,334.3480533479934L722.579338828125,330.8614664640597L722.9902115959821,333.12702228898235L724.0721765513393,333.1732970872487L725.3445125558036,336.0930496028939L726.3189658035715,334.807983943634L726.7250450558035,337.3500286251681L728.2521221763393,338.92746798532465L729.7401663839286,340.14635434165456L729.8839718526785,339.72863326170955L730.3208665625,335.70653452246734L730.9700455357142,338.19031401064603L732.7977445647322,335.5871452351606L733.3305095870536,334.8957837393997L735.2232634709821,326.70018396354425L736.1490967745536,328.03701158509676L736.2394887834822,333.9208786339821L738.9293358370536,337.2351582241065L739.4874380133929,330.3492454494242L739.8544843526786,325.91405905814196L740.7542957142857,331.35413399431843L741.6164437388393,331.96324202772223L743.2318585044643,332.9547540268674L743.287326328125,335.8224909750446L745.7347584486607,333.690739218761L746.3688720870535,331.8089837666568L746.5154167075892,331.9488948120902L746.5366451339286,331.67232851962626L746.9221807477678,329.43763250279653L747.5604031138392,332.1312872613563L748.1335706250001,335.1051992882844L748.2273865736606,333.35566372630336L748.3075067633929,336.6563201387664L749.3620802008929,333.63176661446334L749.4100153571429,336.21966477313424L749.8859429799106,338.6990173735695L750.0016721428572,333.53270348331193L750.1728691294643,331.8044080416612L750.3735119977679,335.3135610296727L751.3965851897321,337.45256181802756L752.7620523549107,337.2347226131493L754.6048167187499,337.31540213866737L755.0019937276785,338.1663639230651L755.1218316183035,334.2493501392378L755.6251507589286,337.97229667603216L756.0243821316964,334.76389247685216L756.9050194308036,337.2623871278587L757.7048517522322,336.2948505892946L758.2239210156249,339.3414486059304L758.7381967633929,338.5020050515983L759.4743438058035,337.09722407148803L760.8247456361607,336.30734101376845L761.6540238392857,332.9539754051978L761.6841545089286,332.3399446686515L762.8482940178571,331.22896500560097L762.8866421428572,334.3190286763457L763.3125802455357,331.0782637913792L763.3790046763393,330.00321243970205L765.653870234375,329.3642206967986L766.1256891294643,329.0765605453322L767.6205812165178,331.1872199682099L768.4799900892857,329.48174105332504L769.1825825223214,324.1431614279521L769.3777470870536,328.91111036209895L770.7945733482143,328.26030098389765L772.4360100558035,331.2307026013206L776.9398603794643,330.1886296890361L777.4657775223214,332.33408878056304L781.6012119308035,333.9297029558307L781.9620951785714,331.38125846585547L783.6980326227679,331.35999420986127L783.7754136607143,329.594550087038L784.2705153459821,332.30263417153554L784.3841901450893,329.03202263825534L784.4280165736607,326.51811918803094L786.0078223660714,327.1600975099983L786.0769859486608,332.4219843233396L786.7617738950893,331.83534036560474L787.0117214955357,334.60400435132453L787.2322232142858,336.0759365658621L787.6437807700893,332.8343308151162L787.6615852566964,335.745329900035L788.5052440066964,336.7330051181905L791.84084609375,336.0261545803066L791.8867268861607,327.9709708497474L793.1912479241071,331.6282907094389L793.5507615959821,329.6986813420552L794.4211270758929,326.2847684934436L794.5834218191965,328.8266937622248L794.6375200669643,333.08470765583627L794.7922821428572,335.9285966751451L795.4044825669642,337.28647342644484L795.7078436272321,337.07656164957496L795.8489099441964,337.149379328599L796.0283243861606,336.10095632565645L797.2849102678571,332.68331691320316L797.9155999665178,335.8159752104913L798.2217001785714,304.072790063276L798.9749669196428,319.3498150441671L798.9770212834821,323.56768082878733L799.1523269977679,321.3963905173644L800.14321515625,329.08483318004636L800.4671198549107,330.24151647322554L800.6246210825893,330.00205667306886L801.4244534040179,330.3548645734185L801.432670859375,324.26573676373926L802.563940546875,332.1562863540284L804.4827163727679,331.50175064662886L804.5429777120536,329.5853053591239L804.839490892857,330.455293641185L804.9168719308036,332.97194813158825L806.274121640625,331.52779562155433L806.2939804910715,332.23942172455804L806.7808647209821,332.857730512637L807.2862382254464,336.8992632689733L807.8121553683036,332.1008187241947L808.1127772767858,330.71122440517513L808.431203671875,332.8547364909683L809.1159916183036,336.2851709806463L809.1851552008928,335.06747274151684L809.226927265625,337.06164405450966L810.9060273102679,331.89447234693614L810.9409514955356,333.68208625241186L811.1621380022322,334.35166185542386L811.2354103125,334.4319678243663L811.6551853236607,325.98942367563643L812.754954765625,329.2246719171405L813.46918859375,334.45366158044635L813.7848758370535,333.22235056955395L813.8964962723214,326.40321791141497L813.9526488839285,325.8821898667173L814.4525440848214,329.2332293416951L814.8579385491072,330.9036433674928L815.0051679575893,328.5235053481481L815.2243001004465,328.1109463949097L816.4500705245536,322.1228954332526L817.1286953794643,248.0420770846281L818.4996408482143,279.4806746648236L819.4603983370536,304.2867432005843L819.561746953125,314.9438196222568L819.9917937834822,322.56249355528263L820.0582182142857,329.43428117895724L820.5964615401786,329.843952113328L820.6745273660714,322.6643677124009L820.9922689732142,322.2537940900699L822.1228538727678,329.5648169844553L822.94117546875,334.25001510406764L823.4705165513393,331.83139012634894L823.7389534263392,335.2084997833081L823.93822671875,333.7567231127804L825.9487641294643,331.53396998460204L826.2048748214286,331.70188323625985L826.8232383370536,334.2918561948482L827.2471220758929,326.7537733839836L827.8449419531249,255.87591964762726L828.1818576227678,290.23238896287273L828.4639902566964,310.869367826845L829.0659188616071,319.5182440266703L829.3638016183036,328.9711527724605L829.6849671651786,333.8195057898487L830.1335032700894,334.4784553544059L830.3546897767858,335.6265401051989L832.0995294642858,336.4595861304731L832.3056506361606,337.28534462788286L832.4699997433036,338.36410834484445L833.041112890625,331.7240641480276L833.2951692187501,332.35817566755946L835.0091934486607,334.9949372730764L835.0899984263393,337.8833489192791L835.9939185156251,338.5171753181975L836.05623421875,340.0420749650276L836.8841428459822,330.59726188575485L838.2215337053572,331.6075183011309L839.5342721986608,331.1501020495424L840.4149094977678,334.5790008886504L840.7915428683036,336.0392651451437L841.1359912053571,333.9766273427193L842.3747726004464,330.2697059052101L844.3565489174107,332.04518463384574L844.7290735602678,333.04612284553923L844.9447817633929,324.87112145216986L845.16391390625,328.1728284885986L845.6172435267857,326.5138395223322L846.2061611607143,329.1902956988396L849.6170899218749,332.77122961251325L849.7006340513392,335.11984624538354L850.9359915066964,335.7944794562371L852.9561159486607,336.7206143467523L853.8668839174106,334.88486995645746L854.3072025669643,335.005054957261L854.6893142410714,333.3830334210934L856.9114511272321,336.0893379976327L858.4474304910714,338.2158680315301" style="fill: none;" fill="none"></path></g></g></g></g><g opacity="0.2"><g><g><g><path stroke="rgb(51, 187, 238)" stroke-width="2px" d="M75.44103369419642,342.0975232748315L75.65126359374999,345.3168354248628L75.69372044642857,345.2690218593925L75.72795984375,336.5021234396845L77.02905694196428,342.3932249210775L78.40274156250001,347.92175150564435L78.84237542410713,347.8178097419441L79.92228601562499,342.3620458012447L80.43724655133929,347.71384867676534L81.66781049107142,346.2857047813013L81.81024638392857,345.56310131633654L82.79428666294643,347.6855637131375L82.83605872767856,347.5635335944826L83.52290103794643,347.7113999474095L86.36271665178572,345.78261155006476L88.775909375,340.8857947932556L89.06488988839286,344.86750654364005L89.39153373883929,346.1901792692952L89.41824046875,343.06595644634217L89.60792672991072,346.0595391825773L90.61798895089287,346.156459844904L91.55683322544643,347.0331259701634L91.86224864955358,346.65191730787046L91.98208654017857,346.2964647409972L92.25942565848214,346.6946023243945L92.61962411830358,343.13880101731047L96.2894027232143,346.5625480127055L96.35377279017857,346.7016019615112L97.19606196428572,345.56155441282317L97.53777114955356,346.62001925939694L98.04862295758929,343.51613237708807L98.46223487723213,343.63995690550655L99.94685514508929,340.8001648047939L100.40977179687499,345.31139256618917L100.43031543526786,347.11056221462786L101.18700611607143,346.65874046226963L101.26370236607143,345.9143410862889L101.84166339285714,342.9896895792335L101.92383794642856,346.59709954762366L103.58855744419644,345.451288922457L105.21013530133929,344.36384428013116L105.452550234375,346.6059441085672L105.5943013392857,346.324600525666L106.39687281249999,344.26446636393666L107.10973706473213,345.47805369552225L108.02118982142856,346.07815266540274L108.32044215401785,342.9242145754397L111.55606520089286,345.3512839060277L114.03157362723213,345.6291816448793L115.55522680803571,346.093641619198L116.53652793526786,344.56985860783607L116.73922516741071,343.0532547547482L117.87871231026786,341.84505862835795L119.50987719866072,344.2653914000839L120.27820927455357,345.21858949633315L121.06160668526785,338.2909313328564L121.22184706473215,345.1749271149747L121.5087732142857,342.6339635527693L123.71105124999998,343.9481978556141L124.23970754464287,345.1915718575474L124.60196036830357,339.03619244415313L124.63962370535714,338.8510224893689L125.32235728794642,345.0865142531693L128.88256982142855,340.5562077900395L129.37013883928572,342.77727697230875L130.3767771205357,343.93921994091943L130.52948483258928,344.3397656567395L133.26041916294642,343.76054043136537L133.59459568080356,343.50630775047466L134.75257209821427,344.9184405868873L134.81077907366074,340.6881064660847L134.90870375,338.7156363595277L135.172347109375,342.91888515185565L135.68182934151787,344.74969711340964L136.04956046875,345.42451148922555L136.51042275669644,345.08678163588047L136.5213793638393,345.4450633279048L136.93910001116072,345.34130077413283L137.11988402901787,343.10980045888573L138.08543503348213,345.37918657483533L138.40933973214285,341.92787772230804L139.33448824776784,344.70155505882576L139.62894706473213,343.17458371119574L140.6396940736607,343.60784768546L140.71022723214287,342.67494029086083L141.27243813616073,343.2396546024829L142.76048234375,344.16431263275445L143.7260333482143,332.7894321195781L144.3930168080357,344.70338825089857L145.1360117299107,340.58203723002225L145.86051737723216,341.5210096882656L146.7733397098214,343.37709505530074L147.15819053571428,341.9095991430804L147.75943435267857,343.17541016684845L149.17215188616072,341.6015708837658L149.68505805803574,342.2512041889131L151.55932266741073,342.5512886159122L151.81611814732145,342.6086925105192L152.64060283482144,341.6759221833199L154.1430275892857,343.75229714391753L154.43200810267857,341.5752714984119L155.47904887276786,345.27399916155264L155.88170418526784,343.90814277762547L156.2617614955357,341.1827746098861L158.31749491071426,345.2697991936002L158.4133652232143,344.4920846745372L158.46198516741072,344.2386916158721L158.75781356026783,343.5838065361604L164.39772708705357,335.4295203946531L165.49955089285714,343.11332268593833L165.63376933035715,343.54991172626615L167.34573919642858,335.5266356859356L167.35464143973215,338.13300403021276L167.41284841517856,341.1093166116625L168.918697109375,344.3133784942329L168.92212104910715,344.8090007081628L170.788168203125,345.86127473344095L170.8196684486607,344.3583889300935L171.17986690848213,342.13693589158356L171.23464994419643,338.1290088193491L171.71057756696428,335.0332538150251L171.87424188616072,338.32720760442317L172.03379747767858,343.8371283602901L173.17739334821428,343.77243592357263L174.09090046875,341.51822985336185L174.13130295758927,342.2350977566093L175.78232669642858,344.3872807798907L177.13615246651787,333.3810771368444L178.56393533482142,332.2482981272042L178.63583806919644,338.2143228100613L178.75841511160712,338.72403865866363L178.91865549107143,253.03495186567307L179.93898953125,342.34474965091795L182.60007549107144,340.26683285087347L182.9274041294643,343.3702892875299L183.2650045870536,344.8057269579731L185.0653120982143,341.66499797906727L186.80261911830357,337.104740601033L187.14980660714284,336.0151614546776L188.05783542410714,339.72950298525393L188.63374208705358,344.05926735093817L188.725503671875,338.92031174805015L188.864515625,338.20948021207005L189.84650154017856,333.85125748068094L189.9574371875,344.1330663296394L191.71528784598212,344.3688614196144L191.86936513392857,338.8335264772177L192.876688203125,342.23921045381576L192.88353608258927,342.7758701746352L193.7758147767857,239.42700843513012L193.85867411830355,342.2734752781689L194.1757309375,344.4540508342907L194.92283458705356,340.2776118852198L197.066220859375,344.4492332190275L197.67157340401786,342.412139209453L197.69896492187502,344.3324291747995L198.03793495535714,341.532087164931L199.3068470200893,338.44061163440347L199.34724950892857,342.6147403563373L200.01765690848214,333.98192795179784L200.60794411830358,336.834998710081L200.82844583705355,341.23061113245785L201.0523714955357,344.4232197846286L202.05216189732144,343.1853171689436L202.85610294642856,331.5264593362808L203.44365100446427,340.7515652962029L203.47789040178571,343.881109777838L204.02777512276785,343.6396145746112L204.97209770089285,339.814994555898L205.6678422544643,336.6133006308228L206.95318922991072,342.4563292665407L209.06370568080357,339.8283333070576L209.1342388392857,344.7798060271889L209.2842073995536,344.2956009199843L210.04226765625,342.5725090801716L211.79600958705356,344.4198626461439L212.42875364955356,336.0130223929882L213.24365130580358,342.34526382246986L213.59905625,340.65160197392106L216.46831774553573,339.57251624856144L217.11201841517857,342.232993805781L217.49481487723216,341.7291630776599L218.2747883482143,343.203915797174L218.40215890625,342.3615819327533L219.12392540178573,343.01616924535483L219.2629373549107,338.4600427951664L221.25430070312498,344.78582585183904L222.78206261160716,342.940368947573L223.20868550223216,340.3171359114349L223.25662065848215,337.752826327458L223.2764795089286,343.5920035718009L224.51936963169643,344.7515775701031L225.64721537946428,339.70806240290403L225.884836796875,343.02921191742644L226.16149112723215,342.0276020206511L226.84970301339285,342.64483407791704L228.40211728794642,330.5629106257111L229.297819921875,343.3275195322931L230.25789262276786,338.2621917426586L230.32500184151786,340.84026951063424L230.333219296875,344.65227190125734L231.05498579241072,340.3398701939732L231.85961162946427,338.87672769092023L232.34170234375,341.02109179552644L233.52843985491072,343.7071482902393L234.23856495535713,340.2596324235201L235.43625907366072,340.70252217538655L236.19500411830356,340.2705620294437L236.39907092633928,344.8310185940936L238.338390390625,339.4963466115296L238.72734994419642,341.87634308077395L239.2224516294643,340.8053915966302L239.7401513169643,340.5280097173527L240.72419159598212,341.2206869125366L240.79130081473215,330.47575871646404L241.08918357142855,342.17711014393717L241.27886983258927,338.2083249296993L243.81874832589287,337.7617350332439L244.8164843638393,345.8047572192736L245.81148125,338.8592715160921L246.30178941964286,342.54632110428065L247.11874143973213,339.9802971649915L247.426896015625,344.00496367784217L247.7535398660714,344.12534801708534L247.93843261160714,341.0886322632432L248.87864646205355,344.13245560321957L249.67437005580356,341.423226615414L251.27951300223214,343.71775041986257L252.14371539062498,333.848038084805L252.2416400669643,341.38064456824213L252.76276369419642,340.1561951516196L254.02414309151783,341.5029714833945L255.0917275,323.8811179548502L255.15061926339288,338.2930379845202L256.074398203125,344.16252299165353L256.2558670089286,334.49653838947415L256.7680883928571,337.2547287978232L256.98174223214284,322.8601697385311L257.2070374665179,341.0494485422969L257.2707227455357,344.10521025024354L258.77931059151786,332.86568345688283L259.32029306919645,334.4201520103961L260.6254988950893,343.7099659368396L260.8090220647322,341.8181637087837L260.93981656249997,344.99851968325675L261.6389850558036,337.9592592846602L261.82456258928573,337.3262482713908L262.23132662946426,339.78412198089063L263.91864412946427,342.4495035801083L264.00355783482144,344.3504805462435L265.3135571763393,343.41100269416347L266.2996518191964,342.1275140270591L266.41538098214284,337.98670247383416L266.71189416294646,341.8166188308969L267.68634741071423,340.62940380722284L267.94177331473213,341.2751249521971L269.60512323660714,342.96691984822974L270.013941640625,337.32561222463846L270.41317301339285,342.70475785201415L270.85896996651786,339.3839506683871L271.95873940848213,339.41500419937074L273.4796534375,339.0999125801027L274.4739655357143,342.2437674384564L276.53517725446426,341.33655815571547L276.65501514508924,339.61534879822284L277.6185117857143,342.0486158709973L277.73150179687497,339.61793754901737L278.62720443080354,342.4584392942488L280.1933144642857,343.94247174682096L280.4103922433036,342.95415401179343L282.01553518973213,343.5545699922368L282.4709191741071,330.0781633257866L283.51795994419643,325.0113689824939L286.522809453125,319.49897729977965L286.82685530133926,337.01430582627654L286.93231264508927,339.68179070111364L287.4376861495536,344.5869954088703L287.55341531249996,340.55368588492274L288.73330494419645,319.5845748782158L289.4975282924107,336.84065290912986L290.549362578125,337.72083358094096L291.15060639508926,335.24000682123005L293.09334979910716,333.454443981871L293.36931934151784,337.82355715706944L293.65624549107145,341.2130401721224L293.8500404799107,334.38812685385346L294.0719117745536,341.0068523157388L294.4184144754464,339.03246664162725L295.0463650223214,342.18167860712856L295.4058786941965,341.00833304878324L296.09409058035715,329.095097027719L296.5467354129464,343.0061656883918L297.4061442857143,330.98392901197076L297.6697876450893,340.54221273586154L297.9252135491071,338.898801619187L300.6561478794643,339.00616928189993L301.33888146205356,335.9483346827328L301.5333612388393,340.8338604280725L301.97025594866074,340.10098939947784L302.4283790848214,344.9357961555943L302.6413481361607,344.27204186981544L303.53705077008925,340.072816984728L304.35263321428573,335.72101616486907L304.3724920647321,324.50598865002394L305.68386098214285,331.5859911516309L305.91121058035714,337.1106480034068L307.2698298660714,270.2860414534807L307.28900392857145,338.68049038760364L307.39446127232145,341.6926417052746L310.2534509486607,341.421713472344L311.238176015625,336.6543398257345L311.25871965401785,340.11069755256176L311.3874597879464,340.9632918909192L311.76957146205353,342.00390083901584L313.7588804464286,336.2706037722528L314.56008234375,342.57780406810343L316.80207808035715,342.2164917010814L320.537596328125,341.11514298897237L320.6149773660714,339.2640497786924L321.03338280133926,342.4821316981688L321.4271358705357,345.11941819405183L321.70652935267856,343.2300213975832L322.157804609375,337.0992052387446L324.81820578125,327.0738498326391L325.1359473883929,339.80964487604797L327.5450313839286,328.72976311668754L329.271381796875,336.88087375089526L329.46860072544644,342.08718245103955L329.88084306919643,326.7385114002973L331.7023790066964,342.5841861423105L332.022859765625,343.7106796326116L332.157078203125,341.5092212166637L332.49810260044643,344.4128455379978L333.6848401116072,340.23444308154285L333.7457862388393,341.1686168303713L335.36394015625,341.49521670956165L335.4283102232143,296.7837491557002L335.8069979575893,329.83073438704014L335.98915155133926,336.4953011292964L337.53951146205355,341.6750592663884L337.6826321428572,339.90508564934134L339.31722097098213,319.7990266159177L339.8403989620536,337.1104420647025L340.78198238839286,341.9660979202017L341.01207113839286,339.3910464383662L341.59824962053574,332.94071401655674L342.1303298549107,335.8779617138207L343.23009929687504,334.33532146923244L343.929952578125,331.44529517926276L345.7583363950893,331.5622656624764L346.2328944419643,342.76664715912193L347.0909337388393,338.0614872574806L347.5367306919643,338.64536939840764L347.8277655691964,345.2283678711392L348.0064952232143,321.39347833767533L348.7501749330357,339.93225200288L349.3774406919643,335.2483645565808L351.3715431919643,337.37999084591866L351.57561,341.6769842868671L352.11864684151783,328.8420800603926L353.24580780133925,344.1496156989597L354.389403671875,341.30396447330713L354.68523206473213,292.3245131522417L356.95051059151785,342.9197139707394L357.51135191964283,336.2912624627352L358.5618166294643,341.95861052908003L359.5246284821428,329.97139659896493L359.6068030357143,322.8920666053891L359.9491970089286,339.0733836237341L360.27036255580356,333.5890725273639L360.99418341517855,339.6712365113199L361.4365564285714,340.37965755164623L361.781004765625,333.40118890814483L362.38087900669643,342.3043984938413L362.8472195982143,342.10772973205894L363.986021953125,334.07503925450146L364.65369020089287,331.3890664856881L365.31177141741074,340.99061354249716L365.50693598214286,333.72218185290694L366.3862037053571,327.17280439287424L366.7847502901786,324.0301095433533L367.44009235491075,333.42559230700135L367.7694753571428,341.1874787900597L368.5932752566964,329.34928210638463L369.87519829241074,326.2572643831372L370.2860710602679,330.55305932834744L371.20437169642855,304.7496418952942L373.14779988839285,339.69091952499L373.5668901116071,342.2357830936089L373.66892351562495,341.6355406418443L374.03802421875,330.4646987952292L375.47470933035714,338.72982519865036L375.8287446986607,329.6677794791758L378.17414341517855,326.7274339236319L378.20085014508925,336.5233574081212L378.43847156249996,335.2012160718441L378.7247129241071,337.7245566826314L379.26227146205355,336.9943858142942L380.2976708370536,337.46280588861555L381.7713344977679,339.53124410659075L382.3814805580357,339.4711100049317L382.54993839285714,332.75141786038876L382.7944076897321,341.6978003010154L382.94780018973216,332.3543194234371L383.09160565848214,340.5977662205696L383.7770783928571,336.00730337388813L383.7996763950893,324.7379120923579L385.2260896875,331.95199622027576L386.23341275669645,314.4656760171056L387.36742159598214,339.51529162190855L389.267023359375,340.82918595708907L390.3161184933036,343.38170099258423L390.5797618526786,320.47511595487595L391.0166565625,340.6656935829669L392.61152768973216,340.00548583175987L395.1644171540178,337.5387918688357L396.21830580357147,335.6019781921059L398.65615089285717,342.04492382891476L398.8835004910714,336.5339055210352L398.99032741071426,342.1737638087943L399.0629149330357,339.1591054406017L400.9303316629464,332.1509005986154L401.5082926897322,331.335826266557L401.739751015625,323.25483472272754L401.8999913950893,330.6515750028193L402.0609165625,338.0206884369254L402.9894890178571,328.8558111079037L403.16000121651786,340.1546955127269L403.36680717633925,344.1790186818689L403.45103609374996,334.54170986264944L404.8089705915179,338.5056011630222L404.9199062388393,327.7934577334672L407.4275996986607,334.24068554490805L407.50292637276783,339.6845732368529L408.49381453125,323.1210380345583L411.22543364955357,337.02184723410755L413.75161638392854,325.8066367376596L416.9550543973214,331.4708356298506L417.1166643526786,340.434893688187L418.1856183370536,330.554985024035L418.67113299107143,339.04615312535316L418.85328658482143,333.9735243022442L420.54128887276784,322.0393102169037L423.2311359263393,229.6066950559616L423.70021566964283,318.42331555858254L424.4089711941964,342.49506093515083L424.40965598214285,339.0257402108982L424.90681203125,32.00359004735952L425.3827396540178,331.60607996582985L425.80662339285715,326.81822790950537L426.52838988839284,335.4370935373008L427.6226810267857,327.2530651204288L428.353349765625,339.5717147756368L429.10456214285716,331.5311128757894L429.31958555803567,336.1162712816149L430.3262238392857,325.04665269702673L430.62205223214283,318.3890905715525L430.7364118191964,326.3180264290422L433.8494578236607,328.7779838331044L434.1110468191964,339.7101899860427L436.904981640625,333.6808361131698L437.576073828125,329.8542613647878L437.86231518973216,334.73511128872633L437.96503338169646,330.56768975406885L438.6279081138393,332.0607791207731L439.51333892857144,324.2825323268771L440.0906151674107,330.1612977422774L440.2549642745536,327.66651981696486L440.61379315848217,328.62354060821235L441.17737363839285,337.86075441353023L441.47868033482143,331.051659213379L442.53119940848217,295.0835894346237L443.03177939732143,328.9095874428749L445.06765396205356,333.5974410660565L446.2400109263393,338.59642823413014L446.8385155915179,318.44420652091503L448.63129043526783,308.40048273280263L450.07413863839287,333.04792638123035L450.89314502232145,324.1812726035714L451.592313515625,335.6620002090931L451.7737823214286,326.3199818339199L454.22395359374997,329.2833992764354L455.1600587165179,338.19591324031353L456.4406121763393,334.9572766125202L456.7069946875,338.5340011231601L456.7761582700893,327.80230702087283L457.08431284598214,333.4656105861068L457.608175625,322.5717610232532L457.65200205357144,324.0372370481491L458.0676683370536,314.81276578456163L458.2258543526786,321.9818148314953L458.2970722991071,151.95562276244164L458.38267079241075,321.3946072869003L460.53222015625,289.38445388525724L461.927133203125,329.4435304608196L462.18940698660714,330.8019440174103L462.3078753013393,318.7143467850983L462.89062984375,335.09515426307917L463.30150261160713,326.677290212363L464.03011698660714,323.2435992471874L464.12804166294643,326.06239910423756L464.92239568080356,329.2618006952107L465.1038644866071,333.6241631321609L465.81809831473214,340.4618439748883L467.7868636607143,334.1742828041315L468.4264556026786,329.7615011706948L469.20300513392857,336.6860705912113L470.7615825,338.84896850399673L471.01495404017857,338.2972688432783L473.41855973214285,316.58691489323974L474.6450149441964,320.5073693320155L474.97919146205356,336.4625372942537L475.722871171875,331.2248921506107L476.06458035714286,323.820554420352L476.3501369308036,333.576448822394L476.44395287946423,338.5625773128122L477.1485996763393,325.5204953737557L477.5759073549107,317.2520523443818L478.3476633705357,300.7534209191799L478.8030473549107,336.3361962623894L478.82701493303574,327.14493987336755L478.8790588169643,336.2473522797227L479.1831046651786,315.9561725817621L479.6960108370535,330.7487861737609L481.8174838950893,339.4977206615731L483.6766831696429,326.68088097311556L486.0631691629464,337.7424146067351L486.0754953459821,339.3915649987757L486.4165197433036,317.72627583891153L487.16773212053573,327.5880767516792L489.0207683035714,322.86266531050205L490.85463042410714,321.16445829346776L492.20023873883923,310.7671600319445L492.4556646428572,337.2935452051461L493.5657059040179,335.7409375272691L494.7202583816964,330.5282440520823L496.41373897321427,319.51606818661094L497.332039609375,322.7846597805619L502.0111956473215,331.60736961476505L502.22964300223214,336.86675513349473L502.33783949776785,342.9167899787426L503.04317108258925,327.6454141382128L503.6245560491071,333.61100736260414L503.9525694754464,336.71157323010266L504.5394327455357,302.69799814745784L507.3929441183036,334.8119743652642L507.64905481026784,326.90031710267067L508.58652950892855,338.0927311973646L510.6943068080358,336.1815167143941L513.3190990066964,326.6880314350128L513.3458057366072,334.1726433970034L514.6434788950893,335.86011999472976L514.8413826116072,331.3188771735877L515.7062697879464,336.28631048090756L517.0963893191964,333.39403709582984L517.3292172209822,333.4754281230271L517.8729388504464,334.9864294305444L518.6200425,340.71666374988854L518.9103925892857,336.58141591772437L519.794453828125,334.45504815503955L520.8654621763393,337.95881837327033L521.7844476004465,334.837216373533L522.96296765625,338.3423160780221L523.7580064620536,326.7927374243736L524.5297624776786,336.4350009262562L525.8151094531249,339.1879800725728L526.1937971875,340.2920059878379L526.7190295424107,337.27538411226124L527.3654693638393,331.4623631089926L528.9959494642857,322.28980730473995L529.5095404241072,332.46715897880495L529.669096015625,336.92558878287673L530.7770829129464,335.1709910221398L530.9085621986607,327.71077975817025L531.2927282366071,337.1146324109286L532.2096592968751,335.85058334469795L532.2986817299108,314.5748464874923L532.3801714955357,330.46415997855365L532.4931615066964,329.3322465866804L532.8115879017857,322.90900084376335L533.0608507142857,22.015446752309856L535.8075351674107,338.8855857560411L538.5446325892857,305.9481052234769L539.1965507142856,341.3623605873436L540.1004708035714,318.2135767787695L541.948713470982,324.67629793286324L542.2815204129464,334.40440478920937L542.303433627232,335.42829421535134L544.2119376339285,331.4559648297727L544.6145929464286,333.5207670480013L544.8282467857142,325.2890175692737L545.286369921875,236.52549009025097L545.9280162276785,337.2676590476185L546.2539752901786,335.15932881459594L546.5922605357143,254.82780966162682L546.9641003906249,335.1857267804444L547.1572105915178,330.1546860970557L549.3136078348214,294.5999562293291L549.3944128125,322.99580029398203L550.1764406473214,334.2602449953556L550.3661269084821,331.99943774566054L550.93792484375,333.3499216493219L551.0687193415179,324.18783563375473L551.1830789285714,323.14431923627853L552.4519909933035,323.9503457695246L553.435346484375,328.5484155192971L554.4104845200892,332.34666390530765L554.9247602678572,312.8170590400696L555.0713048883928,327.4225614517927L557.366029296875,332.33343656361103L557.7659454575893,322.65609461069107L558.8068231361607,320.0564621500671L559.8915272433036,328.37003614008427L561.3241036272321,338.04615461453795L561.4398327901786,325.4179635569453L561.6288342633928,303.0813952460885L562.7916041964286,322.36954136937857L563.6715567075893,333.7094784732908L564.2912897991072,309.81562868878245L564.8158373660714,319.2576954625547L565.2677974107143,338.8082493580878L565.6403220535714,291.6050321906805L566.1730870758929,329.1618319712579L566.7407762834821,338.291505260393L567.1763014174107,316.82657893002033L567.6645552232143,322.48459155857563L567.7309796540178,324.33849903941154L568.3555062611607,337.5055540371686L570.7433618303571,317.2670608870685L571.1864196316965,329.86181290075183L571.7472609598213,308.461637750268L573.7619070982142,331.652487071231L573.8118966183036,330.8686924651265L574.258378359375,340.1843709424138L574.6220007589286,336.1421425845474L574.6329573660714,334.1435216385871L574.6904795535714,333.7519207522273L576.2059152790179,332.44877304136753L576.6126793191964,321.8048506900668L577.6583505133929,333.2345000952482L579.171731875,315.8738970309496L579.2463737611607,337.7091173566878L579.962661953125,321.09506302699447L580.0496300223214,301.36699672043324L581.362368515625,302.0728060528636L582.5621169977678,312.50245222076774L583.3845473214285,334.8893614038825L583.4838415736607,329.77398443222046L584.5569042857143,339.66219343896955L585.1156912499999,329.74796188250184L585.5128682589285,269.94408867508173L587.9952245647321,308.7374092563987L588.9662538727679,304.5089164301753L588.9751561160714,327.9081676173955L589.0395261830357,313.6414134427905L589.6709006696428,328.0056907348335L589.6948682477679,327.1218085680157L590.0228816741071,322.6287918649614L590.4851135379464,316.1871642358601L591.1267598437499,327.15319092571735L591.1548361495536,328.07055670022964L593.1537321651786,335.574630882591L593.5111914732144,312.10369547083974L593.6611600334821,329.289677368477L593.7043016741071,328.2814257796854L594.1679031138392,332.65475090779364L594.4336008370535,295.6134015247226L595.905894921875,326.9526471402496L596.7324339732144,330.9952684696764L598.10611859375,306.7711443193257L598.9538860714285,329.06466941535473L599.596901953125,315.7835810929537L600.3960494866071,330.6641014777124L600.8007591629464,304.58341897651553L601.418437890625,-688.5484148263931L602.6380452232142,312.9824014864862L602.9913958035714,331.8082726113498L603.51320421875,335.6913825981319L604.3596021205357,322.6210539713502L605.5367526004464,334.3084508571774L608.014315390625,310.22986662760377L608.0978595200893,311.20827938616276L608.7559407366072,337.0302839688957L609.7920248995536,324.26862842589617L609.8652972098214,313.7414145767689L610.0488203794642,331.084102999419L613.7548927455357,285.79155407100916L615.9311488392857,326.2358548603952L616.4303592522322,333.11285446584225L616.7843946205357,327.1584859136492L616.805623046875,316.2490484789014L617.1439082924107,323.63323797658086L617.2164958147322,325.0506391301751L617.5013676004464,336.23235859163105L617.6075097321428,308.32498897984624L617.9923605580357,314.64832811802626L619.0948691517858,324.8119176849723L619.7940376450892,321.08161556720734L620.3569333370536,329.27958974801004L621.2389402120535,329.9799271877855L621.3279626450893,334.91627657972276L621.5518883035714,334.53171407058835L622.260643828125,327.2316853068769L624.8683163281249,335.12228955700994L626.4440133928572,329.215639365837L626.5953515290179,318.47009943053126L627.3869663950893,325.3361741565168L627.6492401785714,334.2032303586602L627.7211429129464,315.7995214238763L628.5127577790179,328.8670789934695L628.5387797209821,339.3263992406428L628.7640749553572,317.07548792660236L629.1982305133929,327.9250951036811L630.5883500446429,331.242220710963L632.0935139508929,330.31339529156685L632.6666814620536,318.05125656723976L634.9079924107143,331.9952419977635L636.2111438727678,332.92063330486417L637.2020320312499,331.7690227199346L638.8359360714286,334.31354733370245L639.4919629241072,337.97804899699986L640.5732430915178,317.0379895269871L641.9352863169643,321.1830481439829L642.7570318526786,331.0924445297569L643.4055260379464,334.34289326146245L643.5842556919644,335.92485632002354L643.9266496651786,314.424023732543L644.0190960379464,335.89515793323517L644.7264819866072,333.49989904277027L647.9490940625,330.61414817534387L651.4942412611607,331.814487233758L652.0050930691965,332.45629216730595L654.5264822879464,331.3448132965714L655.307140546875,337.427287876606L655.5262726897322,316.3743051253259L656.7534126897322,337.463765360415L657.2546774665178,334.710190679878L658.2530982924106,333.97784428857267L658.9823974553572,329.10014759004116L659.1926273549108,338.8763164887205L660.2403529129465,305.5581126846373L661.1757732477679,320.3738130182028L663.2780722433035,333.5910495389253L664.3874287165179,334.21376901865005L665.1578151562501,335.3164755757898L665.1639782477679,322.8034467920661L666.5582065066965,340.3356555402279L667.8777928794643,335.66646198928356L670.2300394754465,319.7850551940501L670.3190619084821,327.36560893431306L671.3147435825892,338.2870320016518L672.429578359375,330.75017980486155L673.849828560268,326.3956713974476L675.0954578348213,342.53597150277346L675.3673186495536,328.8900536503643L675.6912233482143,333.2424540556967L676.0219759263392,327.2533541098237L676.3273913504464,341.12923797406256L676.9272655915179,339.13708822987974L677.0361468750001,331.9568833820522L677.3422470870536,340.83590766135603L679.0165536160714,333.02098824828863L679.0549017410715,336.5266402736306L680.2929983482143,323.63876658678055L681.5228774999999,335.28392510674894L681.9755223325893,333.2019928395748L682.6623646428571,335.24694121629L683.8497869419642,341.4565691044554L684.0483754464286,326.6660290788859L687.1607366629464,335.00450882315636L687.5127176674107,335.426575133577L687.7071974441964,315.1182842925191L687.8797640066965,336.57123646885157L688.4474532142857,338.6578600872308L688.9137938058036,317.3062851205468L689.8067572879464,337.6833000704646L690.8428414508929,333.1906979456544L691.555705703125,338.6308085191995L694.9940259821428,325.200735360384L695.8506957031251,324.23641286045313L696.2430791964285,328.3730313666165L697.6797643080357,337.1728030052036L697.7112645535714,333.92581674456596L698.2118445424107,336.8441970804706L700.0183151450892,331.66040997207165L700.6743419977678,330.6808196492493L701.4775982589287,334.92769706249237L702.27880015625,325.5589012540877L703.0252190178571,317.9865121394396L704.4283495200893,333.32895911484957L704.61803578125,335.80689192935824L705.1864097767858,340.06140730530024L706.4135497767857,338.16683739610016L706.9990434709821,336.7650106102228L707.2955566517858,337.68244390562177L707.6324723214286,337.7694668499753L707.8481805245536,340.4188358709216L708.0070513281249,341.2150847045705L710.0449802566964,337.85402123071253L711.6069815625,336.95301036536694L712.0260717857143,340.73384984117L715.3815327232143,322.99657813459635L716.2087565625,328.9799874201417L717.3201673995536,334.48372292518616L717.7947254464285,328.2758742123842L718.4692415736607,339.27547431271523L720.5489425669643,328.72561328299344L721.3001549441965,337.85142302699387L722.579338828125,325.63158613815904L722.9902115959821,336.52535602636635L724.0721765513393,333.2427092846483L725.3445125558036,340.4726783763617L726.3189658035715,332.8803854547441L726.7250450558035,341.16309564746916L728.2521221763393,341.29362702555954L729.7401663839286,341.97468387614936L729.8839718526785,339.10205164179206L730.3208665625,329.673386413604L730.9700455357142,341.9159832429141L732.7977445647322,331.68239207193255L733.3305095870536,333.8587414957583L735.2232634709821,314.40678429976106L736.1490967745536,330.04225301742554L736.2394887834822,342.7466792073101L738.9293358370536,342.20657760929316L739.4874380133929,320.0203762874007L739.8544843526786,319.2612794712186L740.7542957142857,339.51424639858305L741.6164437388393,332.87690407782793L743.2318585044643,334.4420220255852L743.287326328125,340.1240963973105L745.7347584486607,330.49311158433557L746.3688720870535,328.9863505885005L746.5154167075892,332.1587613802403L746.5366451339286,331.25747908093035L746.9221807477678,326.08558847755194L747.5604031138392,336.1717693991959L748.1335706250001,339.5660673286766L748.2273865736606,330.7313603833318L748.3075067633929,341.60730475746095L749.3620802008929,329.09493632800877L749.4100153571429,340.1015120111406L749.8859429799106,342.41804627422243L750.0016721428572,325.7832326479256L750.1728691294643,329.21196487918496L750.3735119977679,340.5772905116901L751.3965851897321,340.6610630005598L752.7620523549107,336.90796380583197L754.6048167187499,337.43642142694443L755.0019937276785,339.4428065996617L755.1218316183035,328.3738294634968L755.6251507589286,343.5567164812237L756.0243821316964,329.9512861780822L756.9050194308036,341.0101291043684L757.7048517522322,334.8435457814485L758.2239210156249,343.91134563088417L758.7381967633929,337.24283972010016L759.4743438058035,334.99005260132253L760.8247456361607,335.1225164271891L761.6540238392857,327.9239269923419L761.6841545089286,331.41889856383204L762.8482940178571,329.5624955110252L762.8866421428572,338.9541241824627L763.3125802455357,326.2171164639294L763.3790046763393,328.3906354121864L765.653870234375,328.4057330824435L766.1256891294643,328.64507031813264L767.6205812165178,334.3532091025263L768.4799900892857,326.92352268099785L769.1825825223214,316.1352919898927L769.3777470870536,336.06303376331925L770.7945733482143,327.2840869165957L772.4360100558035,335.6863050274551L776.9398603794643,328.6255203206092L777.4657775223214,335.5522774178535L781.6012119308035,336.3231242187321L781.9620951785714,327.55859173089266L783.6980326227679,331.3280978258699L783.7754136607143,326.94638390280306L784.2705153459821,336.3647602982819L784.3841901450893,324.12610533833504L784.4280165736607,322.74726401269436L786.0078223660714,328.12306499294937L786.0769859486608,340.31481454335153L786.7617738950893,330.9553744290024L787.0117214955357,338.75700032990426L787.2322232142858,338.2838348876685L787.6437807700893,327.97192218899727L787.6615852566964,340.1118285274133L788.5052440066964,338.2145179454237L791.84084609375,334.96587877348065L791.8867268861607,315.88819525390863L793.1912479241071,337.1142704989761L793.5507615959821,326.8042672909796L794.4211270758929,321.1638992205262L794.5834218191965,332.6395816653967L794.6375200669643,339.4717284962535L794.7922821428572,340.19443020410836L795.4044825669642,339.3232885533944L795.7078436272321,336.7616939842701L795.8489099441964,337.2586058471352L796.0283243861606,334.52832182124257L797.2849102678571,327.55685779452324L797.9155999665178,340.51496265642345L798.2217001785714,256.458012342453L798.9749669196428,342.26535251550376L798.9770212834821,329.89447950571775L799.1523269977679,318.13945505023L800.14321515625,340.6174971740693L800.4671198549107,331.97654141299427L800.6246210825893,329.6428669728339L801.4244534040179,330.88407642394304L801.432670859375,315.1320450492203L802.563940546875,343.9921107394621L804.4827163727679,330.51994708552957L804.5429777120536,326.71063742786646L804.839490892857,331.7602760642767L804.9168719308036,336.7469298671931L806.274121640625,329.3615668565035L806.2939804910715,333.3068608790636L806.7808647209821,333.78519369475543L807.2862382254464,342.9615624034777L807.8121553683036,324.90315190702677L808.1127772767858,328.6268329266459L808.431203671875,336.070004619658L809.1159916183036,341.43082271516323L809.1851552008928,333.24092538282275L809.226927265625,340.05290102399886L810.9060273102679,324.14371478557587L810.9409514955356,336.3635071106255L811.1621380022322,335.3560252599418L811.2354103125,334.55242677778006L811.6551853236607,313.3256074525416L812.754954765625,334.07754427939653L813.46918859375,342.2971460754052L813.7848758370535,331.3753840532154L813.8964962723214,316.1745189242065L813.9526488839285,325.1006477996707L814.4525440848214,334.2597885541618L814.8579385491072,333.4092644061893L815.0051679575893,324.95329831913114L815.2243001004465,327.4921079650521L816.4500705245536,313.140818990767L817.1286953794643,136.9208495616913L818.4996408482143,326.6385710351169L819.4603983370536,341.4958460042253L819.561746953125,330.9294342547655L819.9917937834822,333.99050445482135L820.0582182142857,339.74196261446923L820.5964615401786,330.4584585148841L820.6745273660714,311.8949911110103L820.9922689732142,321.6379336565733L822.1228538727678,340.5313513260335L822.94117546875,341.2778122834861L823.4705165513393,328.20345265977085L823.7389534263392,340.274164268747L823.93822671875,331.57905810698867L825.9487641294643,328.19984029233456L826.2048748214286,331.95375311374664L826.8232383370536,338.1768156327307L827.2471220758929,315.4466491676867L827.8449419531249,149.55913904309276L828.1818576227678,341.76709293574095L828.4639902566964,341.8248361228034L829.0659188616071,332.49155832640827L829.3638016183036,343.1505158911459L829.6849671651786,341.09203531593084L830.1335032700894,335.46687970124185L830.3546897767858,337.3486672313884L832.0995294642858,337.7091551683843L832.3056506361606,338.52398237399757L832.4699997433036,339.9822539202869L833.041112890625,321.7639978528023L833.2951692187501,333.3093429468572L835.0091934486607,338.9500796813518L835.0899984263393,342.2159663885832L835.9939185156251,339.46791491657495L836.05623421875,342.3294244352728L836.8841428459822,316.4300422668457L838.2215337053572,333.12290292419493L839.5342721986608,330.4639776721597L840.4149094977678,339.72234914731234L840.7915428683036,338.22966152988374L841.1359912053571,330.8826706390828L842.3747726004464,324.7093237489462L844.3565489174107,334.70840272679925L844.7290735602678,334.5475301630795L844.9447817633929,312.60861936211586L845.16391390625,333.12538904324174L845.6172435267857,324.0253560729325L846.2061611607143,333.20497996360064L849.6170899218749,338.1426304830238L849.7006340513392,338.642771194689L850.9359915066964,336.80642927251756L852.9561159486607,338.109816682525L853.8668839174106,332.1312533710152L854.3072025669643,335.1853324584663L854.6893142410714,330.95000111684203L856.9114511272321,340.1487948624417L858.4474304910714,341.4056630823761" style="fill: none;" fill="none"></path></g></g></g></g></g></g><g transform="translate(59, 377)" clip-path="url(#clip_1)"><clipPath id="clip_1"><rect width="958" height="23"></rect></clipPath><g><g><line x1="0" y1="0" x2="0" y2="5" style="visibility: inherit;" fill="rgb(0, 0, 0)" stroke="rgb(204, 204, 204)" stroke-width="1px"></line><line x1="68.47879464285714" y1="0" x2="68.47879464285714" y2="5" style="visibility: inherit;" fill="rgb(0, 0, 0)" stroke="rgb(204, 204, 204)" stroke-width="1px"></line><line x1="136.95758928571428" y1="0" x2="136.95758928571428" y2="5" style="visibility: inherit;" fill="rgb(0, 0, 0)" stroke="rgb(204, 204, 204)" stroke-width="1px"></line><line x1="205.43638392857142" y1="0" x2="205.43638392857142" y2="5" style="visibility: inherit;" fill="rgb(0, 0, 0)" stroke="rgb(204, 204, 204)" stroke-width="1px"></line><line x1="273.91517857142856" y1="0" x2="273.91517857142856" y2="5" style="visibility: inherit;" fill="rgb(0, 0, 0)" stroke="rgb(204, 204, 204)" stroke-width="1px"></line><line x1="342.3939732142857" y1="0" x2="342.3939732142857" y2="5" style="visibility: inherit;" fill="rgb(0, 0, 0)" stroke="rgb(204, 204, 204)" stroke-width="1px"></line><line x1="410.87276785714283" y1="0" x2="410.87276785714283" y2="5" style="visibility: inherit;" fill="rgb(0, 0, 0)" stroke="rgb(204, 204, 204)" stroke-width="1px"></line><line x1="479.3515625" y1="0" x2="479.3515625" y2="5" style="visibility: inherit;" fill="rgb(0, 0, 0)" stroke="rgb(204, 204, 204)" stroke-width="1px"></line><line x1="547.8303571428571" y1="0" x2="547.8303571428571" y2="5" style="visibility: inherit;" fill="rgb(0, 0, 0)" stroke="rgb(204, 204, 204)" stroke-width="1px"></line><line x1="616.3091517857143" y1="0" x2="616.3091517857143" y2="5" style="visibility: inherit;" fill="rgb(0, 0, 0)" stroke="rgb(204, 204, 204)" stroke-width="1px"></line><line x1="684.7879464285714" y1="0" x2="684.7879464285714" y2="5" style="visibility: inherit;" fill="rgb(0, 0, 0)" stroke="rgb(204, 204, 204)" stroke-width="1px"></line><line x1="753.2667410714286" y1="0" x2="753.2667410714286" y2="5" style="visibility: inherit;" fill="rgb(0, 0, 0)" stroke="rgb(204, 204, 204)" stroke-width="1px"></line><line x1="821.7455357142857" y1="0" x2="821.7455357142857" y2="5" style="visibility: inherit;" fill="rgb(0, 0, 0)" stroke="rgb(204, 204, 204)" stroke-width="1px"></line><line x1="890.2243303571429" y1="0" x2="890.2243303571429" y2="5" style="visibility: inherit;" fill="rgb(0, 0, 0)" stroke="rgb(204, 204, 204)" stroke-width="1px"></line><line x1="958.703125" y1="0" x2="958.703125" y2="5" style="visibility: inherit;" fill="rgb(0, 0, 0)" stroke="rgb(204, 204, 204)" stroke-width="1px"></line></g><g transform="translate(0, 8)"><text x="0" y="0" dx="0em" dy="0.95em" style="text-anchor: middle; visibility: hidden; font-family: &quot;Helvetica Neue&quot;, sans-serif; font-size: 12px; font-weight: 200;" fill="rgb(50, 49, 63)" stroke="none" stroke-width="1px">-100k</text><text x="68.47879464285714" y="0" dx="0em" dy="0.95em" style="text-anchor: middle; visibility: inherit; font-family: &quot;Helvetica Neue&quot;, sans-serif; font-size: 12px; font-weight: 200;" fill="rgb(50, 49, 63)" stroke="none" stroke-width="1px">0</text><text x="136.95758928571428" y="0" dx="0em" dy="0.95em" style="text-anchor: middle; visibility: inherit; font-family: &quot;Helvetica Neue&quot;, sans-serif; font-size: 12px; font-weight: 200;" fill="rgb(50, 49, 63)" stroke="none" stroke-width="1px">100k</text><text x="205.43638392857142" y="0" dx="0em" dy="0.95em" style="text-anchor: middle; visibility: inherit; font-family: &quot;Helvetica Neue&quot;, sans-serif; font-size: 12px; font-weight: 200;" fill="rgb(50, 49, 63)" stroke="none" stroke-width="1px">200k</text><text x="273.91517857142856" y="0" dx="0em" dy="0.95em" style="text-anchor: middle; visibility: inherit; font-family: &quot;Helvetica Neue&quot;, sans-serif; font-size: 12px; font-weight: 200;" fill="rgb(50, 49, 63)" stroke="none" stroke-width="1px">300k</text><text x="342.3939732142857" y="0" dx="0em" dy="0.95em" style="text-anchor: middle; visibility: inherit; font-family: &quot;Helvetica Neue&quot;, sans-serif; font-size: 12px; font-weight: 200;" fill="rgb(50, 49, 63)" stroke="none" stroke-width="1px">400k</text><text x="410.87276785714283" y="0" dx="0em" dy="0.95em" style="text-anchor: middle; visibility: inherit; font-family: &quot;Helvetica Neue&quot;, sans-serif; font-size: 12px; font-weight: 200;" fill="rgb(50, 49, 63)" stroke="none" stroke-width="1px">500k</text><text x="479.3515625" y="0" dx="0em" dy="0.95em" style="text-anchor: middle; visibility: inherit; font-family: &quot;Helvetica Neue&quot;, sans-serif; font-size: 12px; font-weight: 200;" fill="rgb(50, 49, 63)" stroke="none" stroke-width="1px">600k</text><text x="547.8303571428571" y="0" dx="0em" dy="0.95em" style="text-anchor: middle; visibility: inherit; font-family: &quot;Helvetica Neue&quot;, sans-serif; font-size: 12px; font-weight: 200;" fill="rgb(50, 49, 63)" stroke="none" stroke-width="1px">700k</text><text x="616.3091517857143" y="0" dx="0em" dy="0.95em" style="text-anchor: middle; visibility: inherit; font-family: &quot;Helvetica Neue&quot;, sans-serif; font-size: 12px; font-weight: 200;" fill="rgb(50, 49, 63)" stroke="none" stroke-width="1px">800k</text><text x="684.7879464285714" y="0" dx="0em" dy="0.95em" style="text-anchor: middle; visibility: inherit; font-family: &quot;Helvetica Neue&quot;, sans-serif; font-size: 12px; font-weight: 200;" fill="rgb(50, 49, 63)" stroke="none" stroke-width="1px">900k</text><text x="753.2667410714286" y="0" dx="0em" dy="0.95em" style="text-anchor: middle; visibility: inherit; font-family: &quot;Helvetica Neue&quot;, sans-serif; font-size: 12px; font-weight: 200;" fill="rgb(50, 49, 63)" stroke="none" stroke-width="1px">1M</text><text x="821.7455357142857" y="0" dx="0em" dy="0.95em" style="text-anchor: middle; visibility: inherit; font-family: &quot;Helvetica Neue&quot;, sans-serif; font-size: 12px; font-weight: 200;" fill="rgb(50, 49, 63)" stroke="none" stroke-width="1px">1.1M</text><text x="890.2243303571429" y="0" dx="0em" dy="0.95em" style="text-anchor: middle; visibility: inherit; font-family: &quot;Helvetica Neue&quot;, sans-serif; font-size: 12px; font-weight: 200;" fill="rgb(50, 49, 63)" stroke="none" stroke-width="1px">1.2M</text><text x="958.703125" y="0" dx="0em" dy="0.95em" style="text-anchor: middle; visibility: hidden; font-family: &quot;Helvetica Neue&quot;, sans-serif; font-size: 12px; font-weight: 200;" fill="rgb(50, 49, 63)" stroke="none" stroke-width="1px">1.3M</text></g><line x1="0" y1="0" x2="958.703125" y2="0" fill="rgb(0, 0, 0)" stroke="rgb(204, 204, 204)" stroke-width="1px"></line></g></g></g></g></svg>