<svg viewBox="0 0 1018 400" xmlns="http://www.w3.org/2000/svg"><g><g><g><g><g><line x1="39.578125" y1="377" x2="34.578125" y2="377" style="visibility: inherit;" fill="rgb(0, 0, 0)" stroke="rgb(204, 204, 204)" stroke-width="1px"></line><line x1="39.578125" y1="329.875" x2="34.578125" y2="329.875" style="visibility: inherit;" fill="rgb(0, 0, 0)" stroke="rgb(204, 204, 204)" stroke-width="1px"></line><line x1="39.578125" y1="282.75" x2="34.578125" y2="282.75" style="visibility: inherit;" fill="rgb(0, 0, 0)" stroke="rgb(204, 204, 204)" stroke-width="1px"></line><line x1="39.578125" y1="235.625" x2="34.578125" y2="235.625" style="visibility: inherit;" fill="rgb(0, 0, 0)" stroke="rgb(204, 204, 204)" stroke-width="1px"></line><line x1="39.578125" y1="188.5" x2="34.578125" y2="188.5" style="visibility: inherit;" fill="rgb(0, 0, 0)" stroke="rgb(204, 204, 204)" stroke-width="1px"></line><line x1="39.578125" y1="141.375" x2="34.578125" y2="141.375" style="visibility: inherit;" fill="rgb(0, 0, 0)" stroke="rgb(204, 204, 204)" stroke-width="1px"></line><line x1="39.578125" y1="94.25" x2="34.578125" y2="94.25" style="visibility: inherit;" fill="rgb(0, 0, 0)" stroke="rgb(204, 204, 204)" stroke-width="1px"></line><line x1="39.578125" y1="47.125" x2="34.578125" y2="47.125" style="visibility: inherit;" fill="rgb(0, 0, 0)" stroke="rgb(204, 204, 204)" stroke-width="1px"></line><line x1="39.578125" y1="0" x2="34.578125" y2="0" style="visibility: inherit;" fill="rgb(0, 0, 0)" stroke="rgb(204, 204, 204)" stroke-width="1px"></line></g><g transform="translate(29.578125, 0)"><text x="0" y="377" dx="0em" dy="0.3em" style="text-anchor: end; visibility: hidden; font-family: &quot;Helvetica Neue&quot;, sans-serif; font-size: 12px; font-weight: 200;" fill="rgb(50, 49, 63)" stroke="none" stroke-width="1px">-10</text><text x="0" y="329.875" dx="0em" dy="0.3em" style="text-anchor: end; visibility: inherit; font-family: &quot;Helvetica Neue&quot;, sans-serif; font-size: 12px; font-weight: 200;" fill="rgb(50, 49, 63)" stroke="none" stroke-width="1px">0</text><text x="0" y="282.75" dx="0em" dy="0.3em" style="text-anchor: end; visibility: inherit; font-family: &quot;Helvetica Neue&quot;, sans-serif; font-size: 12px; font-weight: 200;" fill="rgb(50, 49, 63)" stroke="none" stroke-width="1px">10</text><text x="0" y="235.625" dx="0em" dy="0.3em" style="text-anchor: end; visibility: inherit; font-family: &quot;Helvetica Neue&quot;, sans-serif; font-size: 12px; font-weight: 200;" fill="rgb(50, 49, 63)" stroke="none" stroke-width="1px">20</text><text x="0" y="188.5" dx="0em" dy="0.3em" style="text-anchor: end; visibility: inherit; font-family: &quot;Helvetica Neue&quot;, sans-serif; font-size: 12px; font-weight: 200;" fill="rgb(50, 49, 63)" stroke="none" stroke-width="1px">30</text><text x="0" y="141.375" dx="0em" dy="0.3em" style="text-anchor: end; visibility: inherit; font-family: &quot;Helvetica Neue&quot;, sans-serif; font-size: 12px; font-weight: 200;" fill="rgb(50, 49, 63)" stroke="none" stroke-width="1px">40</text><text x="0" y="94.25" dx="0em" dy="0.3em" style="text-anchor: end; visibility: inherit; font-family: &quot;Helvetica Neue&quot;, sans-serif; font-size: 12px; font-weight: 200;" fill="rgb(50, 49, 63)" stroke="none" stroke-width="1px">50</text><text x="0" y="47.125" dx="0em" dy="0.3em" style="text-anchor: end; visibility: inherit; font-family: &quot;Helvetica Neue&quot;, sans-serif; font-size: 12px; font-weight: 200;" fill="rgb(50, 49, 63)" stroke="none" stroke-width="1px">60</text><text x="0" y="0" dx="0em" dy="0.3em" style="text-anchor: end; visibility: hidden; font-family: &quot;Helvetica Neue&quot;, sans-serif; font-size: 12px; font-weight: 200;" fill="rgb(50, 49, 63)" stroke="none" stroke-width="1px">70</text></g><line x1="39.578125" y1="0" x2="39.578125" y2="377" fill="rgb(0, 0, 0)" stroke="rgb(204, 204, 204)" stroke-width="1px"></line></g></g><g transform="translate(39, 0)" clip-path="url(#clip_0)"><clipPath id="clip_0"><rect width="978" height="377"></rect></clipPath><g><g><g><line x1="0" y1="0" x2="0" y2="377" fill="rgb(0, 0, 0)" stroke="rgb(60, 60, 60)" stroke-width="1px" opacity="0.25"></line><line x1="108.71354166666666" y1="0" x2="108.71354166666666" y2="377" fill="rgb(0, 0, 0)" stroke="rgb(60, 60, 60)" stroke-width="1px" opacity="0.25"></line><line x1="217.42708333333331" y1="0" x2="217.42708333333331" y2="377" fill="rgb(0, 0, 0)" stroke="rgb(60, 60, 60)" stroke-width="1px" opacity="0.25"></line><line x1="326.140625" y1="0" x2="326.140625" y2="377" fill="rgb(0, 0, 0)" stroke="rgb(60, 60, 60)" stroke-width="1px" opacity="0.25"></line><line x1="434.85416666666663" y1="0" x2="434.85416666666663" y2="377" fill="rgb(0, 0, 0)" stroke="rgb(60, 60, 60)" stroke-width="1px" opacity="0.25"></line><line x1="543.5677083333334" y1="0" x2="543.5677083333334" y2="377" fill="rgb(0, 0, 0)" stroke="rgb(60, 60, 60)" stroke-width="1px" opacity="0.25"></line><line x1="652.28125" y1="0" x2="652.28125" y2="377" fill="rgb(0, 0, 0)" stroke="rgb(60, 60, 60)" stroke-width="1px" opacity="0.25"></line><line x1="760.9947916666666" y1="0" x2="760.9947916666666" y2="377" fill="rgb(0, 0, 0)" stroke="rgb(60, 60, 60)" stroke-width="1px" opacity="0.25"></line><line x1="869.7083333333333" y1="0" x2="869.7083333333333" y2="377" fill="rgb(0, 0, 0)" stroke="rgb(60, 60, 60)" stroke-width="1px" opacity="0.25"></line><line x1="978.421875" y1="0" x2="978.421875" y2="377" fill="rgb(0, 0, 0)" stroke="rgb(60, 60, 60)" stroke-width="1px" opacity="0.25"></line></g><g><line x1="0" y1="377" x2="978.421875" y2="377" fill="rgb(0, 0, 0)" stroke="rgb(60, 60, 60)" stroke-width="1px" opacity="0.25"></line><line x1="0" y1="329.875" x2="978.421875" y2="329.875" fill="rgb(0, 0, 0)" stroke="rgb(60, 60, 60)" stroke-width="1px" opacity="0.25"></line><line x1="0" y1="282.75" x2="978.421875" y2="282.75" fill="rgb(0, 0, 0)" stroke="rgb(60, 60, 60)" stroke-width="1px" opacity="0.25"></line><line x1="0" y1="235.625" x2="978.421875" y2="235.625" fill="rgb(0, 0, 0)" stroke="rgb(60, 60, 60)" stroke-width="1px" opacity="0.25"></line><line x1="0" y1="188.5" x2="978.421875" y2="188.5" fill="rgb(0, 0, 0)" stroke="rgb(60, 60, 60)" stroke-width="1px" opacity="0.25"></line><line x1="0" y1="141.375" x2="978.421875" y2="141.375" fill="rgb(0, 0, 0)" stroke="rgb(60, 60, 60)" stroke-width="1px" opacity="0.25"></line><line x1="0" y1="94.25" x2="978.421875" y2="94.25" fill="rgb(0, 0, 0)" stroke="rgb(60, 60, 60)" stroke-width="1px" opacity="0.25"></line><line x1="0" y1="47.125" x2="978.421875" y2="47.125" fill="rgb(0, 0, 0)" stroke="rgb(60, 60, 60)" stroke-width="1px" opacity="0.25"></line><line x1="0" y1="0" x2="978.421875" y2="0" fill="rgb(0, 0, 0)" stroke="rgb(60, 60, 60)" stroke-width="1px" opacity="0.25"></line></g></g></g><g><g><line x1="0" y1="329.875" x2="978.421875" y2="329.875" fill="rgb(0, 0, 0)" stroke="rgb(153, 153, 153)" stroke-width="1.5px"></line></g></g><g><g><line x1="108.71354166666666" y1="0" x2="108.71354166666666" y2="377" fill="rgb(0, 0, 0)" stroke="rgb(153, 153, 153)" stroke-width="1.5px"></line></g></g><g><g><g><g><g><path stroke="rgb(255, 112, 67)" stroke-width="2px" d="M109.68326645833334,311.025L110.65299125,303.66171875L111.62271604166666,306.6170489375688L112.59244083333333,309.18417948096555L113.56216562499999,309.57380535617045L114.53189041666667,313.1485673072939L115.50161520833333,315.59916995343167L116.47134000000001,317.3329986360244L117.44106479166668,317.53460867413156L118.41078958333334,317.7596257969742L119.380514375,317.9797558399692L120.35023916666667,319.12743516028985L121.31996395833333,319.8023426759411L122.28968875,321.54384171319805L123.25941354166666,322.86626003762717L124.22913833333332,322.2530205209687L125.19886312499999,322.0861959187641L126.16858791666665,321.4316510757125L127.13831270833332,320.84053343054467L128.10803750000002,321.1555815769862L129.0777622916667,320.6938147929037L130.04748708333335,320.42492186358913L131.01721187500002,320.5988674962531L131.98693666666668,320.7749463320805L132.95666145833334,319.6647646789234L133.92638625,319.1813580864628L134.89611104166667,318.78122171658816L135.86583583333334,318.7755186123309L136.835560625,318.8603109971772L137.80528541666666,319.24485314025634L138.77501020833333,319.7269119480962L139.744735,319.95724093718877L140.71445979166666,320.15434457172535L141.68418458333332,322.82290089748494L142.653909375,323.7048833016511L143.62363416666668,324.02612452861945L144.59335895833334,324.32783697229945L145.56308375,324.31446531757115L146.53280854166667,324.1220124427823L147.50253333333333,323.925582375523L148.472258125,323.4548616419811L149.44198291666666,323.150535979159L150.41170770833332,322.8155540514738L151.3814325,323.0260369968034L152.35115729166665,323.0009554714902L153.32088208333332,322.96405153399144L154.29060687499998,322.3996010805481L155.26033166666664,322.13028155655934L156.2300564583333,322.26602614099727L157.19978125,322.2936156396567L158.16950604166666,322.25842435625174L159.13923083333333,321.4625547866022L160.10895562500002,320.73743866801107L161.07868041666669,320.27338911008695L162.04840520833335,319.3158517295823L163.01813,319.1299576589289L163.98785479166668,319.12885200910705L164.95757958333334,319.3648113294419L165.927304375,319.8308359959112L166.89702916666667,320.1099182342521L167.86675395833333,320.46226238280724L168.83647875,320.9134058312785L169.80620354166666,321.2666148952372L170.77592833333333,321.4406720621423L171.74565312500002,321.71140330988385L172.71537791666668,322.00653886710535L173.68510270833335,322.2842217505868L174.6548275,322.4930330503521L175.62455229166667,322.95980525604114L176.59427708333334,323.2753832435085L177.564001875,323.5523427012845L178.53372666666667,323.59425289292835L179.50345145833333,323.5760037813169L180.47317625,323.5737779869784L181.44290104166666,323.6312002273887L182.41262583333332,323.6236542405182L183.382350625,323.6271795631345L184.35207541666665,323.6129743296442L185.32180020833331,323.99417702844966L186.291525,324.1787562620117L187.26124979166667,324.3860810286685L188.23097458333334,324.58170970242526L189.200699375,324.7231825075227L190.11008815104165,324.13593330333697L191.07981294270832,323.85908932238857L192.023446484375,323.17493043690945L192.99317127604166,322.9949583008887L193.96289606770833,322.70527041465056L194.932620859375,322.48091512089974L195.90234565104166,322.1502712098718L196.87207044270832,321.6773055707193L197.84179523437498,321.3912745979295L198.79521299479165,321.1971841643373L199.76493778645832,320.65767222941633L200.73466257812498,320.13807679951617L201.70438736979165,319.8897730132367L202.6741121614583,319.4531423437849L203.64383695312497,318.9863241450939L204.61356174479167,318.54361275058704L205.58328653645833,318.28826772225926L206.553011328125,318.62516068728587L207.5227361197917,318.8838464123715L208.49246091145835,318.6620577575391L209.46218570312502,318.39703469047697L210.43191049479168,318.2945707963094L211.40163528645834,318.06344262159973L212.371360078125,317.98131566284366L213.34108486979167,317.98858943365974L214.31080966145834,318.18145351638174L215.280534453125,318.24062201994525L216.25025924479166,318.2195731760136L217.21998403645833,318.3577437258406L218.189708828125,318.4783460197832L219.15943361979168,318.32450761186993L220.12915841145835,318.1191046749825L221.098883203125,317.8827630207106L222.06860799479168,317.66555765063555L223.03833278645834,317.9122345184743L224.008057578125,318.13564056727046L224.97778236979167,318.1188843403623L225.94750716145833,318.33503038849625L226.917231953125,318.5778183589351L227.88695674479166,318.59154081761665L228.85668153645832,318.7128746343841L229.826406328125,319.21922496039804L230.79613111979165,319.3722348504015L231.76585591145832,319.5394407124965L232.73558070312498,319.58321428368384L233.5884384375,319.4586785702103L234.55816322916667,319.74210724998676L235.52788802083333,319.81791454773645L236.4976128125,319.9010988904327L237.46733760416666,319.53630944212017L238.43706239583332,318.5257356293186L239.4067871875,317.9193913416376L240.37651197916665,317.4801848409361L241.34623677083331,317.1978109584919L242.31596156249998,316.8964367548628L243.28568635416664,316.5459619450571L244.25541114583334,316.29797709512724L245.2251359375,316.22458611326226L246.19486072916666,316.21825148818976L247.16458552083333,316.0071009108906L248.1343103125,315.69191074427874L249.10403510416666,315.52164662633487L250.07375989583332,315.5325880477079L251.0304390625,315.21870275671773L252.00016385416666,315.01152160010037L252.96988864583332,314.66101312185106L253.9396134375,314.69575780120357L254.90933822916665,314.67890464476864L255.8790630208333,314.8384425891168L256.8487878125,315.10381564335387L257.81851260416664,315.26303947589616L258.78823739583333,315.9052237035144L259.75796218749997,316.12088440187625L260.6439775520833,315.70363044338137L261.43378143229165,314.83122821209855L262.40350622395835,314.17583699916617L263.373231015625,313.72605232533704L264.3429558072917,313.4184815569931L265.3126805989583,312.9134889521726L266.282405390625,312.4785435151176L267.07927565104166,311.2562258214424L268.0490004427083,310.33433538500486L269.018725234375,309.68695166244515L269.9884500260417,309.14772067388543L270.9581748177083,308.46603197288897L271.78874627604165,307.1333691837334L272.75847106770834,306.0321717978682L273.728195859375,305.0887031865815L274.69792065104167,304.69227230743763L275.6676454427083,304.24706352827667L276.637370234375,304.14958854840825L277.60709502604163,304.0911035604872L278.5768198177083,304.33876184866415L279.54654460937496,304.2988570013379L280.51626940104165,304.4068644165239L281.48599419270835,304.3020185780073L282.45571898437504,304.2579615063396L283.4254437760417,304.13727690380375L284.39516856770837,304.04601571084L285.364893359375,303.80275917482936L286.3346181510417,304.1469056846652L287.30434294270833,304.27799366247376L288.1887276041667,304.205846592973L289.1584523958333,303.8232577760162L290.1281771875,303.27325434202805L291.09790197916664,302.86785235354216L292.06762677083333,302.8319614121253L293.03735156249996,303.16857695513573L294.00707635416666,303.4082462449885L294.9768011458333,303.64629817843536L295.9465259375,304.2980793025499L296.9162507291666,304.85879736580887L297.8859755208333,305.13867870711346L298.8557003125,305.62705765571036L299.82542510416664,306.2216847372403L300.79514989583333,306.7104104109019L301.7648746875,307.02249624654115L302.7345994791667,306.68194735243594L303.70432427083335,306.25141823169395L304.656111328125,306.087351118784L305.6258361197917,305.913510922945L306.59556091145834,305.84690676948816L307.565285703125,305.82579381001824L308.53501049479166,305.7565765376856L309.50473528645836,305.7338957068902L310.474460078125,305.53178738818065L311.4441848697917,305.39167286435065L312.4139096614583,305.3830040781456L313.383634453125,304.8500024109338L314.35335924479165,304.51135187800253L315.1230511197916,303.8180611268015L316.05961828125,303.17588689180207L317.0293430729167,303.4880321350812L317.9990678645833,303.8449695686769L318.96879265625,303.68213148953146L319.93851744791664,303.6221286060907L320.90824223958333,303.6615268041192L321.87796703124997,303.59091626223915L322.8476918229167,303.2657997573435L323.81741661458335,303.221529710592L324.78714140625004,302.81796804207636L325.7568661979167,302.44388071738524L326.72659098958337,302.33252821471L327.69631578125,302.20916721645415L328.6660405729167,302.2482505096401L329.63576536458334,302.4225003417376L330.60549015625,301.7542005286242L331.57521494791666,301.42862056884917L332.5237405989583,300.81857208963487L333.493465390625,300.77299314592034L334.46319018229167,300.50059556397053L335.43291497395836,300.73300708670763L336.402639765625,301.02325385653586L337.3723645572917,301.17855238582854L338.3420893489584,301.21518110791544L339.311814140625,301.4445085928422L340.2815389322917,301.20510544333354L341.25126372395835,301.0049131581395L342.22098851562504,300.73399793083723L343.1907133072917,300.8541989742235L344.16043809895837,300.7755197440693L345.130162890625,300.6906122419303L346.0998876822917,300.5831173451582L347.06961247395833,301.06527033518785L348.039337265625,301.3168621651592L349.00906205729166,301.4489677305378L349.97878684895835,301.07583060236914L350.948511640625,300.7576979659327L351.9182364322917,300.887268527885L352.8879612239583,300.9273109010099L353.857686015625,300.9890362889313L354.82741080729164,300.781022204801L355.79713559895833,300.56196339478765L356.76686039062497,301.18452828854726L357.73658518229166,301.97276682931425L358.7063099739583,302.3137605290308L359.676034765625,302.61260620955795L360.6457595572916,302.69766415717703L361.6154843489583,302.95604827858506L362.58520914062495,303.16762914691867L363.55493393229165,304.25592720052305L364.52465872395834,304.5884558888715L365.49438351562503,304.9387738569046L366.46410830729167,305.4694138827005L367.43383309895836,306.16479843748084L368.403557890625,307.4302788108139L369.3732826822917,308.4346172505348L370.1087297916667,308.56597031436735L371.0784545833333,308.49398229648097L372.02154455729163,308.35653912621393L372.9912693489583,308.10442383526356L373.96099414062496,307.89660426520464L374.93071893229165,307.63996219958756L375.9004437239583,307.5236769242638L376.870168515625,307.4539057590695L377.8398933072916,307.1669937430699L378.8096180989583,307.0136960660743L379.77934289062495,307.0725173160629L380.7490676822917,307.07011010200955L381.71879247395833,307.33256642074093L382.688517265625,307.5465897086305L383.65824205729166,307.6750036813642L384.62796684895835,308.2421524964467L385.59769164062504,308.8086415697751L386.5674164322917,309.6197850137721L387.5371412239584,310.46462118803083L388.506866015625,311.0092228566326L389.4765908072917,311.01553371397955L390.44631559895834,310.9250698688525L391.416040390625,310.7953916336833L392.38576518229166,310.6044848004424L393.35548997395836,310.0940906285908L394.325214765625,309.86325405357275L395.2949395572917,309.724752108562L396.2646643489583,309.8301516606259L397.234389140625,310.1384407087474L398.20411393229165,309.9464144971555L399.17383872395834,309.8688987342468L400.143563515625,310.1051394562692L401.11328830729167,310.510783637808L402.0830130989583,310.64107025459185L403.052737890625,310.83234211680156L404.02246268229163,310.9094052700809L404.9921874739583,311.1252930002577L405.96191226562496,311.1605757282476L406.93163705729165,311.3513956526697L407.9013618489583,311.56013751743916L408.871086640625,311.60998270820784L409.8408114322917,311.9226395530177L410.81053622395837,312.16678360597325L411.454120390625,312.2190201276304L412.42384518229164,312.36346193276415L413.39356997395834,312.2427772135888L414.2268592708333,311.6802664000603L415.19658406250005,311.3993094085939L416.0989064583334,311.0987857889704L417.06863125,310.8996211857541L417.90463838541666,310.2900228912201L418.87436317708335,310.0185133751968L419.84408796875,309.7048078093969L420.8138127604167,309.6296843620565L421.7835375520833,309.3772609408156L422.7478266666667,309.13155652853584L423.71755145833333,308.8898835216328L424.68727625,308.5563798972585L425.65700104166666,308.39397768668044L426.62672583333335,308.6546864681942L427.596450625,308.73571180900944L428.5661754166667,309.04822676182397L429.5359002083333,309.25458616495496L430.505625,309.5480520944617L431.47534979166664,309.2528816521658L432.31951044270835,308.6799293148812L433.289235234375,308.2042075889287L434.2589600260417,308.3146246252643L435.2286848177083,308.09812466729795L436.0043559375,307.8739752318211L436.9740807291667,308.1353347436039L437.94380552083334,308.49950070234826L438.91353031250003,308.7745506730836L439.88325510416666,309.1280804757572L440.78231609374996,309.3778983214079L441.75204088541665,309.4146891366588L442.53042984375,308.96551362580936L443.50015463541666,308.7148578519039L444.46987942708336,308.56446438756063L445.43960421875,308.45537877635047L446.4093290104167,308.7669270500892L447.3790538020834,308.84075612219294L448.34877859375,308.64000334973406L449.3185033854167,308.48185172221224L450.28822817708334,308.34926078165273L451.25795296875003,308.25085668471274L452.22767776041667,308.1164142984558L453.19740255208336,308.1488487588411L454.16712734375,308.22485893172296L455.1368521354167,307.9877157545225L455.936440234375,307.54382923699234L456.90616502604166,307.2963477579166L457.8285994270833,306.9593590502387L458.79832421875,306.7948657896784L459.54083770833336,306.4134196535747L460.5105625,306.07145207977294L461.4802872916667,305.52697096023564L462.33966783854163,304.710182755909L463.3093926302083,304.0316100130806L464.279117421875,303.69986629547657L465.24884221354165,304.33022017277466L466.21856700520834,304.821532391293L467.188291796875,305.36136903928707L468.15801658854167,305.5156216392934L469.1277413802083,305.4950733071577L470.097466171875,305.3507939842946L470.77746937499995,304.73642599508804L471.74719416666665,304.2924052734711L472.7169189583333,304.15794316408267L473.68664375000003,304.0018659703567L474.65636854166667,303.81396929458583L475.62609333333336,303.7200817205656L476.4207893229167,303.2867486368506L477.39051411458337,303.12099914615686L478.27218093749997,302.77649923601945L479.24190572916666,302.62634968542574L480.0958505989583,302.0650099550695L481.065575390625,301.7659060809023L482.0353001822917,301.28484404403014L483.00502497395837,300.97735639046454L483.974749765625,300.9625140859534L484.9444745572917,300.9347582718044L485.91419934895833,300.993504711408L486.883924140625,301.06645253921664L487.85364893229166,301.5249217392511L488.82337372395835,301.44185315141124L489.6224182552083,300.7888116751256L490.409504296875,299.4921867534007L491.37922908854165,298.45031205204043L492.34895388020834,298.2398868357355L493.2833467708333,297.680081669999L494.2530715625,297.02374932558115L495.22279635416663,296.7241993796275L496.1925211458333,296.75181966373003L497.16224593749996,296.6741414746563L498.13197072916665,296.0431846690727L498.7804470052084,294.98601123288586L499.75017179687495,294.2574568116386L500.43778494791667,293.17942387126203L501.4075097395833,292.3252547541995L502.32396489583334,291.7750524210774L503.29368968750003,291.4260805897619L504.26341447916667,290.8585482819501L505.23313927083336,290.93272940061235L506.2028640625,291.07148843134485L507.1725888541667,291.0039421959224L508.1423136458333,291.5100652815999L509.1120384375,291.62523931277406L510.08176322916665,291.78859409101375L511.05148802083335,291.50960731749274L512.0212128124999,291.8323147859844L512.9909376041667,291.7997385839625L513.9606623958333,291.85559279084225L514.8358064062501,291.96450524306306L515.8055311979167,292.1995030020238L516.7752559895833,292.43475201693536L517.74498078125,292.63245092253305L518.7147055729167,292.5625704456593L519.6844303645834,292.3509927707449L520.65415515625,292.2240461657962L521.6238799479166,291.9970783466411L522.5936047395834,292.04939657654245L523.56332953125,292.13733790997196L524.4863075000001,292.2089531414719L525.4560322916667,292.5535219927437L526.4257570833333,293.2126628720645L527.395481875,293.3819476153782L528.3652066666667,293.3515681377846L529.026185,292.88094088267076L529.79261546875,292.61741496104474L530.7623402604166,292.1199988328127L531.7320650520834,291.7838500906651L532.70178984375,291.46906005439905L533.6715146354167,291.167085241662L534.6412394270833,291.1367020078817L535.423433359375,290.7226219957065L536.3931581510416,290.9642726221675L537.3628829427083,290.9961640047428L538.1445333072917,290.864498978102L539.0392457552083,290.89859895541895L540.0089705468749,290.7682590856232L540.9786953385417,290.59580480421056L541.8554700520833,290.5865825948981L542.5936350000001,290.29829998838113L543.2774431770833,289.8802802087498L543.9596206510416,289.2147678376217L544.7733415104167,288.19341055875896L545.7430663020834,287.58059619144126L546.71279109375,287.45795778677183L547.6825158854167,287.6294249596913L548.6522406770833,287.9773554791641L549.5165133333334,288.054162568428L550.486238125,288.3452970377075L551.4559629166666,288.53882815071745L552.4256877083334,289.01309602754594L553.2220144010417,288.8641076165276L554.1917391927084,288.7181650732658L555.161463984375,289.0829991158665L556.04041296875,289.11339882235654L557.0101377604167,289.01853965294913L557.7064479947917,288.0945240793976L558.6761727864583,287.44586437573156L559.645897578125,287.16976934450935L560.6156223697917,287.19261124717036L561.5445795833334,287.0743669640234L562.1990351041667,286.38137053794924L563.1171209635417,286.3614227542118L563.8797464583333,286.02900394015523L564.6021479427083,284.98130301125656L565.571872734375,284.2772825258244L566.49648140625,283.68521994693685L567.3161815104168,283.0283826872326L568.0923961979167,282.5965794685254L568.9892829166668,282.09244732158004L569.723642890625,281.75226896820436L570.6933676822916,281.51046109329445L571.621781328125,281.6104265840696L572.5817219010416,281.51960602234885L573.3840278385417,281.3708633257811L574.3537526302083,281.0177188583532L575.2756434635417,280.6361818902683L576.2453682552083,280.23760942178916L577.215093046875,279.8476660845157L578.1848178385417,279.4251993630813L579.1545426302084,279.0586203369192L579.957935703125,278.74442256168675L580.6080426822916,278.55590389654725L581.269021015625,278.2731424098354L582.2387458072917,277.95268566162235L583.1253047395833,277.51536139697345L583.8689053645833,277.40376669437L584.673929140625,277.52531059187834L585.5632059114583,277.14583556414954L586.5329307031251,276.974701841839L587.5026554947916,276.4573211051034L588.45226828125,276.1657430945043L589.4219930729166,276.51859578479554L590.3917178645834,276.6737579023196L591.2886045833334,276.9742045256706L592.258329375,277.09792300303053L593.2280541666667,277.37950344228307L593.7917338802083,276.7379029282544L594.761458671875,276.4848920445808L595.7311834635417,276.59698436386395L596.7009082552083,276.438039971155L597.670633046875,276.38037419841413L598.6403578385416,276.138425381933L599.6100826302084,275.88015530106685L600.269973828125,274.8203923177556L600.9298650260416,273.80753488730403L601.6995569010417,272.8982207166613L602.6692816927083,272.63538329288133L603.639006484375,272.4776808386133L604.3967398697916,272.3076576402835L605.1446890364583,271.99829436844897L606.1144138281251,271.6241774839539L607.001516328125,270.9096069218146L607.9712411197917,270.4054646564381L608.785505546875,269.4432285781417L609.4812722135417,268.2061380097696L610.4509970052084,267.5581322306054L611.3087468489583,266.88657948217735L612.278471640625,266.4082479050275L613.0715369270833,265.49919910255176L614.0412617187501,264.50137025250854L614.9109700520834,263.4879724391333L615.88069484375,263.2003838949222L616.8504196354166,262.9335804088604L617.5836924739583,263.1316475262458L618.4941683854166,263.34473815621226L619.3421340104167,263.227542318471L620.3118588020833,263.1760752472685L621.0772021354167,262.61739550789633L621.77079453125,262.0182870171096L622.4975445572917,261.3006727136151L623.3090911458333,260.9078031967268L623.8852729166667,259.8049814146867L624.820209375,259.162138776905L625.6643700260418,258.94608348186415L626.5955015104166,258.8918502329326L627.4597741666666,258.3503594206891L628.04574015625,257.17721529287826L629.0154649479166,256.3413793914481L629.7541734635416,256.12262713151955L630.7238982552083,256.3872258474695L631.5919758854167,256.8664352208535L632.4654891927083,257.6063604134417L633.435213984375,258.0880163918791L634.1722917968749,257.67956019466266L635.0327594791667,257.17058582916945L635.8399575260416,256.45050070652417L636.6623754687499,255.8676497767511L637.52338671875,255.36713936270138L638.4061406770833,254.7463847681335L639.1633304947916,254.4681805732519L640.1330552864583,254.62170820013708L640.8592617447916,254.61957441673295L641.8289865364584,254.58059508148204L642.798711328125,254.7645568331681L643.7684361197917,255.1011336684586L644.484858359375,255.5669804167963L645.2067162760417,255.50718789054253L646.1764410677084,255.50901323767482L647.146165859375,255.13310880548943L648.1158906510417,255.2657153552007L648.99049109375,255.92963007600494L649.9553237760417,256.36567797369594L650.9250485677084,256.92890642468234L651.7050682291666,258.15279399862345L652.2921213541667,258.2085271901516L653.2618461458333,258.11001588264867L654.2315709375,258.18286032056665L655.0947564583333,258.4339163361541L655.8845603385416,258.49029958597134L656.6765384895833,258.4487296077687L657.6462632812501,258.4991875489401L658.6159880729166,258.7745125293641L659.3264310677083,258.6192573738044L660.296155859375,258.639205071446L661.0082295572917,258.27417225189015L661.9654522916667,257.9986030635059L662.9351770833333,258.3233619819176L663.904901875,258.42396697342946L664.8746266666667,258.29583104694217L665.7568370572917,258.08699826863005L666.5569687239583,258.206748817364L667.526693515625,258.6367501533029L668.3915097395834,259.271750595331L669.346558203125,259.8412497819423L670.0955945052083,260.10754936581606L671.019659609375,260.09767882851213L671.9893844010417,260.24255815999186L672.8563748958333,260.4991342488317L673.7798964322917,260.6719303335779L674.7496212239583,261.17145805633265L675.719346015625,261.9235742585432L676.5564402864583,262.1109451303823L677.3788582291667,261.82751758157866L678.3485830208333,262.015610261319L679.0421754166666,261.63836543772095L680.0119002083334,261.29891955026073L680.904981953125,261.69845144252827L681.8747067447918,261.84392021835356L682.6346144010417,261.4976523467333L683.6043391927083,261.66689126422585L684.4512176822916,261.29718461472146L685.4209424739583,261.1130614879033L686.390667265625,261.28533689274195L687.140790703125,261.87880256708746L688.0137604427083,262.7815318997877L688.8845559114584,263.17236964322194L689.5922810677083,262.8036710668627L690.5620058593751,262.5824519210472L691.3175649739583,262.35547187169874L692.274244140625,262.29468377018264L693.2439689322916,262.5221097587603L694.2136937239583,263.1486657833491L695.04807015625,263.882748607125L696.0177949479167,264.8698500271595L696.9434907552084,265.9710599443887" style="fill: none;" fill="none"></path></g></g></g></g><g opacity="0.2"><g><g><g><path stroke="rgb(255, 112, 67)" stroke-width="2px" d="M109.68326645833334,311.025L110.65299125,299.24375L111.62271604166666,309.45416591763495L112.59244083333333,312.203125L113.56216562499999,310.082500898838L114.53189041666667,318.09375L115.50161520833333,319.103570947051L116.47134000000001,319.8609375L117.44106479166668,317.83194431960584L118.41078958333334,318.09375L119.380514375,318.3079543411732L120.35023916666667,320.84270852059126L121.31996395833333,320.8125002592802L122.28968875,324.15267849117515L123.25941354166666,324.84833307117225L124.22913833333332,321.33359375L125.19886312499999,321.8360296100378L126.16858791666665,320.45L127.13831270833332,319.9539470136166L128.10803750000002,321.628125L129.0777622916667,320.0011899411678L130.04748708333335,320.02159131765364L131.01721187500002,320.85978251099584L131.98693666666668,321.0390625L132.95666145833334,317.9995000898838L133.92638625,318.4562502592802L134.89611104166667,318.1810181856155L135.86583583333334,318.7669639647007L136.835560625,318.9874994963408L137.80528541666666,319.8216661423445L138.77501020833333,320.45L139.744735,320.302734375L140.71445979166666,320.45L141.68418458333332,326.8257351949811L142.653909375,325.0278568699956L143.62363416666668,324.5079863607883L144.59335895833334,324.78040563315153L145.56308375,324.2944078356028L146.53280854166667,323.83333313167094L147.50253333333333,323.6309372752905L148.472258125,322.74878054261205L149.44198291666666,322.69404748529195L150.41170770833332,322.3130811601877L151.3814325,323.3417614147067L152.35115729166665,322.96333318352697L153.32088208333332,322.90869562774895L154.29060687499998,321.5529254004359L155.26033166666664,321.72630227059125L156.2300564583333,322.4696430176497L157.19978125,322.33499988764527L158.16950604166666,322.20563743114474L159.13923083333333,320.2687504321337L160.10895562500002,319.64976449012755L161.07868041666669,319.5773147732019L162.04840520833335,317.8795456588268L163.01813,318.85111655294895L163.98785479166668,319.1271935343742L164.95757958333334,319.71875030994414L165.927304375,320.529872995615L166.89702916666667,320.5285415917635L167.86675395833333,320.99077860563995L168.83647875,321.5901210039854L169.80620354166666,321.79642849117516L170.77592833333333,321.7017578125L171.74565312500002,322.11750018149615L172.71537791666668,322.4492422029376L173.68510270833335,322.700746075809L174.6548275,322.80625L175.62455229166667,323.6599635645747L176.59427708333334,323.7487502247095L177.564001875,323.9677818879485L178.53372666666667,323.65711818039415L179.50345145833333,323.5486301138997L180.47317625,323.5704392954707L181.44290104166666,323.7173335880041L182.41262583333332,323.61233526021243L183.382350625,323.63246754705904L184.35207541666665,323.59166647940873L185.32180020833331,324.56598107665775L186.291525,324.45562511235477L187.26124979166667,324.6970681786537L188.23097458333334,324.8751527130604L189.200699375,324.935391715169L190.11008815104165,323.25505949705837L191.07981294270832,323.443823350966L192.023446484375,322.14869210869074L192.99317127604166,322.72500009685757L193.96289606770833,322.2707385852933L194.932620859375,322.1443821802735L195.90234565104166,321.6543053433299L196.87207044270832,320.96785711199044L197.84179523437498,320.9622281387448L198.79521299479165,320.9060485139489L199.76493778645832,319.8484043270349L200.73466257812498,319.3586836546659L201.70438736979165,319.51731733381746L202.6741121614583,318.7981963396072L203.64383695312497,318.28609684705737L204.61356174479167,317.8795456588268L205.58328653645833,317.9052501797676L206.553011328125,319.1305001348257L207.5227361197917,319.271875L208.49246091145835,318.3293747752905L209.46218570312502,317.9995000898838L210.43191049479168,318.1408749550581L211.40163528645834,317.71675035953524L212.371360078125,317.8581252247095L213.34108486979167,317.9995000898838L214.31080966145834,318.47074964046476L215.280534453125,318.3293747752905L216.25025924479166,318.1879999101162L217.21998403645833,318.564999550581L218.189708828125,318.6592494606972L219.15943361979168,318.09375L220.12915841145835,317.8110002696514L221.098883203125,317.5282505393028L222.06860799479168,317.3397495955229L223.03833278645834,318.2822498202324L224.008057578125,318.47074964046476L224.97778236979167,318.09375L225.94750716145833,318.6592494606972L226.917231953125,318.9420003145933L227.88695674479166,318.6121245056391L228.85668153645832,318.8948753595352L229.826406328125,319.978750449419L230.79613111979165,319.6017496854067L231.76585591145832,319.79024950563905L232.73558070312498,319.6488746404648L233.5884384375,319.271875L234.55816322916667,320.1672502696514L235.52788802083333,319.9316254943609L236.4976128125,320.0258754044771L237.46733760416666,318.9891252696514L238.43706239583332,317.0098749101162L239.4067871875,317.0098749101162L240.37651197916665,316.8213750898838L241.34623677083331,316.7742501348257L242.31596156249998,316.444375449419L243.28568635416664,316.0202497303486L244.25541114583334,315.9259998202324L245.2251359375,316.11449964046477L246.19486072916666,316.208749550581L247.16458552083333,315.6903750449419L248.1343103125,315.2191254943609L249.10403510416666,315.26625044941903L250.07375989583332,315.54900017976763L251.0304390625,314.74787482023237L252.00016385416666,314.7007498651743L252.96988864583332,314.1352504044771L253.9396134375,314.74787482023237L254.90933822916665,314.6536249101162L255.8790630208333,315.0777495056391L256.8487878125,315.5018752247095L257.81851260416664,315.5018752247095L258.78823739583333,316.8685000449419L259.75796218749997,316.444375449419L260.6439775520833,315.0777495056391L261.43378143229165,313.5226248651743L262.40350622395835,313.1927501797676L263.373231015625,313.0513753145933L264.3429558072917,312.9571254044771L265.3126805989583,312.1560000449419L266.282405390625,311.82612535953524L267.07927565104166,309.42274928092957L268.0490004427083,308.9514997303486L269.018725234375,308.7158760786057L269.9884500260417,308.33887419104576L270.9581748177083,307.44349892139434L271.78874627604165,305.134375L272.75847106770834,304.38037571907046L273.728195859375,303.6735002696514L274.69792065104167,304.09762598872186L275.6676454427083,303.5792503595352L276.637370234375,304.00337607860564L277.60709502604163,304.00337607860564L278.5768198177083,304.7102492809296L279.54654460937496,304.2389997303486L280.51626940104165,304.56887553930284L281.48599419270835,304.1447498202324L282.45571898437504,304.191875898838L283.4254437760417,303.95625L284.39516856770837,303.9091239213943L285.364893359375,303.43787437081335L286.3346181510417,304.663125449419L287.30434294270833,304.4746256291866L288.1887276041667,304.09762598872186L289.1584523958333,303.24937455058097L290.1281771875,302.44824919104576L291.09790197916664,302.2597493708134L292.06762677083333,302.778125L293.03735156249996,303.6735002696514L294.00707635416666,303.76775017976763L294.9768011458333,304.00337607860564L295.9465259375,305.2757509887218L296.9162507291666,305.6998744606972L297.8859755208333,305.5585007190704L298.8557003125,306.35962607860563L299.82542510416664,307.1136253595352L300.79514989583333,307.44349892139434L301.7648746875,307.490625L302.7345994791667,306.17112401127815L303.70432427083335,305.60562455058096L304.656111328125,305.841250449419L305.6258361197917,305.65275062918664L306.59556091145834,305.7470005393028L307.565285703125,305.7941243708134L308.53501049479166,305.65275062918664L309.50473528645836,305.6998744606972L310.474460078125,305.2286249101162L311.4441848697917,305.18150107860566L312.4139096614583,305.37000089883804L313.383634453125,304.0504999101162L314.35335924479165,304.00337607860564L315.1230511197916,302.778125L316.05961828125,302.21262553930285L317.0293430729167,303.95625L317.9990678645833,304.38037571907046L318.96879265625,303.43787437081335L319.93851744791664,303.53212428092957L320.90824223958333,303.72062410116195L321.87796703124997,303.48500044941903L322.8476918229167,302.778125L323.81741661458335,303.1551246404648L324.78714140625004,302.21262553930285L325.7568661979167,301.88274973034856L326.72659098958337,302.16549946069716L327.69631578125,302.0241257190704L328.6660405729167,302.306875449419L329.63576536458334,302.6838750898838L330.60549015625,300.7517508089542L331.57521494791666,300.9402506291866L332.5237405989583,299.9034993708134L333.493465390625,300.7046247303486L334.46319018229167,300.0919991910458L335.43291497395836,301.08162437081336L336.402639765625,301.4586240112782L337.3723645572917,301.4115001797676L338.3420893489584,301.27012419104574L339.311814140625,301.7884998202324L340.2815389322917,300.84600071907045L341.25126372395835,300.7046247303486L342.22098851562504,300.3276250898838L343.1907133072917,301.0345005393028L344.16043809895837,300.65750089883807L345.130162890625,300.56325098872185L346.0998876822917,300.421875L347.06961247395833,301.7884998202324L348.039337265625,301.6942499101162L349.00906205729166,301.64712607860565L349.97878684895835,300.5161249101162L350.948511640625,300.28049901127815L351.9182364322917,301.08162437081336L352.8879612239583,300.9873744606972L353.857686015625,301.08162437081336L354.82741080729164,300.46900107860563L355.79713559895833,300.2333751797676L356.76686039062497,302.11837562918663L357.73658518229166,303.1551246404648L358.7063099739583,302.8252510786057L359.676034765625,303.0608747303486L360.6457595572916,302.8252510786057L361.6154843489583,303.3436244606972L362.58520914062495,303.48500044941903L363.55493393229165,305.88837428092955L364.52465872395834,305.08724892139435L365.49438351562503,305.46425080895426L366.46410830729167,306.26537392139437L367.43383309895836,307.2078752696514L368.403557890625,309.32849937081335L369.3732826822917,309.9411249101162L370.1087297916667,308.7629999101162L371.0784545833333,308.3860002696514L372.02154455729163,308.1503743708134L372.9912693489583,307.72625089883803L373.96099414062496,307.5848749101162L374.93071893229165,307.25499910116196L375.9004437239583,307.3492490112782L376.870168515625,307.3492490112782L377.8398933072916,306.73662571907045L378.8096180989583,306.783749550581L379.77934289062495,307.16074919104574L380.7490676822917,307.0664992809296L381.71879247395833,307.72625089883803L382.688517265625,307.8676246404648L383.65824205729166,307.8676246404648L384.62796684895835,309.09287571907043L385.59769164062504,309.65837517976763L386.5674164322917,310.8365001797676L387.5371412239584,311.731875449419L388.506866015625,311.82612535953524L389.4765908072917,311.025L390.44631559895834,310.78937410116197L391.416040390625,310.6008742809296L392.38576518229166,310.318124550581L393.35548997395836,309.32849937081335L394.325214765625,309.5169991910458L395.2949395572917,309.5169991910458L396.2646643489583,309.98825098872186L397.234389140625,310.6008742809296L398.20411393229165,309.65837517976763L399.17383872395834,309.7526250898838L400.143563515625,310.45950053930284L401.11328830729167,311.1192499101162L402.0830130989583,310.8365001797676L403.052737890625,311.1192499101162L404.02246268229163,311.025L404.9921874739583,311.4491245955229L405.96191226562496,311.2134998202324L406.93163705729165,311.6376255393028L407.9013618489583,311.8732503145933L408.871086640625,311.6847504943609L409.8408114322917,312.3916248202324L410.81053622395837,312.5329996854067L411.454120390625,312.2973749101162L412.42384518229164,312.58012464046476L413.39356997395834,312.06175013482573L414.2268592708333,310.8365001797676L415.19658406250005,310.97787392139435L416.0989064583334,310.6480003595352L417.06863125,310.6008742809296L417.90463838541666,309.37562544941903L418.87436317708335,309.61124910116195L419.84408796875,309.2342494606972L420.8138127604167,309.5169991910458L421.7835375520833,308.9986258089542L422.7478266666667,308.7629999101162L423.71755145833333,308.52737401127814L424.68727625,308.05612446069716L425.65700104166666,308.1503743708134L426.62672583333335,309.0457496404648L427.596450625,308.85724982023237L428.5661754166667,309.5169991910458L429.5359002083333,309.5641252696514L430.505625,309.98825098872186L431.47534979166664,308.81012598872184L432.31951044270835,307.82050080895425L433.289235234375,307.490625L434.2589600260417,308.4802501797676L435.2286848177083,307.77337473034856L436.0043559375,307.53775107860565L436.9740807291667,308.52737401127814L437.94380552083334,309.0457496404648L438.91353031250003,309.18712562918665L439.88325510416666,309.65837517976763L440.78231609374996,309.7526250898838L441.75204088541665,309.4698753595352L442.53042984375,308.29175035953523L443.50015463541666,308.33887419104576L444.46987942708336,308.33887419104576L445.43960421875,308.29175035953523L446.4093290104167,309.2342494606972L447.3790538020834,308.9514997303486L448.34877859375,308.33887419104576L449.3185033854167,308.24462428092954L450.28822817708334,308.1503743708134L451.25795296875003,308.10325053930285L452.22767776041667,307.9147507190704L453.19740255208336,308.197500449419L454.16712734375,308.33887419104576L455.1368521354167,307.63200098872187L455.936440234375,306.8779994606972L456.90616502604166,306.9251255393028L457.8285994270833,306.45387598872185L458.79832421875,306.54812589883807L459.54083770833336,305.841250449419L460.5105625,305.5585007190704L461.4802872916667,304.7102492809296L462.33966783854163,303.48500044941903L463.3093926302083,303.01375089883805L464.279117421875,303.20225071907043L465.24884221354165,305.2757509887218L466.21856700520834,305.5585007190704L467.188291796875,306.17112401127815L468.15801658854167,305.7470005393028L469.1277413802083,305.46425080895426L470.097466171875,305.134375L470.77746937499995,303.81487401127816L471.74719416666665,303.6263741910458L472.7169189583333,303.95625L473.68664375000003,303.76775017976763L474.65636854166667,303.53212428092957L475.62609333333336,303.5792503595352L476.4207893229167,302.63674901127814L477.39051411458337,302.8723749101162L478.27218093749997,302.2597493708134L479.24190572916666,302.40112535953523L480.0958505989583,301.2230003595352L481.065575390625,301.3172502696514L482.0353001822917,300.56325098872185L483.00502497395837,300.5161249101162L483.974749765625,300.9402506291866L484.9444745572917,300.893124550581L485.91419934895833,301.08162437081336L486.883924140625,301.1758742809296L487.85364893229166,302.21262553930285L488.82337372395835,301.3172502696514L489.6224182552083,299.8092494606972L490.409504296875,297.54724937081335L491.37922908854165,296.8875L492.34895388020834,297.92424901127816L493.2833467708333,296.84037392139436L494.2530715625,296.03925080895425L495.22279635416663,296.27487446069716L496.1925211458333,296.7932500898838L497.16224593749996,296.55762419104576L498.13197072916665,295.0967494606972L498.7804470052084,293.40025107860566L499.75017179687495,293.1646251797676L500.43778494791667,291.5623744606972L501.4075097395833,291.0440010786057L502.32396489583334,290.94974892139436L503.29368968750003,290.9026228427887L504.26341447916667,290.0072498202324L505.23313927083336,291.0440010786057L506.2028640625,291.2796269774437L507.1725888541667,290.9026228427887L508.1423136458333,292.2692499101162L509.1120384375,291.7980003595352L510.08176322916665,292.03362625837326L511.05148802083335,291.0911271572113L512.0212128124999,292.31637598872186L512.9909376041667,291.75087428092957L513.9606623958333,291.93937410116195L514.8358064062501,292.1278739213943L515.8055311979167,292.55199964046477L516.7752559895833,292.78762553930284L517.74498078125,292.9289992809296L518.7147055729167,292.4577497303486L519.6844303645834,292.03362625837326L520.65415515625,292.03362625837326L521.6238799479166,291.6566266179085L522.5936047395834,292.1278739213943L523.56332953125,292.2692499101162L524.4863075000001,292.31637598872186L525.4560322916667,293.07037526965144L526.4257570833333,294.2013741910458L527.395481875,293.6358747303486L528.3652066666667,293.30599892139435L529.026185,292.175L529.79261546875,292.22212607860564L530.7623402604166,291.3738746404648L531.7320650520834,291.2796269774437L532.70178984375,290.996875L533.6715146354167,290.7141230225563L534.6412394270833,291.0911271572113L535.423433359375,290.1015019774437L536.3931581510416,291.3267485618591L537.3628829427083,291.0440010786057L538.1445333072917,290.66700143814086L539.0392457552083,290.94974892139436L540.0089705468749,290.57274928092954L540.9786953385417,290.33712338209153L541.8554700520833,290.57274928092954L542.5936350000001,289.86587607860565L543.2774431770833,289.2532505393028L543.9596206510416,288.21649928092955L544.7733415104167,286.66137464046477L545.7430663020834,286.66137464046477L546.71279109375,287.2740001797676L547.6825158854167,287.8866257190704L548.6522406770833,288.49925125837325L549.5165133333334,288.1693732023239L550.486238125,288.78199874162675L551.4559629166666,288.8291248202324L552.4256877083334,289.7244978427887L553.2220144010417,288.640625L554.1917391927084,288.49925125837325L555.161463984375,289.6302501797676L556.04041296875,289.1589983820915L557.0101377604167,288.87625089883807L557.7064479947917,286.70850071907046L558.6761727864583,286.4728748202324L559.645897578125,286.7556267976761L560.6156223697917,287.22687410116197L561.5445795833334,286.89700053930284L562.1990351041667,285.34187589883805L563.1171209635417,286.33150107860564L563.8797464583333,285.53037571907043L564.6021479427083,283.40975161790846L565.571872734375,283.2212517976761L566.49648140625,282.79712607860563L567.3161815104168,282.0431267976761L568.0923961979167,281.9488746404648L568.9892829166668,281.33624910116197L569.723642890625,281.24200143814085L570.6933676822916,281.1477492809296L571.621781328125,281.7603748202324L572.5817219010416,281.3833751797676L573.3840278385417,281.1477492809296L574.3537526302083,280.4880021572113L575.2756434635417,280.0638764381409L576.2453682552083,279.63975071907043L577.215093046875,279.2627510786057L578.1848178385417,278.79149928092954L579.1545426302084,278.5087517976761L579.957935703125,278.27312589883803L580.6080426822916,278.27312589883803L581.269021015625,277.8490001797676L582.2387458072917,277.4720005393028L583.1253047395833,276.859375L583.8689053645833,277.23637464046476L584.673929140625,277.7076264381409L585.5632059114583,276.5766230225563L586.5329307031251,276.71800125837325L587.5026554947916,275.68125L588.45226828125,275.72837607860566L589.4219930729166,277.0478748202324L590.3917178645834,276.90650107860563L591.2886045833334,277.4248744606972L592.258329375,277.28350071907045L593.2280541666667,277.80187410116196L593.7917338802083,275.7755021572113L594.761458671875,276.1053757190704L595.7311834635417,276.7651228427887L596.7009082552083,276.19962338209154L597.670633046875,276.2938755393028L598.6403578385416,275.7755021572113L599.6100826302084,275.4927501797676L600.269973828125,273.2307478427887L600.9298650260416,272.2882487416267L601.6995569010417,271.5342494606972L602.6692816927083,272.2411271572113L603.639006484375,272.2411271572113L604.3967398697916,272.0526228427887L605.1446890364583,271.5342494606972L606.1144138281251,271.0630021572113L607.001516328125,269.83775107860566L607.9712411197917,269.6492512583733L608.785505546875,267.9998744606972L609.4812722135417,266.3505021572113L610.4509970052084,266.58612356185915L611.3087468489583,265.8792503595352L612.278471640625,265.6907505393028L613.0715369270833,264.13562589883804L614.0412617187501,263.0046269774437L614.9109700520834,261.96787571907043L615.88069484375,262.76900107860564L616.8504196354166,262.53337517976763L617.5836924739583,263.4287482023239L618.4941683854166,263.66437410116197L619.3421340104167,263.05174856185914L620.3118588020833,263.09887464046477L621.0772021354167,261.77937589883805L621.77079453125,261.11962428092954L622.4975445572917,260.2242512583733L623.3090911458333,260.31849892139434L623.8852729166667,258.1507487416267L624.820209375,258.1978748202324L625.6643700260418,258.6220005393028L626.5955015104166,258.81050035953524L627.4597741666666,257.5381232023239L628.04574015625,255.41749910116195L629.0154649479166,255.08762553930282L629.7541734635416,255.79449874162674L630.7238982552083,256.7841239213943L631.5919758854167,257.5852492809296L632.4654891927083,258.7162482023239L633.435213984375,258.81050035953524L634.1722917968749,257.066875898838L635.0327594791667,256.40712428092957L635.8399575260416,255.3703730225563L636.6623754687499,254.99337338209153L637.52338671875,254.61637374162675L638.4061406770833,253.81525287628173L639.1633304947916,254.05087428092958L640.1330552864583,254.85199964046478L640.8592617447916,254.61637374162675L641.8289865364584,254.52212607860565L642.798711328125,255.04049946069716L643.7684361197917,255.60599892139436L644.484858359375,256.2657505393028L645.2067162760417,255.41749910116195L646.1764410677084,255.51175125837327L647.146165859375,254.5692521572113L648.1158906510417,255.4646251797676L648.99049109375,256.9255021572113L649.9553237760417,257.0197498202324L650.9250485677084,257.77374910116197L651.7050682291666,259.9886253595352L652.2921213541667,258.2921269774437L653.2618461458333,257.96224892139435L654.2315709375,258.2921269774437L655.0947564583333,258.81050035953524L655.8845603385416,258.5748744606972L656.6765384895833,258.3863746404648L657.6462632812501,258.5748744606972L658.6159880729166,259.1875L659.3264310677083,258.3863746404648L660.296155859375,258.6691266179085L661.0082295572917,257.7266230225563L661.9654522916667,257.5852492809296L662.9351770833333,258.81050035953524L663.904901875,258.5748744606972L664.8746266666667,258.1036271572113L665.7568370572917,257.77374910116197L666.5569687239583,258.3863746404648L667.526693515625,259.2817521572113L668.3915097395834,260.2242512583733L669.346558203125,260.69549856185915L670.0955945052083,260.5069987416267L671.019659609375,260.0828730225563L671.9893844010417,260.4598771572113L672.8563748958333,260.88399838209153L673.7798964322917,260.93112446069716L674.7496212239583,261.9207496404648L675.719346015625,263.05174856185914L676.5564402864583,262.3920014381409L677.3788582291667,261.40237625837324L678.3485830208333,262.29774928092957L679.0421754166666,261.0724982023239L680.0119002083334,260.7897507190704L680.904981953125,262.29774928092957L681.8747067447918,262.0621233820915L682.6346144010417,260.97825053930285L683.6043391927083,261.9207496404648L684.4512176822916,260.7426246404648L685.4209424739583,260.8368767976761L686.390667265625,261.54375L687.140790703125,262.76900107860564L688.0137604427083,264.13562589883804L688.8845559114584,263.7586262583733L689.5922810677083,262.25062320232394L690.5620058593751,262.25062320232394L691.3175649739583,262.01500179767606L692.274244140625,262.2035016179085L693.2439689322916,262.86324874162676L694.2136937239583,264.0884998202324L695.04807015625,264.9838728427887L696.0177949479167,266.3505021572113L696.9434907552084,267.62287482023237" style="fill: none;" fill="none"></path></g></g></g></g></g></g><g transform="translate(39, 377)" clip-path="url(#clip_1)"><clipPath id="clip_1"><rect width="978" height="23"></rect></clipPath><g><g><line x1="0" y1="0" x2="0" y2="5" style="visibility: inherit;" fill="rgb(0, 0, 0)" stroke="rgb(204, 204, 204)" stroke-width="1px"></line><line x1="108.71354166666666" y1="0" x2="108.71354166666666" y2="5" style="visibility: inherit;" fill="rgb(0, 0, 0)" stroke="rgb(204, 204, 204)" stroke-width="1px"></line><line x1="217.42708333333331" y1="0" x2="217.42708333333331" y2="5" style="visibility: inherit;" fill="rgb(0, 0, 0)" stroke="rgb(204, 204, 204)" stroke-width="1px"></line><line x1="326.140625" y1="0" x2="326.140625" y2="5" style="visibility: inherit;" fill="rgb(0, 0, 0)" stroke="rgb(204, 204, 204)" stroke-width="1px"></line><line x1="434.85416666666663" y1="0" x2="434.85416666666663" y2="5" style="visibility: inherit;" fill="rgb(0, 0, 0)" stroke="rgb(204, 204, 204)" stroke-width="1px"></line><line x1="543.5677083333334" y1="0" x2="543.5677083333334" y2="5" style="visibility: inherit;" fill="rgb(0, 0, 0)" stroke="rgb(204, 204, 204)" stroke-width="1px"></line><line x1="652.28125" y1="0" x2="652.28125" y2="5" style="visibility: inherit;" fill="rgb(0, 0, 0)" stroke="rgb(204, 204, 204)" stroke-width="1px"></line><line x1="760.9947916666666" y1="0" x2="760.9947916666666" y2="5" style="visibility: inherit;" fill="rgb(0, 0, 0)" stroke="rgb(204, 204, 204)" stroke-width="1px"></line><line x1="869.7083333333333" y1="0" x2="869.7083333333333" y2="5" style="visibility: inherit;" fill="rgb(0, 0, 0)" stroke="rgb(204, 204, 204)" stroke-width="1px"></line><line x1="978.421875" y1="0" x2="978.421875" y2="5" style="visibility: inherit;" fill="rgb(0, 0, 0)" stroke="rgb(204, 204, 204)" stroke-width="1px"></line></g><g transform="translate(0, 8)"><text x="0" y="0" dx="0em" dy="0.95em" style="text-anchor: middle; visibility: hidden; font-family: &quot;Helvetica Neue&quot;, sans-serif; font-size: 12px; font-weight: 200;" fill="rgb(50, 49, 63)" stroke="none" stroke-width="1px">-200k</text><text x="108.71354166666666" y="0" dx="0em" dy="0.95em" style="text-anchor: middle; visibility: inherit; font-family: &quot;Helvetica Neue&quot;, sans-serif; font-size: 12px; font-weight: 200;" fill="rgb(50, 49, 63)" stroke="none" stroke-width="1px">0</text><text x="217.42708333333331" y="0" dx="0em" dy="0.95em" style="text-anchor: middle; visibility: inherit; font-family: &quot;Helvetica Neue&quot;, sans-serif; font-size: 12px; font-weight: 200;" fill="rgb(50, 49, 63)" stroke="none" stroke-width="1px">200k</text><text x="326.140625" y="0" dx="0em" dy="0.95em" style="text-anchor: middle; visibility: inherit; font-family: &quot;Helvetica Neue&quot;, sans-serif; font-size: 12px; font-weight: 200;" fill="rgb(50, 49, 63)" stroke="none" stroke-width="1px">400k</text><text x="434.85416666666663" y="0" dx="0em" dy="0.95em" style="text-anchor: middle; visibility: inherit; font-family: &quot;Helvetica Neue&quot;, sans-serif; font-size: 12px; font-weight: 200;" fill="rgb(50, 49, 63)" stroke="none" stroke-width="1px">600k</text><text x="543.5677083333334" y="0" dx="0em" dy="0.95em" style="text-anchor: middle; visibility: inherit; font-family: &quot;Helvetica Neue&quot;, sans-serif; font-size: 12px; font-weight: 200;" fill="rgb(50, 49, 63)" stroke="none" stroke-width="1px">800k</text><text x="652.28125" y="0" dx="0em" dy="0.95em" style="text-anchor: middle; visibility: inherit; font-family: &quot;Helvetica Neue&quot;, sans-serif; font-size: 12px; font-weight: 200;" fill="rgb(50, 49, 63)" stroke="none" stroke-width="1px">1M</text><text x="760.9947916666666" y="0" dx="0em" dy="0.95em" style="text-anchor: middle; visibility: inherit; font-family: &quot;Helvetica Neue&quot;, sans-serif; font-size: 12px; font-weight: 200;" fill="rgb(50, 49, 63)" stroke="none" stroke-width="1px">1.2M</text><text x="869.7083333333333" y="0" dx="0em" dy="0.95em" style="text-anchor: middle; visibility: inherit; font-family: &quot;Helvetica Neue&quot;, sans-serif; font-size: 12px; font-weight: 200;" fill="rgb(50, 49, 63)" stroke="none" stroke-width="1px">1.4M</text><text x="978.421875" y="0" dx="0em" dy="0.95em" style="text-anchor: middle; visibility: hidden; font-family: &quot;Helvetica Neue&quot;, sans-serif; font-size: 12px; font-weight: 200;" fill="rgb(50, 49, 63)" stroke="none" stroke-width="1px">1.6M</text></g><line x1="0" y1="0" x2="978.421875" y2="0" fill="rgb(0, 0, 0)" stroke="rgb(204, 204, 204)" stroke-width="1px"></line></g></g></g></g></svg>